<svg xmlns="http://www.w3.org/2000/svg" xmlns:xlink="http://www.w3.org/1999/xlink" width="150" height="150" viewBox="0 0 600 600">
<defs>
  <clipPath id="clip540">
    <rect x="0" y="0" width="600" height="600"></rect>
  </clipPath>
</defs>
<path clip-path="url(#clip540)" d="
M0 600 L600 600 L600 0 L0 0  Z
  " fill="#ffffff" fill-rule="evenodd" fill-opacity="1"></path>
<defs>
  <clipPath id="clip541">
    <rect x="120" y="60" width="421" height="421"></rect>
  </clipPath>
</defs>
<path clip-path="url(#clip540)" d="
M64.645 543.535 L588.189 543.535 L588.189 61.108 L64.645 61.108  Z
  " fill="#ffffff" fill-rule="evenodd" fill-opacity="1"></path>
<defs>
  <clipPath id="clip542">
    <rect x="64" y="61" width="525" height="483"></rect>
  </clipPath>
</defs>
<polyline clip-path="url(#clip542)" style="stroke:#000000; stroke-width:0.5; stroke-opacity:0.1; fill:none" points="
  73.2102,543.535 73.2102,61.108 
  "></polyline>
<polyline clip-path="url(#clip542)" style="stroke:#000000; stroke-width:0.5; stroke-opacity:0.1; fill:none" points="
  198.251,543.535 198.251,61.108 
  "></polyline>
<polyline clip-path="url(#clip542)" style="stroke:#000000; stroke-width:0.5; stroke-opacity:0.1; fill:none" points="
  323.291,543.535 323.291,61.108 
  "></polyline>
<polyline clip-path="url(#clip542)" style="stroke:#000000; stroke-width:0.5; stroke-opacity:0.1; fill:none" points="
  448.331,543.535 448.331,61.108 
  "></polyline>
<polyline clip-path="url(#clip542)" style="stroke:#000000; stroke-width:0.5; stroke-opacity:0.1; fill:none" points="
  573.372,543.535 573.372,61.108 
  "></polyline>
<polyline clip-path="url(#clip540)" style="stroke:#000000; stroke-width:1; stroke-opacity:1; fill:none" points="
  64.645,543.535 588.189,543.535 
  "></polyline>
<polyline clip-path="url(#clip540)" style="stroke:#000000; stroke-width:1; stroke-opacity:1; fill:none" points="
  73.2102,543.535 73.2102,537.746 
  "></polyline>
<polyline clip-path="url(#clip540)" style="stroke:#000000; stroke-width:1; stroke-opacity:1; fill:none" points="
  198.251,543.535 198.251,537.746 
  "></polyline>
<polyline clip-path="url(#clip540)" style="stroke:#000000; stroke-width:1; stroke-opacity:1; fill:none" points="
  323.291,543.535 323.291,537.746 
  "></polyline>
<polyline clip-path="url(#clip540)" style="stroke:#000000; stroke-width:1; stroke-opacity:1; fill:none" points="
  448.331,543.535 448.331,537.746 
  "></polyline>
<polyline clip-path="url(#clip540)" style="stroke:#000000; stroke-width:1; stroke-opacity:1; fill:none" points="
  573.372,543.535 573.372,537.746 
  "></polyline>
<path clip-path="url(#clip540)" d="M 0 0 M73.2102 550.833 Q72.3075 550.833 71.8503 551.724 Q71.3989 552.609 71.3989 554.392 Q71.3989 556.168 71.8503 557.059 Q72.3075 557.945 73.2102 557.945 Q74.1188 557.945 74.5702 557.059 Q75.0274 556.168 75.0274 554.392 Q75.0274 552.609 74.5702 551.724 Q74.1188 550.833 73.2102 550.833 M73.2102 549.907 Q74.6628 549.907 75.4267 551.058 Q76.1963 552.204 76.1963 554.392 Q76.1963 556.573 75.4267 557.725 Q74.6628 558.871 73.2102 558.871 Q71.7577 558.871 70.988 557.725 Q70.2241 556.573 70.2241 554.392 Q70.2241 552.204 70.988 551.058 Q71.7577 549.907 73.2102 549.907 Z" fill="#000000" fill-rule="evenodd" fill-opacity="1"></path><path clip-path="url(#clip540)" d="M 0 0 M193.537 557.719 L197.617 557.719 L197.617 558.703 L192.131 558.703 L192.131 557.719 Q192.796 557.031 193.942 555.873 Q195.094 554.71 195.389 554.374 Q195.95 553.743 196.17 553.309 Q196.396 552.87 196.396 552.447 Q196.396 551.759 195.91 551.325 Q195.429 550.891 194.654 550.891 Q194.104 550.891 193.491 551.081 Q192.883 551.272 192.189 551.66 L192.189 550.48 Q192.895 550.196 193.508 550.051 Q194.122 549.907 194.631 549.907 Q195.973 549.907 196.772 550.578 Q197.571 551.249 197.571 552.372 Q197.571 552.904 197.368 553.385 Q197.171 553.859 196.645 554.507 Q196.5 554.675 195.725 555.48 Q194.949 556.278 193.537 557.719 Z" fill="#000000" fill-rule="evenodd" fill-opacity="1"></path><path clip-path="url(#clip540)" d="M 0 0 M201.384 550.833 Q200.481 550.833 200.024 551.724 Q199.573 552.609 199.573 554.392 Q199.573 556.168 200.024 557.059 Q200.481 557.945 201.384 557.945 Q202.293 557.945 202.744 557.059 Q203.201 556.168 203.201 554.392 Q203.201 552.609 202.744 551.724 Q202.293 550.833 201.384 550.833 M201.384 549.907 Q202.837 549.907 203.601 551.058 Q204.37 552.204 204.37 554.392 Q204.37 556.573 203.601 557.725 Q202.837 558.871 201.384 558.871 Q199.932 558.871 199.162 557.725 Q198.398 556.573 198.398 554.392 Q198.398 552.204 199.162 551.058 Q199.932 549.907 201.384 549.907 Z" fill="#000000" fill-rule="evenodd" fill-opacity="1"></path><path clip-path="url(#clip540)" d="M 0 0 M320.667 551.081 L317.715 555.694 L320.667 555.694 L320.667 551.081 M320.36 550.063 L321.83 550.063 L321.83 555.694 L323.062 555.694 L323.062 556.666 L321.83 556.666 L321.83 558.703 L320.667 558.703 L320.667 556.666 L316.766 556.666 L316.766 555.537 L320.36 550.063 Z" fill="#000000" fill-rule="evenodd" fill-opacity="1"></path><path clip-path="url(#clip540)" d="M 0 0 M326.83 550.833 Q325.927 550.833 325.47 551.724 Q325.018 552.609 325.018 554.392 Q325.018 556.168 325.47 557.059 Q325.927 557.945 326.83 557.945 Q327.738 557.945 328.19 557.059 Q328.647 556.168 328.647 554.392 Q328.647 552.609 328.19 551.724 Q327.738 550.833 326.83 550.833 M326.83 549.907 Q328.282 549.907 329.046 551.058 Q329.816 552.204 329.816 554.392 Q329.816 556.573 329.046 557.725 Q328.282 558.871 326.83 558.871 Q325.377 558.871 324.608 557.725 Q323.844 556.573 323.844 554.392 Q323.844 552.204 324.608 551.058 Q325.377 549.907 326.83 549.907 Z" fill="#000000" fill-rule="evenodd" fill-opacity="1"></path><path clip-path="url(#clip540)" d="M 0 0 M445.056 553.917 Q444.269 553.917 443.806 554.455 Q443.349 554.993 443.349 555.931 Q443.349 556.863 443.806 557.407 Q444.269 557.945 445.056 557.945 Q445.843 557.945 446.3 557.407 Q446.763 556.863 446.763 555.931 Q446.763 554.993 446.3 554.455 Q445.843 553.917 445.056 553.917 M447.376 550.254 L447.376 551.319 Q446.937 551.11 446.485 551 Q446.04 550.891 445.6 550.891 Q444.442 550.891 443.829 551.672 Q443.221 552.453 443.135 554.033 Q443.476 553.529 443.991 553.263 Q444.506 552.991 445.125 552.991 Q446.427 552.991 447.18 553.784 Q447.938 554.571 447.938 555.931 Q447.938 557.262 447.151 558.066 Q446.364 558.871 445.056 558.871 Q443.557 558.871 442.764 557.725 Q441.971 556.573 441.971 554.392 Q441.971 552.343 442.944 551.128 Q443.916 549.907 445.554 549.907 Q445.993 549.907 446.439 549.994 Q446.89 550.08 447.376 550.254 Z" fill="#000000" fill-rule="evenodd" fill-opacity="1"></path><path clip-path="url(#clip540)" d="M 0 0 M451.705 550.833 Q450.802 550.833 450.345 551.724 Q449.894 552.609 449.894 554.392 Q449.894 556.168 450.345 557.059 Q450.802 557.945 451.705 557.945 Q452.614 557.945 453.065 557.059 Q453.522 556.168 453.522 554.392 Q453.522 552.609 453.065 551.724 Q452.614 550.833 451.705 550.833 M451.705 549.907 Q453.158 549.907 453.922 551.058 Q454.691 552.204 454.691 554.392 Q454.691 556.573 453.922 557.725 Q453.158 558.871 451.705 558.871 Q450.253 558.871 449.483 557.725 Q448.719 556.573 448.719 554.392 Q448.719 552.204 449.483 551.058 Q450.253 549.907 451.705 549.907 Z" fill="#000000" fill-rule="evenodd" fill-opacity="1"></path><path clip-path="url(#clip540)" d="M 0 0 M569.995 554.6 Q569.162 554.6 568.681 555.046 Q568.207 555.491 568.207 556.272 Q568.207 557.054 568.681 557.499 Q569.162 557.945 569.995 557.945 Q570.828 557.945 571.309 557.499 Q571.789 557.048 571.789 556.272 Q571.789 555.491 571.309 555.046 Q570.834 554.6 569.995 554.6 M568.826 554.102 Q568.074 553.917 567.651 553.402 Q567.235 552.887 567.235 552.146 Q567.235 551.11 567.97 550.509 Q568.71 549.907 569.995 549.907 Q571.285 549.907 572.02 550.509 Q572.755 551.11 572.755 552.146 Q572.755 552.887 572.333 553.402 Q571.916 553.917 571.17 554.102 Q572.015 554.299 572.483 554.872 Q572.958 555.445 572.958 556.272 Q572.958 557.528 572.188 558.199 Q571.424 558.871 569.995 558.871 Q568.566 558.871 567.796 558.199 Q567.032 557.528 567.032 556.272 Q567.032 555.445 567.507 554.872 Q567.981 554.299 568.826 554.102 M568.398 552.256 Q568.398 552.928 568.814 553.304 Q569.237 553.68 569.995 553.68 Q570.747 553.68 571.17 553.304 Q571.598 552.928 571.598 552.256 Q571.598 551.585 571.17 551.209 Q570.747 550.833 569.995 550.833 Q569.237 550.833 568.814 551.209 Q568.398 551.585 568.398 552.256 Z" fill="#000000" fill-rule="evenodd" fill-opacity="1"></path><path clip-path="url(#clip540)" d="M 0 0 M576.725 550.833 Q575.822 550.833 575.365 551.724 Q574.914 552.609 574.914 554.392 Q574.914 556.168 575.365 557.059 Q575.822 557.945 576.725 557.945 Q577.634 557.945 578.085 557.059 Q578.542 556.168 578.542 554.392 Q578.542 552.609 578.085 551.724 Q577.634 550.833 576.725 550.833 M576.725 549.907 Q578.178 549.907 578.942 551.058 Q579.711 552.204 579.711 554.392 Q579.711 556.573 578.942 557.725 Q578.178 558.871 576.725 558.871 Q575.273 558.871 574.503 557.725 Q573.739 556.573 573.739 554.392 Q573.739 552.204 574.503 551.058 Q575.273 549.907 576.725 549.907 Z" fill="#000000" fill-rule="evenodd" fill-opacity="1"></path><path clip-path="url(#clip540)" d="M 0 0 M262.481 574.523 Q261.789 574.523 261.391 575.112 Q261.001 575.701 261.001 576.751 Q261.001 577.786 261.391 578.382 Q261.789 578.971 262.481 578.971 Q263.158 578.971 263.548 578.382 Q263.946 577.786 263.946 576.751 Q263.946 575.709 263.548 575.12 Q263.158 574.523 262.481 574.523 M262.481 573.513 Q263.739 573.513 264.479 574.388 Q265.219 575.263 265.219 576.751 Q265.219 578.239 264.471 579.114 Q263.731 579.982 262.481 579.982 Q261.208 579.982 260.468 579.114 Q259.728 578.239 259.728 576.751 Q259.728 575.255 260.468 574.388 Q261.216 573.513 262.481 573.513 M254.27 568.667 Q253.585 568.667 253.187 569.263 Q252.798 569.852 252.798 570.887 Q252.798 571.937 253.187 572.526 Q253.577 573.115 254.27 573.115 Q254.962 573.115 255.352 572.526 Q255.75 571.937 255.75 570.887 Q255.75 569.86 255.352 569.263 Q254.954 568.667 254.27 568.667 M261.455 567.656 L262.728 567.656 L255.296 579.982 L254.023 579.982 L261.455 567.656 M254.27 567.656 Q255.527 567.656 256.275 568.531 Q257.023 569.399 257.023 570.887 Q257.023 572.391 256.275 573.258 Q255.535 574.125 254.27 574.125 Q253.004 574.125 252.264 573.258 Q251.532 572.383 251.532 570.887 Q251.532 569.407 252.272 568.531 Q253.012 567.656 254.27 567.656 Z" fill="#000000" fill-rule="evenodd" fill-opacity="1"></path><path clip-path="url(#clip540)" d="M 0 0 M277.799 572.192 L277.799 567.37 L279.263 567.37 L279.263 579.751 L277.799 579.751 L277.799 578.414 Q277.337 579.21 276.629 579.6 Q275.929 579.982 274.942 579.982 Q273.327 579.982 272.308 578.693 Q271.298 577.404 271.298 575.303 Q271.298 573.202 272.308 571.913 Q273.327 570.624 274.942 570.624 Q275.929 570.624 276.629 571.014 Q277.337 571.396 277.799 572.192 M272.81 575.303 Q272.81 576.918 273.47 577.841 Q274.139 578.756 275.3 578.756 Q276.462 578.756 277.13 577.841 Q277.799 576.918 277.799 575.303 Q277.799 573.688 277.13 572.773 Q276.462 571.85 275.3 571.85 Q274.139 571.85 273.47 572.773 Q272.81 573.688 272.81 575.303 Z" fill="#000000" fill-rule="evenodd" fill-opacity="1"></path><path clip-path="url(#clip540)" d="M 0 0 M288.422 574.929 L288.422 575.645 L281.69 575.645 Q281.785 577.157 282.597 577.953 Q283.417 578.74 284.873 578.74 Q285.716 578.74 286.504 578.534 Q287.3 578.327 288.08 577.913 L288.08 579.297 Q287.292 579.632 286.464 579.807 Q285.637 579.982 284.785 579.982 Q282.653 579.982 281.403 578.74 Q280.162 577.499 280.162 575.382 Q280.162 573.194 281.34 571.913 Q282.525 570.624 284.531 570.624 Q286.329 570.624 287.371 571.786 Q288.422 572.94 288.422 574.929 M286.958 574.499 Q286.942 573.298 286.281 572.582 Q285.629 571.865 284.547 571.865 Q283.321 571.865 282.581 572.558 Q281.849 573.25 281.738 574.507 L286.958 574.499 Z" fill="#000000" fill-rule="evenodd" fill-opacity="1"></path><path clip-path="url(#clip540)" d="M 0 0 M288.907 570.839 L290.459 570.839 L293.244 578.319 L296.029 570.839 L297.58 570.839 L294.238 579.751 L292.249 579.751 L288.907 570.839 Z" fill="#000000" fill-rule="evenodd" fill-opacity="1"></path><path clip-path="url(#clip540)" d="M 0 0 M299.116 570.839 L300.58 570.839 L300.58 579.751 L299.116 579.751 L299.116 570.839 M299.116 567.37 L300.58 567.37 L300.58 569.224 L299.116 569.224 L299.116 567.37 Z" fill="#000000" fill-rule="evenodd" fill-opacity="1"></path><path clip-path="url(#clip540)" d="M 0 0 M306.166 575.271 Q304.392 575.271 303.707 575.677 Q303.023 576.083 303.023 577.061 Q303.023 577.841 303.532 578.303 Q304.049 578.756 304.933 578.756 Q306.15 578.756 306.882 577.897 Q307.622 577.03 307.622 575.597 L307.622 575.271 L306.166 575.271 M309.086 574.666 L309.086 579.751 L307.622 579.751 L307.622 578.398 Q307.121 579.21 306.373 579.6 Q305.625 579.982 304.543 579.982 Q303.174 579.982 302.363 579.218 Q301.559 578.446 301.559 577.157 Q301.559 575.653 302.561 574.889 Q303.572 574.125 305.569 574.125 L307.622 574.125 L307.622 573.982 Q307.622 572.971 306.954 572.422 Q306.293 571.865 305.092 571.865 Q304.328 571.865 303.604 572.048 Q302.88 572.231 302.211 572.597 L302.211 571.245 Q303.015 570.934 303.771 570.783 Q304.527 570.624 305.243 570.624 Q307.177 570.624 308.131 571.627 Q309.086 572.629 309.086 574.666 Z" fill="#000000" fill-rule="evenodd" fill-opacity="1"></path><path clip-path="url(#clip540)" d="M 0 0 M312.07 568.309 L312.07 570.839 L315.086 570.839 L315.086 571.977 L312.07 571.977 L312.07 576.815 Q312.07 577.905 312.365 578.215 Q312.667 578.526 313.582 578.526 L315.086 578.526 L315.086 579.751 L313.582 579.751 Q311.887 579.751 311.243 579.122 Q310.598 578.486 310.598 576.815 L310.598 571.977 L309.524 571.977 L309.524 570.839 L310.598 570.839 L310.598 568.309 L312.07 568.309 Z" fill="#000000" fill-rule="evenodd" fill-opacity="1"></path><path clip-path="url(#clip540)" d="M 0 0 M316.622 570.839 L318.086 570.839 L318.086 579.751 L316.622 579.751 L316.622 570.839 M316.622 567.37 L318.086 567.37 L318.086 569.224 L316.622 569.224 L316.622 567.37 Z" fill="#000000" fill-rule="evenodd" fill-opacity="1"></path><path clip-path="url(#clip540)" d="M 0 0 M323.075 571.865 Q321.897 571.865 321.213 572.788 Q320.529 573.704 320.529 575.303 Q320.529 576.902 321.205 577.825 Q321.889 578.74 323.075 578.74 Q324.245 578.74 324.929 577.817 Q325.613 576.894 325.613 575.303 Q325.613 573.719 324.929 572.796 Q324.245 571.865 323.075 571.865 M323.075 570.624 Q324.985 570.624 326.075 571.865 Q327.165 573.107 327.165 575.303 Q327.165 577.491 326.075 578.74 Q324.985 579.982 323.075 579.982 Q321.157 579.982 320.067 578.74 Q318.985 577.491 318.985 575.303 Q318.985 573.107 320.067 571.865 Q321.157 570.624 323.075 570.624 Z" fill="#000000" fill-rule="evenodd" fill-opacity="1"></path><path clip-path="url(#clip540)" d="M 0 0 M336.109 574.372 L336.109 579.751 L334.645 579.751 L334.645 574.42 Q334.645 573.154 334.151 572.526 Q333.658 571.897 332.671 571.897 Q331.486 571.897 330.801 572.653 Q330.117 573.409 330.117 574.714 L330.117 579.751 L328.645 579.751 L328.645 570.839 L330.117 570.839 L330.117 572.224 Q330.642 571.42 331.35 571.022 Q332.067 570.624 332.998 570.624 Q334.533 570.624 335.321 571.579 Q336.109 572.526 336.109 574.372 Z" fill="#000000" fill-rule="evenodd" fill-opacity="1"></path><path clip-path="url(#clip540)" d="M 0 0 M347.336 567.37 L347.336 568.587 L345.936 568.587 Q345.148 568.587 344.838 568.905 Q344.535 569.224 344.535 570.051 L344.535 570.839 L346.946 570.839 L346.946 571.977 L344.535 571.977 L344.535 579.751 L343.063 579.751 L343.063 571.977 L341.663 571.977 L341.663 570.839 L343.063 570.839 L343.063 570.218 Q343.063 568.73 343.756 568.054 Q344.448 567.37 345.952 567.37 L347.336 567.37 Z" fill="#000000" fill-rule="evenodd" fill-opacity="1"></path><path clip-path="url(#clip540)" d="M 0 0 M354.036 572.208 Q353.79 572.064 353.495 572.001 Q353.209 571.929 352.859 571.929 Q351.617 571.929 350.949 572.741 Q350.288 573.544 350.288 575.056 L350.288 579.751 L348.816 579.751 L348.816 570.839 L350.288 570.839 L350.288 572.224 Q350.75 571.412 351.49 571.022 Q352.23 570.624 353.288 570.624 Q353.439 570.624 353.622 570.648 Q353.805 570.664 354.028 570.704 L354.036 572.208 Z" fill="#000000" fill-rule="evenodd" fill-opacity="1"></path><path clip-path="url(#clip540)" d="M 0 0 M358.667 571.865 Q357.49 571.865 356.805 572.788 Q356.121 573.704 356.121 575.303 Q356.121 576.902 356.797 577.825 Q357.482 578.74 358.667 578.74 Q359.837 578.74 360.521 577.817 Q361.206 576.894 361.206 575.303 Q361.206 573.719 360.521 572.796 Q359.837 571.865 358.667 571.865 M358.667 570.624 Q360.577 570.624 361.667 571.865 Q362.757 573.107 362.757 575.303 Q362.757 577.491 361.667 578.74 Q360.577 579.982 358.667 579.982 Q356.75 579.982 355.659 578.74 Q354.577 577.491 354.577 575.303 Q354.577 573.107 355.659 571.865 Q356.75 570.624 358.667 570.624 Z" fill="#000000" fill-rule="evenodd" fill-opacity="1"></path><path clip-path="url(#clip540)" d="M 0 0 M371.232 572.55 Q371.781 571.563 372.544 571.094 Q373.308 570.624 374.343 570.624 Q375.735 570.624 376.491 571.603 Q377.247 572.574 377.247 574.372 L377.247 579.751 L375.775 579.751 L375.775 574.42 Q375.775 573.139 375.322 572.518 Q374.868 571.897 373.937 571.897 Q372.799 571.897 372.139 572.653 Q371.478 573.409 371.478 574.714 L371.478 579.751 L370.006 579.751 L370.006 574.42 Q370.006 573.131 369.553 572.518 Q369.099 571.897 368.152 571.897 Q367.03 571.897 366.37 572.661 Q365.709 573.417 365.709 574.714 L365.709 579.751 L364.237 579.751 L364.237 570.839 L365.709 570.839 L365.709 572.224 Q366.211 571.404 366.911 571.014 Q367.611 570.624 368.574 570.624 Q369.545 570.624 370.221 571.117 Q370.905 571.611 371.232 572.55 Z" fill="#000000" fill-rule="evenodd" fill-opacity="1"></path><path clip-path="url(#clip540)" d="M 0 0 M391.148 568.261 L391.148 569.828 Q390.233 569.391 389.422 569.176 Q388.61 568.961 387.854 568.961 Q386.541 568.961 385.825 569.47 Q385.117 569.98 385.117 570.919 Q385.117 571.706 385.586 572.112 Q386.064 572.51 387.385 572.757 L388.355 572.956 Q390.154 573.298 391.005 574.165 Q391.864 575.024 391.864 576.473 Q391.864 578.199 390.703 579.091 Q389.549 579.982 387.313 579.982 Q386.469 579.982 385.515 579.791 Q384.568 579.6 383.549 579.226 L383.549 577.571 Q384.528 578.12 385.467 578.398 Q386.406 578.677 387.313 578.677 Q388.689 578.677 389.437 578.136 Q390.185 577.595 390.185 576.592 Q390.185 575.717 389.644 575.223 Q389.111 574.73 387.886 574.483 L386.907 574.292 Q385.109 573.934 384.305 573.17 Q383.501 572.407 383.501 571.046 Q383.501 569.47 384.607 568.563 Q385.721 567.656 387.671 567.656 Q388.506 567.656 389.374 567.807 Q390.241 567.958 391.148 568.261 Z" fill="#000000" fill-rule="evenodd" fill-opacity="1"></path><path clip-path="url(#clip540)" d="M 0 0 M400.585 568.261 L400.585 569.828 Q399.67 569.391 398.859 569.176 Q398.047 568.961 397.291 568.961 Q395.978 568.961 395.262 569.47 Q394.554 569.98 394.554 570.919 Q394.554 571.706 395.023 572.112 Q395.501 572.51 396.822 572.757 L397.792 572.956 Q399.591 573.298 400.442 574.165 Q401.302 575.024 401.302 576.473 Q401.302 578.199 400.14 579.091 Q398.986 579.982 396.75 579.982 Q395.907 579.982 394.952 579.791 Q394.005 579.6 392.986 579.226 L392.986 577.571 Q393.965 578.12 394.904 578.398 Q395.843 578.677 396.75 578.677 Q398.127 578.677 398.875 578.136 Q399.623 577.595 399.623 576.592 Q399.623 575.717 399.082 575.223 Q398.548 574.73 397.323 574.483 L396.344 574.292 Q394.546 573.934 393.742 573.17 Q392.939 572.407 392.939 571.046 Q392.939 569.47 394.045 568.563 Q395.159 567.656 397.108 567.656 Q397.944 567.656 398.811 567.807 Q399.678 567.958 400.585 568.261 Z" fill="#000000" fill-rule="evenodd" fill-opacity="1"></path><polyline clip-path="url(#clip542)" style="stroke:#000000; stroke-width:0.5; stroke-opacity:0.1; fill:none" points="
  64.645,497.37 588.189,497.37 
  "></polyline>
<polyline clip-path="url(#clip542)" style="stroke:#000000; stroke-width:0.5; stroke-opacity:0.1; fill:none" points="
  64.645,391.718 588.189,391.718 
  "></polyline>
<polyline clip-path="url(#clip542)" style="stroke:#000000; stroke-width:0.5; stroke-opacity:0.1; fill:none" points="
  64.645,286.066 588.189,286.066 
  "></polyline>
<polyline clip-path="url(#clip542)" style="stroke:#000000; stroke-width:0.5; stroke-opacity:0.1; fill:none" points="
  64.645,180.414 588.189,180.414 
  "></polyline>
<polyline clip-path="url(#clip542)" style="stroke:#000000; stroke-width:0.5; stroke-opacity:0.1; fill:none" points="
  64.645,74.7616 588.189,74.7616 
  "></polyline>
<polyline clip-path="url(#clip540)" style="stroke:#000000; stroke-width:1; stroke-opacity:1; fill:none" points="
  64.645,543.535 64.645,61.108 
  "></polyline>
<polyline clip-path="url(#clip540)" style="stroke:#000000; stroke-width:1; stroke-opacity:1; fill:none" points="
  64.645,497.37 70.9275,497.37 
  "></polyline>
<polyline clip-path="url(#clip540)" style="stroke:#000000; stroke-width:1; stroke-opacity:1; fill:none" points="
  64.645,391.718 70.9275,391.718 
  "></polyline>
<polyline clip-path="url(#clip540)" style="stroke:#000000; stroke-width:1; stroke-opacity:1; fill:none" points="
  64.645,286.066 70.9275,286.066 
  "></polyline>
<polyline clip-path="url(#clip540)" style="stroke:#000000; stroke-width:1; stroke-opacity:1; fill:none" points="
  64.645,180.414 70.9275,180.414 
  "></polyline>
<polyline clip-path="url(#clip540)" style="stroke:#000000; stroke-width:1; stroke-opacity:1; fill:none" points="
  64.645,74.7616 70.9275,74.7616 
  "></polyline>
<path clip-path="url(#clip540)" d="M 0 0 M43.417 493.819 Q42.5143 493.819 42.0571 494.711 Q41.6057 495.596 41.6057 497.378 Q41.6057 499.155 42.0571 500.046 Q42.5143 500.932 43.417 500.932 Q44.3256 500.932 44.777 500.046 Q45.2341 499.155 45.2341 497.378 Q45.2341 495.596 44.777 494.711 Q44.3256 493.819 43.417 493.819 M43.417 492.893 Q44.8696 492.893 45.6335 494.045 Q46.4031 495.191 46.4031 497.378 Q46.4031 499.56 45.6335 500.712 Q44.8696 501.858 43.417 501.858 Q41.9645 501.858 41.1948 500.712 Q40.4309 499.56 40.4309 497.378 Q40.4309 495.191 41.1948 494.045 Q41.9645 492.893 43.417 492.893 Z" fill="#000000" fill-rule="evenodd" fill-opacity="1"></path><path clip-path="url(#clip540)" d="M 0 0 M47.6705 500.22 L48.8915 500.22 L48.8915 501.69 L47.6705 501.69 L47.6705 500.22 Z" fill="#000000" fill-rule="evenodd" fill-opacity="1"></path><path clip-path="url(#clip540)" d="M 0 0 M52.6589 493.819 Q51.7561 493.819 51.2989 494.711 Q50.8475 495.596 50.8475 497.378 Q50.8475 499.155 51.2989 500.046 Q51.7561 500.932 52.6589 500.932 Q53.5674 500.932 54.0188 500.046 Q54.476 499.155 54.476 497.378 Q54.476 495.596 54.0188 494.711 Q53.5674 493.819 52.6589 493.819 M52.6589 492.893 Q54.1114 492.893 54.8753 494.045 Q55.645 495.191 55.645 497.378 Q55.645 499.56 54.8753 500.712 Q54.1114 501.858 52.6589 501.858 Q51.2063 501.858 50.4367 500.712 Q49.6728 499.56 49.6728 497.378 Q49.6728 495.191 50.4367 494.045 Q51.2063 492.893 52.6589 492.893 Z" fill="#000000" fill-rule="evenodd" fill-opacity="1"></path><path clip-path="url(#clip540)" d="M 0 0 M42.5721 395.054 L46.652 395.054 L46.652 396.038 L41.1659 396.038 L41.1659 395.054 Q41.8314 394.365 42.9772 393.208 Q44.1288 392.045 44.424 391.709 Q44.9853 391.078 45.2052 390.644 Q45.4309 390.204 45.4309 389.782 Q45.4309 389.093 44.9448 388.659 Q44.4645 388.225 43.689 388.225 Q43.1393 388.225 42.5258 388.416 Q41.9182 388.607 41.2238 388.995 L41.2238 387.814 Q41.9298 387.531 42.5432 387.386 Q43.1566 387.241 43.6659 387.241 Q45.0085 387.241 45.8071 387.913 Q46.6057 388.584 46.6057 389.707 Q46.6057 390.239 46.4031 390.719 Q46.2064 391.194 45.6797 391.842 Q45.5351 392.01 44.7596 392.814 Q43.9842 393.613 42.5721 395.054 Z" fill="#000000" fill-rule="evenodd" fill-opacity="1"></path><path clip-path="url(#clip540)" d="M 0 0 M47.9193 394.568 L49.1404 394.568 L49.1404 396.038 L47.9193 396.038 L47.9193 394.568 Z" fill="#000000" fill-rule="evenodd" fill-opacity="1"></path><path clip-path="url(#clip540)" d="M 0 0 M50.4193 387.398 L55.0084 387.398 L55.0084 388.381 L51.4899 388.381 L51.4899 390.499 Q51.7445 390.413 51.9992 390.372 Q52.2538 390.326 52.5084 390.326 Q53.9552 390.326 54.8001 391.119 Q55.645 391.912 55.645 393.266 Q55.645 394.66 54.7769 395.436 Q53.9089 396.205 52.329 396.205 Q51.785 396.205 51.2179 396.113 Q50.6566 396.02 50.0547 395.835 L50.0547 394.66 Q50.5756 394.944 51.1311 395.083 Q51.6867 395.222 52.3059 395.222 Q53.307 395.222 53.8915 394.695 Q54.476 394.168 54.476 393.266 Q54.476 392.363 53.8915 391.836 Q53.307 391.31 52.3059 391.31 Q51.8371 391.31 51.3684 391.414 Q50.9054 391.518 50.4193 391.738 L50.4193 387.398 Z" fill="#000000" fill-rule="evenodd" fill-opacity="1"></path><path clip-path="url(#clip540)" d="M 0 0 M41.1775 281.746 L45.7666 281.746 L45.7666 282.729 L42.2481 282.729 L42.2481 284.847 Q42.5027 284.761 42.7573 284.72 Q43.0119 284.674 43.2666 284.674 Q44.7133 284.674 45.5582 285.467 Q46.4031 286.26 46.4031 287.614 Q46.4031 289.008 45.5351 289.784 Q44.667 290.553 43.0872 290.553 Q42.5432 290.553 41.9761 290.461 Q41.4147 290.368 40.8129 290.183 L40.8129 289.008 Q41.3337 289.292 41.8893 289.431 Q42.4448 289.57 43.064 289.57 Q44.0652 289.57 44.6497 289.043 Q45.2341 288.516 45.2341 287.614 Q45.2341 286.711 44.6497 286.184 Q44.0652 285.658 43.064 285.658 Q42.5953 285.658 42.1265 285.762 Q41.6636 285.866 41.1775 286.086 L41.1775 281.746 Z" fill="#000000" fill-rule="evenodd" fill-opacity="1"></path><path clip-path="url(#clip540)" d="M 0 0 M47.6705 288.916 L48.8915 288.916 L48.8915 290.386 L47.6705 290.386 L47.6705 288.916 Z" fill="#000000" fill-rule="evenodd" fill-opacity="1"></path><path clip-path="url(#clip540)" d="M 0 0 M52.6589 282.515 Q51.7561 282.515 51.2989 283.407 Q50.8475 284.292 50.8475 286.074 Q50.8475 287.851 51.2989 288.742 Q51.7561 289.628 52.6589 289.628 Q53.5674 289.628 54.0188 288.742 Q54.476 287.851 54.476 286.074 Q54.476 284.292 54.0188 283.407 Q53.5674 282.515 52.6589 282.515 M52.6589 281.589 Q54.1114 281.589 54.8753 282.741 Q55.645 283.887 55.645 286.074 Q55.645 288.256 54.8753 289.408 Q54.1114 290.553 52.6589 290.553 Q51.2063 290.553 50.4367 289.408 Q49.6728 288.256 49.6728 286.074 Q49.6728 283.887 50.4367 282.741 Q51.2063 281.589 52.6589 281.589 Z" fill="#000000" fill-rule="evenodd" fill-opacity="1"></path><path clip-path="url(#clip540)" d="M 0 0 M41.0964 176.094 L46.652 176.094 L46.652 176.591 L43.5154 184.734 L42.2943 184.734 L45.2457 177.077 L41.0964 177.077 L41.0964 176.094 Z" fill="#000000" fill-rule="evenodd" fill-opacity="1"></path><path clip-path="url(#clip540)" d="M 0 0 M47.9193 183.264 L49.1404 183.264 L49.1404 184.734 L47.9193 184.734 L47.9193 183.264 Z" fill="#000000" fill-rule="evenodd" fill-opacity="1"></path><path clip-path="url(#clip540)" d="M 0 0 M50.4193 176.094 L55.0084 176.094 L55.0084 177.077 L51.4899 177.077 L51.4899 179.195 Q51.7445 179.109 51.9992 179.068 Q52.2538 179.022 52.5084 179.022 Q53.9552 179.022 54.8001 179.815 Q55.645 180.608 55.645 181.962 Q55.645 183.356 54.7769 184.132 Q53.9089 184.901 52.329 184.901 Q51.785 184.901 51.2179 184.809 Q50.6566 184.716 50.0547 184.531 L50.0547 183.356 Q50.5756 183.64 51.1311 183.779 Q51.6867 183.918 52.3059 183.918 Q53.307 183.918 53.8915 183.391 Q54.476 182.864 54.476 181.962 Q54.476 181.059 53.8915 180.532 Q53.307 180.006 52.3059 180.006 Q51.8371 180.006 51.3684 180.11 Q50.9054 180.214 50.4193 180.434 L50.4193 176.094 Z" fill="#000000" fill-rule="evenodd" fill-opacity="1"></path><path clip-path="url(#clip540)" d="M 0 0 M34.6729 78.0978 L36.5826 78.0978 L36.5826 71.5064 L34.505 71.9231 L34.505 70.8583 L36.571 70.4416 L37.74 70.4416 L37.74 78.0978 L39.6497 78.0978 L39.6497 79.0816 L34.6729 79.0816 L34.6729 78.0978 Z" fill="#000000" fill-rule="evenodd" fill-opacity="1"></path><path clip-path="url(#clip540)" d="M 0 0 M43.417 71.2113 Q42.5143 71.2113 42.0571 72.1025 Q41.6057 72.9879 41.6057 74.7703 Q41.6057 76.5469 42.0571 77.4381 Q42.5143 78.3235 43.417 78.3235 Q44.3256 78.3235 44.777 77.4381 Q45.2341 76.5469 45.2341 74.7703 Q45.2341 72.9879 44.777 72.1025 Q44.3256 71.2113 43.417 71.2113 M43.417 70.2854 Q44.8696 70.2854 45.6335 71.437 Q46.4031 72.5828 46.4031 74.7703 Q46.4031 76.952 45.6335 78.1036 Q44.8696 79.2494 43.417 79.2494 Q41.9645 79.2494 41.1948 78.1036 Q40.4309 76.952 40.4309 74.7703 Q40.4309 72.5828 41.1948 71.437 Q41.9645 70.2854 43.417 70.2854 Z" fill="#000000" fill-rule="evenodd" fill-opacity="1"></path><path clip-path="url(#clip540)" d="M 0 0 M47.6705 77.6117 L48.8915 77.6117 L48.8915 79.0816 L47.6705 79.0816 L47.6705 77.6117 Z" fill="#000000" fill-rule="evenodd" fill-opacity="1"></path><path clip-path="url(#clip540)" d="M 0 0 M52.6589 71.2113 Q51.7561 71.2113 51.2989 72.1025 Q50.8475 72.9879 50.8475 74.7703 Q50.8475 76.5469 51.2989 77.4381 Q51.7561 78.3235 52.6589 78.3235 Q53.5674 78.3235 54.0188 77.4381 Q54.476 76.5469 54.476 74.7703 Q54.476 72.9879 54.0188 72.1025 Q53.5674 71.2113 52.6589 71.2113 M52.6589 70.2854 Q54.1114 70.2854 54.8753 71.437 Q55.645 72.5828 55.645 74.7703 Q55.645 76.952 54.8753 78.1036 Q54.1114 79.2494 52.6589 79.2494 Q51.2063 79.2494 50.4367 78.1036 Q49.6728 76.952 49.6728 74.7703 Q49.6728 72.5828 50.4367 71.437 Q51.2063 70.2854 52.6589 70.2854 Z" fill="#000000" fill-rule="evenodd" fill-opacity="1"></path><path clip-path="url(#clip540)" d="M 0 0 M10.061 329.177 L10.061 327.569 L14.9308 327.569 L14.9308 321.729 L10.061 321.729 L10.061 320.122 L21.941 320.122 L21.941 321.729 L16.2835 321.729 L16.2835 327.569 L21.941 327.569 L21.941 329.177 L10.061 329.177 Z" fill="#000000" fill-rule="evenodd" fill-opacity="1"></path><path clip-path="url(#clip540)" d="M 0 0 M14.0555 315.132 Q14.0555 316.31 14.9785 316.994 Q15.8936 317.679 17.493 317.679 Q19.0924 317.679 20.0154 317.002 Q20.9305 316.318 20.9305 315.132 Q20.9305 313.963 20.0075 313.278 Q19.0844 312.594 17.493 312.594 Q15.9095 312.594 14.9865 313.278 Q14.0555 313.963 14.0555 315.132 M12.8142 315.132 Q12.8142 313.223 14.0555 312.133 Q15.2968 311.043 17.493 311.043 Q19.6812 311.043 20.9305 312.133 Q22.1718 313.223 22.1718 315.132 Q22.1718 317.05 20.9305 318.14 Q19.6812 319.222 17.493 319.222 Q15.2968 319.222 14.0555 318.14 Q12.8142 317.05 12.8142 315.132 Z" fill="#000000" fill-rule="evenodd" fill-opacity="1"></path><path clip-path="url(#clip540)" d="M 0 0 M14.3977 304.343 Q14.2544 304.589 14.1908 304.884 Q14.1192 305.17 14.1192 305.52 Q14.1192 306.762 14.9308 307.43 Q15.7345 308.09 17.2463 308.09 L21.941 308.09 L21.941 309.562 L13.0291 309.562 L13.0291 308.09 L14.4136 308.09 Q13.602 307.629 13.2121 306.889 Q12.8142 306.149 12.8142 305.091 Q12.8142 304.939 12.8381 304.756 Q12.854 304.573 12.8938 304.351 L14.3977 304.343 Z" fill="#000000" fill-rule="evenodd" fill-opacity="1"></path><path clip-path="url(#clip540)" d="M 0 0 M13.0291 302.807 L13.0291 301.343 L21.941 301.343 L21.941 302.807 L13.0291 302.807 M9.55974 302.807 L9.55974 301.343 L11.4138 301.343 L11.4138 302.807 L9.55974 302.807 Z" fill="#000000" fill-rule="evenodd" fill-opacity="1"></path><path clip-path="url(#clip540)" d="M 0 0 M13.0291 300.444 L13.0291 293.489 L14.3658 293.489 L20.7713 298.995 L20.7713 293.489 L21.941 293.489 L21.941 300.643 L20.6042 300.643 L14.1987 295.136 L14.1987 300.444 L13.0291 300.444 Z" fill="#000000" fill-rule="evenodd" fill-opacity="1"></path><path clip-path="url(#clip540)" d="M 0 0 M14.0555 288.5 Q14.0555 289.678 14.9785 290.362 Q15.8936 291.046 17.493 291.046 Q19.0924 291.046 20.0154 290.37 Q20.9305 289.686 20.9305 288.5 Q20.9305 287.33 20.0075 286.646 Q19.0844 285.962 17.493 285.962 Q15.9095 285.962 14.9865 286.646 Q14.0555 287.33 14.0555 288.5 M12.8142 288.5 Q12.8142 286.59 14.0555 285.5 Q15.2968 284.41 17.493 284.41 Q19.6812 284.41 20.9305 285.5 Q22.1718 286.59 22.1718 288.5 Q22.1718 290.418 20.9305 291.508 Q19.6812 292.59 17.493 292.59 Q15.2968 292.59 14.0555 291.508 Q12.8142 290.418 12.8142 288.5 Z" fill="#000000" fill-rule="evenodd" fill-opacity="1"></path><path clip-path="url(#clip540)" d="M 0 0 M16.562 275.466 L21.941 275.466 L21.941 276.93 L16.6098 276.93 Q15.3446 276.93 14.716 277.424 Q14.0873 277.917 14.0873 278.904 Q14.0873 280.089 14.8433 280.774 Q15.5992 281.458 16.9042 281.458 L21.941 281.458 L21.941 282.93 L13.0291 282.93 L13.0291 281.458 L14.4136 281.458 Q13.6099 280.933 13.2121 280.225 Q12.8142 279.508 12.8142 278.577 Q12.8142 277.042 13.7691 276.254 Q14.716 275.466 16.562 275.466 Z" fill="#000000" fill-rule="evenodd" fill-opacity="1"></path><path clip-path="url(#clip540)" d="M 0 0 M149.544 3.024 L151.59 3.024 L151.59 18.144 L149.544 18.144 L149.544 3.024 Z" fill="#000000" fill-rule="evenodd" fill-opacity="1"></path><path clip-path="url(#clip540)" d="M 0 0 M162.376 8.97883 Q163.074 7.72305 164.047 7.12554 Q165.019 6.52803 166.335 6.52803 Q168.108 6.52803 169.07 7.77369 Q170.032 9.00921 170.032 11.298 L170.032 18.144 L168.158 18.144 L168.158 11.3587 Q168.158 9.72825 167.581 8.93832 Q167.004 8.14839 165.819 8.14839 Q164.371 8.14839 163.53 9.11048 Q162.69 10.0726 162.69 11.7334 L162.69 18.144 L160.816 18.144 L160.816 11.3587 Q160.816 9.71812 160.239 8.93832 Q159.662 8.14839 158.456 8.14839 Q157.028 8.14839 156.188 9.12061 Q155.347 10.0827 155.347 11.7334 L155.347 18.144 L153.474 18.144 L153.474 6.80147 L155.347 6.80147 L155.347 8.56361 Q155.985 7.5205 156.877 7.02427 Q157.768 6.52803 158.993 6.52803 Q160.229 6.52803 161.089 7.15592 Q161.96 7.78381 162.376 8.97883 Z" fill="#000000" fill-rule="evenodd" fill-opacity="1"></path><path clip-path="url(#clip540)" d="M 0 0 M173.789 16.4426 L173.789 22.4582 L171.915 22.4582 L171.915 6.80147 L173.789 6.80147 L173.789 8.5231 Q174.376 7.51038 175.268 7.02427 Q176.169 6.52803 177.415 6.52803 Q179.481 6.52803 180.767 8.16865 Q182.063 9.80926 182.063 12.4829 Q182.063 15.1565 180.767 16.7971 Q179.481 18.4377 177.415 18.4377 Q176.169 18.4377 175.268 17.9516 Q174.376 17.4553 173.789 16.4426 M180.129 12.4829 Q180.129 10.427 179.278 9.26239 Q178.437 8.08763 176.959 8.08763 Q175.48 8.08763 174.63 9.26239 Q173.789 10.427 173.789 12.4829 Q173.789 14.5387 174.63 15.7135 Q175.48 16.8781 176.959 16.8781 Q178.437 16.8781 179.278 15.7135 Q180.129 14.5387 180.129 12.4829 Z" fill="#000000" fill-rule="evenodd" fill-opacity="1"></path><path clip-path="url(#clip540)" d="M 0 0 M183.825 13.6678 L183.825 6.80147 L185.689 6.80147 L185.689 13.5969 Q185.689 15.2071 186.316 16.0173 Q186.944 16.8173 188.2 16.8173 Q189.709 16.8173 190.58 15.8552 Q191.461 14.8931 191.461 13.2323 L191.461 6.80147 L193.325 6.80147 L193.325 18.144 L191.461 18.144 L191.461 16.4021 Q190.783 17.4351 189.881 17.9415 Q188.99 18.4377 187.805 18.4377 Q185.851 18.4377 184.838 17.2224 Q183.825 16.0071 183.825 13.6678 M188.514 6.52803 L188.514 6.52803 Z" fill="#000000" fill-rule="evenodd" fill-opacity="1"></path><path clip-path="url(#clip540)" d="M 0 0 M195.279 2.38598 L197.142 2.38598 L197.142 18.144 L195.279 18.144 L195.279 2.38598 Z" fill="#000000" fill-rule="evenodd" fill-opacity="1"></path><path clip-path="url(#clip540)" d="M 0 0 M206.328 7.13567 L206.328 8.89781 Q205.538 8.49272 204.687 8.29018 Q203.837 8.08763 202.925 8.08763 Q201.538 8.08763 200.839 8.51298 Q200.15 8.93832 200.15 9.78901 Q200.15 10.4372 200.647 10.8119 Q201.143 11.1764 202.642 11.5106 L203.28 11.6524 Q205.265 12.0778 206.095 12.8576 Q206.936 13.6272 206.936 15.0147 Q206.936 16.5945 205.68 17.5161 Q204.434 18.4377 202.247 18.4377 Q201.335 18.4377 200.343 18.2554 Q199.36 18.0832 198.267 17.7288 L198.267 15.8046 Q199.3 16.3413 200.302 16.6148 Q201.305 16.8781 202.287 16.8781 Q203.604 16.8781 204.313 16.4325 Q205.022 15.9768 205.022 15.1565 Q205.022 14.3969 204.505 13.9918 Q203.999 13.5867 202.267 13.212 L201.619 13.0601 Q199.887 12.6955 199.117 11.9461 Q198.348 11.1866 198.348 9.87003 Q198.348 8.26992 199.482 7.39898 Q200.616 6.52803 202.702 6.52803 Q203.735 6.52803 204.647 6.67994 Q205.558 6.83185 206.328 7.13567 Z" fill="#000000" fill-rule="evenodd" fill-opacity="1"></path><path clip-path="url(#clip540)" d="M 0 0 M218.592 12.0069 L218.592 12.9183 L210.024 12.9183 Q210.146 14.8425 211.179 15.8552 Q212.222 16.8578 214.075 16.8578 Q215.149 16.8578 216.151 16.5945 Q217.164 16.3312 218.157 15.8046 L218.157 17.5667 Q217.154 17.9921 216.101 18.2149 Q215.047 18.4377 213.964 18.4377 Q211.25 18.4377 209.66 16.8578 Q208.08 15.278 208.08 12.5841 Q208.08 9.79914 209.579 8.16865 Q211.088 6.52803 213.64 6.52803 Q215.929 6.52803 217.255 8.00661 Q218.592 9.47506 218.592 12.0069 M216.729 11.46 Q216.708 9.93079 215.868 9.01934 Q215.037 8.10788 213.66 8.10788 Q212.1 8.10788 211.159 8.98896 Q210.227 9.87003 210.085 11.4701 L216.729 11.46 Z" fill="#000000" fill-rule="evenodd" fill-opacity="1"></path><path clip-path="url(#clip540)" d="M 0 0 M234.391 11.0549 Q235.049 11.2777 235.667 12.0069 Q236.294 12.736 236.922 14.0121 L238.998 18.144 L236.801 18.144 L234.867 14.2653 Q234.117 12.7462 233.408 12.2499 Q232.709 11.7537 231.494 11.7537 L229.266 11.7537 L229.266 18.144 L227.22 18.144 L227.22 3.024 L231.838 3.024 Q234.431 3.024 235.707 4.10762 Q236.983 5.19123 236.983 7.37872 Q236.983 8.80667 236.315 9.7485 Q235.656 10.6903 234.391 11.0549 M229.266 4.70513 L229.266 10.0726 L231.838 10.0726 Q233.317 10.0726 234.066 9.39405 Q234.826 8.70539 234.826 7.37872 Q234.826 6.05205 234.066 5.38365 Q233.317 4.70513 231.838 4.70513 L229.266 4.70513 Z" fill="#000000" fill-rule="evenodd" fill-opacity="1"></path><path clip-path="url(#clip540)" d="M 0 0 M249.723 12.0069 L249.723 12.9183 L241.156 12.9183 Q241.277 14.8425 242.31 15.8552 Q243.353 16.8578 245.206 16.8578 Q246.28 16.8578 247.283 16.5945 Q248.295 16.3312 249.288 15.8046 L249.288 17.5667 Q248.285 17.9921 247.232 18.2149 Q246.179 18.4377 245.095 18.4377 Q242.381 18.4377 240.791 16.8578 Q239.211 15.278 239.211 12.5841 Q239.211 9.79914 240.71 8.16865 Q242.219 6.52803 244.771 6.52803 Q247.06 6.52803 248.386 8.00661 Q249.723 9.47506 249.723 12.0069 M247.86 11.46 Q247.84 9.93079 246.999 9.01934 Q246.169 8.10788 244.791 8.10788 Q243.232 8.10788 242.29 8.98896 Q241.358 9.87003 241.216 11.4701 L247.86 11.46 Z" fill="#000000" fill-rule="evenodd" fill-opacity="1"></path><path clip-path="url(#clip540)" d="M 0 0 M258.909 7.13567 L258.909 8.89781 Q258.119 8.49272 257.268 8.29018 Q256.417 8.08763 255.506 8.08763 Q254.118 8.08763 253.42 8.51298 Q252.731 8.93832 252.731 9.78901 Q252.731 10.4372 253.227 10.8119 Q253.723 11.1764 255.222 11.5106 L255.86 11.6524 Q257.845 12.0778 258.676 12.8576 Q259.516 13.6272 259.516 15.0147 Q259.516 16.5945 258.261 17.5161 Q257.015 18.4377 254.827 18.4377 Q253.916 18.4377 252.923 18.2554 Q251.941 18.0832 250.847 17.7288 L250.847 15.8046 Q251.88 16.3413 252.883 16.6148 Q253.886 16.8781 254.868 16.8781 Q256.184 16.8781 256.893 16.4325 Q257.602 15.9768 257.602 15.1565 Q257.602 14.3969 257.086 13.9918 Q256.579 13.5867 254.848 13.212 L254.199 13.0601 Q252.468 12.6955 251.698 11.9461 Q250.928 11.1866 250.928 9.87003 Q250.928 8.26992 252.063 7.39898 Q253.197 6.52803 255.283 6.52803 Q256.316 6.52803 257.228 6.67994 Q258.139 6.83185 258.909 7.13567 Z" fill="#000000" fill-rule="evenodd" fill-opacity="1"></path><path clip-path="url(#clip540)" d="M 0 0 M263.274 16.4426 L263.274 22.4582 L261.4 22.4582 L261.4 6.80147 L263.274 6.80147 L263.274 8.5231 Q263.861 7.51038 264.752 7.02427 Q265.653 6.52803 266.899 6.52803 Q268.965 6.52803 270.251 8.16865 Q271.547 9.80926 271.547 12.4829 Q271.547 15.1565 270.251 16.7971 Q268.965 18.4377 266.899 18.4377 Q265.653 18.4377 264.752 17.9516 Q263.861 17.4553 263.274 16.4426 M269.613 12.4829 Q269.613 10.427 268.762 9.26239 Q267.922 8.08763 266.443 8.08763 Q264.965 8.08763 264.114 9.26239 Q263.274 10.427 263.274 12.4829 Q263.274 14.5387 264.114 15.7135 Q264.965 16.8781 266.443 16.8781 Q267.922 16.8781 268.762 15.7135 Q269.613 14.5387 269.613 12.4829 Z" fill="#000000" fill-rule="evenodd" fill-opacity="1"></path><path clip-path="url(#clip540)" d="M 0 0 M277.897 8.10788 Q276.398 8.10788 275.527 9.28265 Q274.657 10.4473 274.657 12.4829 Q274.657 14.5184 275.517 15.6932 Q276.388 16.8578 277.897 16.8578 Q279.386 16.8578 280.257 15.6831 Q281.128 14.5083 281.128 12.4829 Q281.128 10.4675 280.257 9.29277 Q279.386 8.10788 277.897 8.10788 M277.897 6.52803 Q280.328 6.52803 281.715 8.10788 Q283.103 9.68774 283.103 12.4829 Q283.103 15.2679 281.715 16.8578 Q280.328 18.4377 277.897 18.4377 Q275.457 18.4377 274.069 16.8578 Q272.692 15.2679 272.692 12.4829 Q272.692 9.68774 274.069 8.10788 Q275.457 6.52803 277.897 6.52803 Z" fill="#000000" fill-rule="evenodd" fill-opacity="1"></path><path clip-path="url(#clip540)" d="M 0 0 M294.486 11.298 L294.486 18.144 L292.622 18.144 L292.622 11.3587 Q292.622 9.7485 291.994 8.94845 Q291.367 8.14839 290.111 8.14839 Q288.602 8.14839 287.731 9.11048 Q286.86 10.0726 286.86 11.7334 L286.86 18.144 L284.986 18.144 L284.986 6.80147 L286.86 6.80147 L286.86 8.56361 Q287.528 7.54076 288.43 7.0344 Q289.341 6.52803 290.526 6.52803 Q292.481 6.52803 293.483 7.7433 Q294.486 8.94845 294.486 11.298 Z" fill="#000000" fill-rule="evenodd" fill-opacity="1"></path><path clip-path="url(#clip540)" d="M 0 0 M303.671 7.13567 L303.671 8.89781 Q302.881 8.49272 302.031 8.29018 Q301.18 8.08763 300.268 8.08763 Q298.881 8.08763 298.182 8.51298 Q297.494 8.93832 297.494 9.78901 Q297.494 10.4372 297.99 10.8119 Q298.486 11.1764 299.985 11.5106 L300.623 11.6524 Q302.608 12.0778 303.438 12.8576 Q304.279 13.6272 304.279 15.0147 Q304.279 16.5945 303.023 17.5161 Q301.777 18.4377 299.59 18.4377 Q298.678 18.4377 297.686 18.2554 Q296.704 18.0832 295.61 17.7288 L295.61 15.8046 Q296.643 16.3413 297.645 16.6148 Q298.648 16.8781 299.63 16.8781 Q300.947 16.8781 301.656 16.4325 Q302.365 15.9768 302.365 15.1565 Q302.365 14.3969 301.848 13.9918 Q301.342 13.5867 299.61 13.212 L298.962 13.0601 Q297.23 12.6955 296.461 11.9461 Q295.691 11.1866 295.691 9.87003 Q295.691 8.26992 296.825 7.39898 Q297.959 6.52803 300.046 6.52803 Q301.079 6.52803 301.99 6.67994 Q302.901 6.83185 303.671 7.13567 Z" fill="#000000" fill-rule="evenodd" fill-opacity="1"></path><path clip-path="url(#clip540)" d="M 0 0 M315.935 12.0069 L315.935 12.9183 L307.368 12.9183 Q307.489 14.8425 308.522 15.8552 Q309.565 16.8578 311.419 16.8578 Q312.492 16.8578 313.495 16.5945 Q314.507 16.3312 315.5 15.8046 L315.5 17.5667 Q314.497 17.9921 313.444 18.2149 Q312.391 18.4377 311.307 18.4377 Q308.593 18.4377 307.003 16.8578 Q305.423 15.278 305.423 12.5841 Q305.423 9.79914 306.922 8.16865 Q308.431 6.52803 310.983 6.52803 Q313.272 6.52803 314.598 8.00661 Q315.935 9.47506 315.935 12.0069 M314.072 11.46 Q314.052 9.93079 313.211 9.01934 Q312.381 8.10788 311.003 8.10788 Q309.444 8.10788 308.502 8.98896 Q307.57 9.87003 307.428 11.4701 L314.072 11.46 Z" fill="#000000" fill-rule="evenodd" fill-opacity="1"></path><path clip-path="url(#clip540)" d="M 0 0 M324.564 3.024 L333.253 3.024 L333.253 4.74563 L326.609 4.74563 L326.609 9.20163 L332.605 9.20163 L332.605 10.9233 L326.609 10.9233 L326.609 18.144 L324.564 18.144 L324.564 3.024 Z" fill="#000000" fill-rule="evenodd" fill-opacity="1"></path><path clip-path="url(#clip540)" d="M 0 0 M333.881 13.6678 L333.881 6.80147 L335.744 6.80147 L335.744 13.5969 Q335.744 15.2071 336.372 16.0173 Q337 16.8173 338.256 16.8173 Q339.765 16.8173 340.636 15.8552 Q341.517 14.8931 341.517 13.2323 L341.517 6.80147 L343.38 6.80147 L343.38 18.144 L341.517 18.144 L341.517 16.4021 Q340.838 17.4351 339.937 17.9415 Q339.046 18.4377 337.861 18.4377 Q335.906 18.4377 334.893 17.2224 Q333.881 16.0071 333.881 13.6678 M338.57 6.52803 L338.57 6.52803 Z" fill="#000000" fill-rule="evenodd" fill-opacity="1"></path><path clip-path="url(#clip540)" d="M 0 0 M354.763 11.298 L354.763 18.144 L352.9 18.144 L352.9 11.3587 Q352.9 9.7485 352.272 8.94845 Q351.644 8.14839 350.388 8.14839 Q348.879 8.14839 348.008 9.11048 Q347.137 10.0726 347.137 11.7334 L347.137 18.144 L345.264 18.144 L345.264 6.80147 L347.137 6.80147 L347.137 8.56361 Q347.806 7.54076 348.707 7.0344 Q349.619 6.52803 350.803 6.52803 Q352.758 6.52803 353.761 7.7433 Q354.763 8.94845 354.763 11.298 Z" fill="#000000" fill-rule="evenodd" fill-opacity="1"></path><path clip-path="url(#clip540)" d="M 0 0 M364.88 7.23694 L364.88 8.97883 Q364.09 8.54336 363.29 8.33068 Q362.5 8.10788 361.69 8.10788 Q359.877 8.10788 358.875 9.26239 Q357.872 10.4068 357.872 12.4829 Q357.872 14.5589 358.875 15.7135 Q359.877 16.8578 361.69 16.8578 Q362.5 16.8578 363.29 16.6452 Q364.09 16.4224 364.88 15.9869 L364.88 17.7085 Q364.101 18.0731 363.26 18.2554 Q362.43 18.4377 361.488 18.4377 Q358.925 18.4377 357.417 16.8275 Q355.908 15.2172 355.908 12.4829 Q355.908 9.70799 357.427 8.11801 Q358.956 6.52803 361.609 6.52803 Q362.47 6.52803 363.29 6.71032 Q364.111 6.88249 364.88 7.23694 Z" fill="#000000" fill-rule="evenodd" fill-opacity="1"></path><path clip-path="url(#clip540)" d="M 0 0 M368.678 3.581 L368.678 6.80147 L372.516 6.80147 L372.516 8.24967 L368.678 8.24967 L368.678 14.407 Q368.678 15.7945 369.053 16.1894 Q369.438 16.5844 370.602 16.5844 L372.516 16.5844 L372.516 18.144 L370.602 18.144 Q368.445 18.144 367.625 17.3439 Q366.804 16.5338 366.804 14.407 L366.804 8.24967 L365.437 8.24967 L365.437 6.80147 L366.804 6.80147 L366.804 3.581 L368.678 3.581 Z" fill="#000000" fill-rule="evenodd" fill-opacity="1"></path><path clip-path="url(#clip540)" d="M 0 0 M374.471 6.80147 L376.334 6.80147 L376.334 18.144 L374.471 18.144 L374.471 6.80147 M374.471 2.38598 L376.334 2.38598 L376.334 4.74563 L374.471 4.74563 L374.471 2.38598 Z" fill="#000000" fill-rule="evenodd" fill-opacity="1"></path><path clip-path="url(#clip540)" d="M 0 0 M382.684 8.10788 Q381.185 8.10788 380.314 9.28265 Q379.443 10.4473 379.443 12.4829 Q379.443 14.5184 380.304 15.6932 Q381.175 16.8578 382.684 16.8578 Q384.173 16.8578 385.044 15.6831 Q385.915 14.5083 385.915 12.4829 Q385.915 10.4675 385.044 9.29277 Q384.173 8.10788 382.684 8.10788 M382.684 6.52803 Q385.115 6.52803 386.502 8.10788 Q387.889 9.68774 387.889 12.4829 Q387.889 15.2679 386.502 16.8578 Q385.115 18.4377 382.684 18.4377 Q380.243 18.4377 378.856 16.8578 Q377.479 15.2679 377.479 12.4829 Q377.479 9.68774 378.856 8.10788 Q380.243 6.52803 382.684 6.52803 Z" fill="#000000" fill-rule="evenodd" fill-opacity="1"></path><path clip-path="url(#clip540)" d="M 0 0 M399.272 11.298 L399.272 18.144 L397.409 18.144 L397.409 11.3587 Q397.409 9.7485 396.781 8.94845 Q396.153 8.14839 394.898 8.14839 Q393.389 8.14839 392.518 9.11048 Q391.647 10.0726 391.647 11.7334 L391.647 18.144 L389.773 18.144 L389.773 6.80147 L391.647 6.80147 L391.647 8.56361 Q392.315 7.54076 393.216 7.0344 Q394.128 6.52803 395.313 6.52803 Q397.267 6.52803 398.27 7.7433 Q399.272 8.94845 399.272 11.298 Z" fill="#000000" fill-rule="evenodd" fill-opacity="1"></path><path clip-path="url(#clip540)" d="M 0 0 M412.215 8.10788 Q410.716 8.10788 409.845 9.28265 Q408.974 10.4473 408.974 12.4829 Q408.974 14.5184 409.835 15.6932 Q410.706 16.8578 412.215 16.8578 Q413.704 16.8578 414.575 15.6831 Q415.446 14.5083 415.446 12.4829 Q415.446 10.4675 414.575 9.29277 Q413.704 8.10788 412.215 8.10788 M412.215 6.52803 Q414.646 6.52803 416.033 8.10788 Q417.421 9.68774 417.421 12.4829 Q417.421 15.2679 416.033 16.8578 Q414.646 18.4377 412.215 18.4377 Q409.774 18.4377 408.387 16.8578 Q407.01 15.2679 407.01 12.4829 Q407.01 9.68774 408.387 8.10788 Q409.774 6.52803 412.215 6.52803 Z" fill="#000000" fill-rule="evenodd" fill-opacity="1"></path><path clip-path="url(#clip540)" d="M 0 0 M425.117 2.38598 L425.117 3.93545 L423.335 3.93545 Q422.332 3.93545 421.937 4.34054 Q421.552 4.74563 421.552 5.79887 L421.552 6.80147 L424.621 6.80147 L424.621 8.24967 L421.552 8.24967 L421.552 18.144 L419.679 18.144 L419.679 8.24967 L417.897 8.24967 L417.897 6.80147 L419.679 6.80147 L419.679 6.01154 Q419.679 4.11774 420.56 3.25693 Q421.441 2.38598 423.355 2.38598 L425.117 2.38598 Z" fill="#000000" fill-rule="evenodd" fill-opacity="1"></path><path clip-path="url(#clip540)" d="M 0 0 M439.883 4.41143 Q437.655 4.41143 436.338 6.07231 Q435.032 7.73318 435.032 10.5992 Q435.032 13.4551 436.338 15.1159 Q437.655 16.7768 439.883 16.7768 Q442.111 16.7768 443.407 15.1159 Q444.714 13.4551 444.714 10.5992 Q444.714 7.73318 443.407 6.07231 Q442.111 4.41143 439.883 4.41143 M439.883 2.75056 Q443.063 2.75056 444.967 4.88742 Q446.871 7.01414 446.871 10.5992 Q446.871 14.1741 444.967 16.311 Q443.063 18.4377 439.883 18.4377 Q436.693 18.4377 434.779 16.311 Q432.875 14.1842 432.875 10.5992 Q432.875 7.01414 434.779 4.88742 Q436.693 2.75056 439.883 2.75056 Z" fill="#000000" fill-rule="evenodd" fill-opacity="1"></path><path clip-path="url(#clip540)" d="M 0 0 M448.633 13.6678 L448.633 6.80147 L450.496 6.80147 L450.496 13.5969 Q450.496 15.2071 451.124 16.0173 Q451.752 16.8173 453.008 16.8173 Q454.517 16.8173 455.388 15.8552 Q456.269 14.8931 456.269 13.2323 L456.269 6.80147 L458.132 6.80147 L458.132 18.144 L456.269 18.144 L456.269 16.4021 Q455.59 17.4351 454.689 17.9415 Q453.798 18.4377 452.613 18.4377 Q450.658 18.4377 449.645 17.2224 Q448.633 16.0071 448.633 13.6678 M453.322 6.52803 L453.322 6.52803 Z" fill="#000000" fill-rule="evenodd" fill-opacity="1"></path><path clip-path="url(#clip540)" d="M 0 0 M461.93 3.581 L461.93 6.80147 L465.768 6.80147 L465.768 8.24967 L461.93 8.24967 L461.93 14.407 Q461.93 15.7945 462.305 16.1894 Q462.689 16.5844 463.854 16.5844 L465.768 16.5844 L465.768 18.144 L463.854 18.144 Q461.697 18.144 460.877 17.3439 Q460.056 16.5338 460.056 14.407 L460.056 8.24967 L458.689 8.24967 L458.689 6.80147 L460.056 6.80147 L460.056 3.581 L461.93 3.581 Z" fill="#000000" fill-rule="evenodd" fill-opacity="1"></path><path clip-path="url(#clip540)" d="M 0 0 M469.525 16.4426 L469.525 22.4582 L467.652 22.4582 L467.652 6.80147 L469.525 6.80147 L469.525 8.5231 Q470.113 7.51038 471.004 7.02427 Q471.905 6.52803 473.151 6.52803 Q475.217 6.52803 476.503 8.16865 Q477.799 9.80926 477.799 12.4829 Q477.799 15.1565 476.503 16.7971 Q475.217 18.4377 473.151 18.4377 Q471.905 18.4377 471.004 17.9516 Q470.113 17.4553 469.525 16.4426 M475.865 12.4829 Q475.865 10.427 475.014 9.26239 Q474.174 8.08763 472.695 8.08763 Q471.217 8.08763 470.366 9.26239 Q469.525 10.427 469.525 12.4829 Q469.525 14.5387 470.366 15.7135 Q471.217 16.8781 472.695 16.8781 Q474.174 16.8781 475.014 15.7135 Q475.865 14.5387 475.865 12.4829 Z" fill="#000000" fill-rule="evenodd" fill-opacity="1"></path><path clip-path="url(#clip540)" d="M 0 0 M479.561 13.6678 L479.561 6.80147 L481.425 6.80147 L481.425 13.5969 Q481.425 15.2071 482.053 16.0173 Q482.681 16.8173 483.936 16.8173 Q485.445 16.8173 486.316 15.8552 Q487.197 14.8931 487.197 13.2323 L487.197 6.80147 L489.061 6.80147 L489.061 18.144 L487.197 18.144 L487.197 16.4021 Q486.519 17.4351 485.618 17.9415 Q484.726 18.4377 483.541 18.4377 Q481.587 18.4377 480.574 17.2224 Q479.561 16.0071 479.561 13.6678 M484.25 6.52803 L484.25 6.52803 Z" fill="#000000" fill-rule="evenodd" fill-opacity="1"></path><path clip-path="url(#clip540)" d="M 0 0 M492.859 3.581 L492.859 6.80147 L496.697 6.80147 L496.697 8.24967 L492.859 8.24967 L492.859 14.407 Q492.859 15.7945 493.233 16.1894 Q493.618 16.5844 494.783 16.5844 L496.697 16.5844 L496.697 18.144 L494.783 18.144 Q492.626 18.144 491.805 17.3439 Q490.985 16.5338 490.985 14.407 L490.985 8.24967 L489.618 8.24967 L489.618 6.80147 L490.985 6.80147 L490.985 3.581 L492.859 3.581 Z" fill="#000000" fill-rule="evenodd" fill-opacity="1"></path><path clip-path="url(#clip540)" d="M 0 0 M215.939 29.4815 L217.802 29.4815 L217.802 40.824 L215.939 40.824 L215.939 29.4815 M215.939 25.066 L217.802 25.066 L217.802 27.4256 L215.939 27.4256 L215.939 25.066 Z" fill="#000000" fill-rule="evenodd" fill-opacity="1"></path><path clip-path="url(#clip540)" d="M 0 0 M229.185 33.978 L229.185 40.824 L227.322 40.824 L227.322 34.0387 Q227.322 32.4285 226.694 31.6284 Q226.066 30.8284 224.81 30.8284 Q223.301 30.8284 222.43 31.7905 Q221.559 32.7526 221.559 34.4134 L221.559 40.824 L219.686 40.824 L219.686 29.4815 L221.559 29.4815 L221.559 31.2436 Q222.228 30.2208 223.129 29.7144 Q224.04 29.208 225.225 29.208 Q227.18 29.208 228.183 30.4233 Q229.185 31.6284 229.185 33.978 Z" fill="#000000" fill-rule="evenodd" fill-opacity="1"></path><path clip-path="url(#clip540)" d="M 0 0 M239.859 27.3851 L239.859 39.1429 L242.33 39.1429 Q245.46 39.1429 246.908 37.7251 Q248.366 36.3072 248.366 33.2488 Q248.366 30.2106 246.908 28.8029 Q245.46 27.3851 242.33 27.3851 L239.859 27.3851 M237.814 25.704 L242.016 25.704 Q246.412 25.704 248.467 27.537 Q250.523 29.3599 250.523 33.2488 Q250.523 37.1579 248.457 38.991 Q246.391 40.824 242.016 40.824 L237.814 40.824 L237.814 25.704 Z" fill="#000000" fill-rule="evenodd" fill-opacity="1"></path><path clip-path="url(#clip540)" d="M 0 0 M262.18 34.6869 L262.18 35.5983 L253.612 35.5983 Q253.734 37.5225 254.767 38.5352 Q255.81 39.5378 257.663 39.5378 Q258.736 39.5378 259.739 39.2745 Q260.752 39.0112 261.744 38.4846 L261.744 40.2467 Q260.742 40.6721 259.688 40.8949 Q258.635 41.1177 257.552 41.1177 Q254.837 41.1177 253.248 39.5378 Q251.668 37.958 251.668 35.2641 Q251.668 32.4791 253.166 30.8486 Q254.675 29.208 257.228 29.208 Q259.516 29.208 260.843 30.6866 Q262.18 32.1551 262.18 34.6869 M260.316 34.14 Q260.296 32.6108 259.456 31.6993 Q258.625 30.7879 257.248 30.7879 Q255.688 30.7879 254.746 31.669 Q253.815 32.55 253.673 34.1501 L260.316 34.14 Z" fill="#000000" fill-rule="evenodd" fill-opacity="1"></path><path clip-path="url(#clip540)" d="M 0 0 M264.134 25.066 L265.998 25.066 L265.998 40.824 L264.134 40.824 L264.134 25.066 Z" fill="#000000" fill-rule="evenodd" fill-opacity="1"></path><path clip-path="url(#clip540)" d="M 0 0 M274.626 25.704 L277.381 25.704 L284.085 38.3529 L284.085 25.704 L286.07 25.704 L286.07 40.824 L283.315 40.824 L276.611 28.1751 L276.611 40.824 L274.626 40.824 L274.626 25.704 Z" fill="#000000" fill-rule="evenodd" fill-opacity="1"></path><path clip-path="url(#clip540)" d="M 0 0 M297.726 34.6869 L297.726 35.5983 L289.159 35.5983 Q289.28 37.5225 290.313 38.5352 Q291.356 39.5378 293.21 39.5378 Q294.283 39.5378 295.286 39.2745 Q296.299 39.0112 297.291 38.4846 L297.291 40.2467 Q296.288 40.6721 295.235 40.8949 Q294.182 41.1177 293.098 41.1177 Q290.384 41.1177 288.794 39.5378 Q287.214 37.958 287.214 35.2641 Q287.214 32.4791 288.713 30.8486 Q290.222 29.208 292.774 29.208 Q295.063 29.208 296.39 30.6866 Q297.726 32.1551 297.726 34.6869 M295.863 34.14 Q295.843 32.6108 295.002 31.6993 Q294.172 30.7879 292.794 30.7879 Q291.235 30.7879 290.293 31.669 Q289.361 32.55 289.22 34.1501 L295.863 34.14 Z" fill="#000000" fill-rule="evenodd" fill-opacity="1"></path><path clip-path="url(#clip540)" d="M 0 0 M307.145 35.0211 Q307.145 32.9956 306.304 31.8816 Q305.474 30.7676 303.965 30.7676 Q302.466 30.7676 301.625 31.8816 Q300.795 32.9956 300.795 35.0211 Q300.795 37.0364 301.625 38.1504 Q302.466 39.2644 303.965 39.2644 Q305.474 39.2644 306.304 38.1504 Q307.145 37.0364 307.145 35.0211 M309.008 39.4163 Q309.008 42.3127 307.722 43.7204 Q306.436 45.1382 303.783 45.1382 Q302.8 45.1382 301.929 44.9863 Q301.058 44.8445 300.238 44.5407 L300.238 42.7279 Q301.058 43.1735 301.858 43.3862 Q302.658 43.5989 303.489 43.5989 Q305.322 43.5989 306.233 42.6368 Q307.145 41.6848 307.145 39.7505 L307.145 38.8289 Q306.568 39.8315 305.666 40.3278 Q304.765 40.824 303.509 40.824 Q301.423 40.824 300.147 39.234 Q298.871 37.644 298.871 35.0211 Q298.871 32.388 300.147 30.798 Q301.423 29.208 303.509 29.208 Q304.765 29.208 305.666 29.7043 Q306.568 30.2005 307.145 31.2031 L307.145 29.4815 L309.008 29.4815 L309.008 39.4163 Z" fill="#000000" fill-rule="evenodd" fill-opacity="1"></path><path clip-path="url(#clip540)" d="M 0 0 M317.535 31.2234 Q317.221 31.0411 316.847 30.96 Q316.482 30.8689 316.037 30.8689 Q314.457 30.8689 313.606 31.9019 Q312.765 32.9247 312.765 34.8489 L312.765 40.824 L310.892 40.824 L310.892 29.4815 L312.765 29.4815 L312.765 31.2436 Q313.353 30.2106 314.295 29.7144 Q315.236 29.208 316.583 29.208 Q316.776 29.208 317.009 29.2384 Q317.242 29.2587 317.525 29.3093 L317.535 31.2234 Z" fill="#000000" fill-rule="evenodd" fill-opacity="1"></path><path clip-path="url(#clip540)" d="M 0 0 M323.429 30.7879 Q321.931 30.7879 321.06 31.9626 Q320.189 33.1273 320.189 35.1629 Q320.189 37.1984 321.05 38.3732 Q321.92 39.5378 323.429 39.5378 Q324.918 39.5378 325.789 38.3631 Q326.66 37.1883 326.66 35.1629 Q326.66 33.1475 325.789 31.9728 Q324.918 30.7879 323.429 30.7879 M323.429 29.208 Q325.86 29.208 327.247 30.7879 Q328.635 32.3677 328.635 35.1629 Q328.635 37.9479 327.247 39.5378 Q325.86 41.1177 323.429 41.1177 Q320.989 41.1177 319.601 39.5378 Q318.224 37.9479 318.224 35.1629 Q318.224 32.3677 319.601 30.7879 Q320.989 29.208 323.429 29.208 Z" fill="#000000" fill-rule="evenodd" fill-opacity="1"></path><path clip-path="url(#clip540)" d="M 0 0 M346.884 34.6869 L346.884 35.5983 L338.317 35.5983 Q338.438 37.5225 339.471 38.5352 Q340.514 39.5378 342.367 39.5378 Q343.441 39.5378 344.443 39.2745 Q345.456 39.0112 346.449 38.4846 L346.449 40.2467 Q345.446 40.6721 344.393 40.8949 Q343.34 41.1177 342.256 41.1177 Q339.542 41.1177 337.952 39.5378 Q336.372 37.958 336.372 35.2641 Q336.372 32.4791 337.871 30.8486 Q339.38 29.208 341.932 29.208 Q344.221 29.208 345.547 30.6866 Q346.884 32.1551 346.884 34.6869 M345.021 34.14 Q345 32.6108 344.16 31.6993 Q343.329 30.7879 341.952 30.7879 Q340.393 30.7879 339.451 31.669 Q338.519 32.55 338.377 34.1501 L345.021 34.14 Z" fill="#000000" fill-rule="evenodd" fill-opacity="1"></path><path clip-path="url(#clip540)" d="M 0 0 M350.682 26.261 L350.682 29.4815 L354.52 29.4815 L354.52 30.9297 L350.682 30.9297 L350.682 37.087 Q350.682 38.4745 351.057 38.8694 Q351.441 39.2644 352.606 39.2644 L354.52 39.2644 L354.52 40.824 L352.606 40.824 Q350.449 40.824 349.629 40.0239 Q348.808 39.2138 348.808 37.087 L348.808 30.9297 L347.441 30.9297 L347.441 29.4815 L348.808 29.4815 L348.808 26.261 L350.682 26.261 Z" fill="#000000" fill-rule="evenodd" fill-opacity="1"></path><path clip-path="url(#clip540)" d="M 0 0 M368.222 35.1224 Q365.964 35.1224 365.093 35.6388 Q364.222 36.1553 364.222 37.401 Q364.222 38.3935 364.87 38.9808 Q365.528 39.5581 366.653 39.5581 Q368.202 39.5581 369.134 38.4643 Q370.076 37.3605 370.076 35.5376 L370.076 35.1224 L368.222 35.1224 M371.939 34.3527 L371.939 40.824 L370.076 40.824 L370.076 39.1024 Q369.438 40.1353 368.486 40.6316 Q367.534 41.1177 366.156 41.1177 Q364.414 41.1177 363.381 40.1455 Q362.359 39.1631 362.359 37.5225 Q362.359 35.6085 363.635 34.6362 Q364.921 33.664 367.463 33.664 L370.076 33.664 L370.076 33.4817 Q370.076 32.1956 369.225 31.4968 Q368.384 30.7879 366.855 30.7879 Q365.883 30.7879 364.961 31.0208 Q364.04 31.2537 363.189 31.7196 L363.189 29.998 Q364.212 29.603 365.174 29.4106 Q366.136 29.208 367.048 29.208 Q369.508 29.208 370.724 30.4841 Q371.939 31.7601 371.939 34.3527 Z" fill="#000000" fill-rule="evenodd" fill-opacity="1"></path><path clip-path="url(#clip540)" d="M 0 0 M373.894 25.066 L375.757 25.066 L375.757 40.824 L373.894 40.824 L373.894 25.066 Z" fill="#000000" fill-rule="evenodd" fill-opacity="1"></path><path clip-path="url(#clip540)" d="M 0 0 M377.975 38.2517 L380.112 38.2517 L380.112 40.824 L377.975 40.824 L377.975 38.2517 Z" fill="#000000" fill-rule="evenodd" fill-opacity="1"></path><path clip-path="url(#clip540)" d="M 0 0 M393.135 25.0862 Q391.778 27.4155 391.12 29.6941 Q390.462 31.9728 390.462 34.3122 Q390.462 36.6516 391.12 38.9505 Q391.788 41.2392 393.135 43.5584 L391.515 43.5584 Q389.996 41.1785 389.236 38.8796 Q388.487 36.5807 388.487 34.3122 Q388.487 32.0538 389.236 29.765 Q389.986 27.4763 391.515 25.0862 L393.135 25.0862 Z" fill="#000000" fill-rule="evenodd" fill-opacity="1"></path><path clip-path="url(#clip540)" d="M 0 0 M397.115 39.1024 L404.255 39.1024 L404.255 40.824 L394.654 40.824 L394.654 39.1024 Q395.819 37.8972 397.824 35.8718 Q399.84 33.8362 400.356 33.2488 Q401.338 32.1449 401.723 31.3854 Q402.118 30.6157 402.118 29.8764 Q402.118 28.6713 401.268 27.9117 Q400.427 27.1522 399.07 27.1522 Q398.108 27.1522 397.034 27.4864 Q395.971 27.8206 394.756 28.4991 L394.756 26.4332 Q395.991 25.9369 397.065 25.6837 Q398.138 25.4306 399.029 25.4306 Q401.379 25.4306 402.777 26.6053 Q404.174 27.7801 404.174 29.7448 Q404.174 30.6765 403.82 31.517 Q403.475 32.3475 402.554 33.4817 Q402.301 33.7754 400.943 35.1831 Q399.586 36.5807 397.115 39.1024 Z" fill="#000000" fill-rule="evenodd" fill-opacity="1"></path><path clip-path="url(#clip540)" d="M 0 0 M410.848 27.0509 Q409.268 27.0509 408.468 28.6105 Q407.678 30.16 407.678 33.2792 Q407.678 36.3883 408.468 37.9479 Q409.268 39.4973 410.848 39.4973 Q412.438 39.4973 413.228 37.9479 Q414.028 36.3883 414.028 33.2792 Q414.028 30.16 413.228 28.6105 Q412.438 27.0509 410.848 27.0509 M410.848 25.4306 Q413.39 25.4306 414.727 27.4459 Q416.074 29.4511 416.074 33.2792 Q416.074 37.0972 414.727 39.1125 Q413.39 41.1177 410.848 41.1177 Q408.306 41.1177 406.959 39.1125 Q405.622 37.0972 405.622 33.2792 Q405.622 29.4511 406.959 27.4459 Q408.306 25.4306 410.848 25.4306 Z" fill="#000000" fill-rule="evenodd" fill-opacity="1"></path><path clip-path="url(#clip540)" d="M 0 0 M418.646 39.1024 L421.988 39.1024 L421.988 27.5674 L418.352 28.2966 L418.352 26.4332 L421.968 25.704 L424.013 25.704 L424.013 39.1024 L427.355 39.1024 L427.355 40.824 L418.646 40.824 L418.646 39.1024 Z" fill="#000000" fill-rule="evenodd" fill-opacity="1"></path><path clip-path="url(#clip540)" d="M 0 0 M433.948 33.6438 Q432.49 33.6438 431.649 34.4236 Q430.819 35.2034 430.819 36.5706 Q430.819 37.9377 431.649 38.7175 Q432.49 39.4973 433.948 39.4973 Q435.407 39.4973 436.247 38.7175 Q437.088 37.9276 437.088 36.5706 Q437.088 35.2034 436.247 34.4236 Q435.417 33.6438 433.948 33.6438 M431.903 32.7728 Q430.586 32.4488 429.847 31.5474 Q429.118 30.6461 429.118 29.3498 Q429.118 27.537 430.404 26.4838 Q431.7 25.4306 433.948 25.4306 Q436.207 25.4306 437.493 26.4838 Q438.779 27.537 438.779 29.3498 Q438.779 30.6461 438.04 31.5474 Q437.31 32.4488 436.004 32.7728 Q437.483 33.1172 438.303 34.1198 Q439.133 35.1224 439.133 36.5706 Q439.133 38.7682 437.786 39.9429 Q436.45 41.1177 433.948 41.1177 Q431.447 41.1177 430.1 39.9429 Q428.763 38.7682 428.763 36.5706 Q428.763 35.1224 429.594 34.1198 Q430.424 33.1172 431.903 32.7728 M431.153 29.5422 Q431.153 30.717 431.882 31.3753 Q432.622 32.0335 433.948 32.0335 Q435.265 32.0335 436.004 31.3753 Q436.753 30.717 436.753 29.5422 Q436.753 28.3675 436.004 27.7092 Q435.265 27.0509 433.948 27.0509 Q432.622 27.0509 431.882 27.7092 Q431.153 28.3675 431.153 29.5422 Z" fill="#000000" fill-rule="evenodd" fill-opacity="1"></path><path clip-path="url(#clip540)" d="M 0 0 M440.794 25.0862 L442.415 25.0862 Q443.934 27.4763 444.683 29.765 Q445.443 32.0538 445.443 34.3122 Q445.443 36.5807 444.683 38.8796 Q443.934 41.1785 442.415 43.5584 L440.794 43.5584 Q442.141 41.2392 442.799 38.9505 Q443.468 36.6516 443.468 34.3122 Q443.468 31.9728 442.799 29.6941 Q442.141 27.4155 440.794 25.0862 Z" fill="#000000" fill-rule="evenodd" fill-opacity="1"></path><polyline clip-path="url(#clip542)" style="stroke:#ff0000; stroke-width:4; stroke-opacity:1; fill:none" points="
  79.4623,74.7616 85.7143,302.81 91.9663,398.554 98.2183,442.007 104.47,464.559 110.722,478.418 116.974,488.338 123.226,496.188 129.478,502.728 135.73,508.286 
  141.982,513.024 148.234,517.037 154.486,520.395 160.738,523.156 166.991,525.37 173.243,527.087 179.495,528.354 185.747,529.214 191.999,529.71 198.251,529.881 
  204.503,529.767 210.755,529.403 217.007,528.824 223.259,528.06 229.511,527.142 235.763,526.096 242.015,524.949 248.267,523.722 254.519,522.437 260.771,521.113 
  267.023,519.766 273.275,518.411 279.527,517.062 285.779,515.729 292.031,514.422 298.283,513.15 304.535,511.919 310.787,510.736 317.039,509.604 323.291,508.527 
  329.543,507.507 335.795,506.546 342.047,505.644 348.299,504.802 354.551,504.02 360.803,503.295 367.055,502.628 373.307,502.015 379.559,501.455 385.811,500.946 
  392.063,500.486 398.315,500.07 404.567,499.698 410.819,499.366 417.071,499.072 423.323,498.812 429.575,498.584 435.827,498.386 442.079,498.214 448.331,498.067 
  454.583,497.942 460.835,497.837 467.087,497.75 473.339,497.678 479.591,497.62 485.843,497.574 492.095,497.539 498.347,497.514 504.599,497.495 510.852,497.484 
  517.104,497.478 523.356,497.476 529.608,497.478 535.86,497.483 542.112,497.49 548.364,497.499 554.616,497.508 560.868,497.518 567.12,497.528 573.372,497.538 
  
  "></polyline>
<polyline clip-path="url(#clip542)" style="stroke:#000000; stroke-width:2; stroke-opacity:1; fill:none" points="
  79.4623,497.37 85.7143,497.37 91.9663,497.37 98.2183,497.37 104.47,497.37 110.722,497.37 116.974,497.37 123.226,497.37 129.478,497.37 135.73,497.37 
  141.982,497.37 148.234,497.37 154.486,497.37 160.738,497.37 166.991,497.37 173.243,497.37 179.495,497.37 185.747,497.37 191.999,497.37 198.251,497.37 
  204.503,497.37 210.755,497.37 217.007,497.37 223.259,497.37 229.511,497.37 235.763,497.37 242.015,497.37 248.267,497.37 254.519,497.37 260.771,497.37 
  267.023,497.37 273.275,497.37 279.527,497.37 285.779,497.37 292.031,497.37 298.283,497.37 304.535,497.37 310.787,497.37 317.039,497.37 323.291,497.37 
  329.543,497.37 335.795,497.37 342.047,497.37 348.299,497.37 354.551,497.37 360.803,497.37 367.055,497.37 373.307,497.37 379.559,497.37 385.811,497.37 
  392.063,497.37 398.315,497.37 404.567,497.37 410.819,497.37 417.071,497.37 423.323,497.37 429.575,497.37 435.827,497.37 442.079,497.37 448.331,497.37 
  454.583,497.37 460.835,497.37 467.087,497.37 473.339,497.37 479.591,497.37 485.843,497.37 492.095,497.37 498.347,497.37 504.599,497.37 510.852,497.37 
  517.104,497.37 523.356,497.37 529.608,497.37 535.86,497.37 542.112,497.37 548.364,497.37 554.616,497.37 560.868,497.37 567.12,497.37 573.372,497.37 
  
  "></polyline>
<path clip-path="url(#clip540)" d="
M265.102 107.429 L570.738 107.429 L570.738 77.1889 L265.102 77.1889  Z
  " fill="#ffffff" fill-rule="evenodd" fill-opacity="1"></path>
<polyline clip-path="url(#clip540)" style="stroke:#000000; stroke-width:1; stroke-opacity:1; fill:none" points="
  265.102,107.429 570.738,107.429 570.738,77.1889 265.102,77.1889 265.102,107.429 
  "></polyline>
<polyline clip-path="url(#clip540)" style="stroke:#ff0000; stroke-width:1; stroke-opacity:1; fill:none" points="
  270.919,92.3089 305.822,92.3089 
  "></polyline>
<path clip-path="url(#clip540)" d="M 0 0 M311.639 87.9889 L312.808 87.9889 L312.808 96.6289 L311.639 96.6289 L311.639 87.9889 Z" fill="#000000" fill-rule="evenodd" fill-opacity="1"></path><path clip-path="url(#clip540)" d="M 0 0 M318.069 92.578 Q318.445 92.7053 318.798 93.122 Q319.157 93.5387 319.515 94.2678 L320.702 96.6289 L319.446 96.6289 L318.341 94.4125 Q317.912 93.5445 317.507 93.2609 Q317.108 92.9773 316.414 92.9773 L315.14 92.9773 L315.14 96.6289 L313.971 96.6289 L313.971 87.9889 L316.61 87.9889 Q318.092 87.9889 318.821 88.6081 Q319.55 89.2273 319.55 90.4773 Q319.55 91.2933 319.168 91.8315 Q318.792 92.3697 318.069 92.578 M315.14 88.9496 L315.14 92.0167 L316.61 92.0167 Q317.455 92.0167 317.883 91.629 Q318.317 91.2354 318.317 90.4773 Q318.317 89.7192 317.883 89.3373 Q317.455 88.9496 316.61 88.9496 L315.14 88.9496 Z" fill="#000000" fill-rule="evenodd" fill-opacity="1"></path><path clip-path="url(#clip540)" d="M 0 0 M321.865 87.9889 L326.83 87.9889 L326.83 88.9727 L323.034 88.9727 L323.034 91.519 L326.46 91.519 L326.46 92.5028 L323.034 92.5028 L323.034 96.6289 L321.865 96.6289 L321.865 87.9889 Z" fill="#000000" fill-rule="evenodd" fill-opacity="1"></path><path clip-path="url(#clip540)" d="M 0 0 M334.226 90.894 Q333.369 90.894 332.872 91.5653 Q332.374 92.2308 332.374 93.394 Q332.374 94.5572 332.866 95.2285 Q333.364 95.894 334.226 95.894 Q335.077 95.894 335.574 95.2227 Q336.072 94.5514 336.072 93.394 Q336.072 92.2424 335.574 91.5711 Q335.077 90.894 334.226 90.894 M334.226 89.9912 Q335.615 89.9912 336.408 90.894 Q337.2 91.7968 337.2 93.394 Q337.2 94.9854 336.408 95.894 Q335.615 96.7968 334.226 96.7968 Q332.831 96.7968 332.038 95.894 Q331.251 94.9854 331.251 93.394 Q331.251 91.7968 332.038 90.894 Q332.831 89.9912 334.226 89.9912 Z" fill="#000000" fill-rule="evenodd" fill-opacity="1"></path><path clip-path="url(#clip540)" d="M 0 0 M341.599 87.6243 L341.599 88.5098 L340.58 88.5098 Q340.007 88.5098 339.781 88.7412 Q339.562 88.9727 339.562 89.5746 L339.562 90.1475 L341.315 90.1475 L341.315 90.975 L339.562 90.975 L339.562 96.6289 L338.491 96.6289 L338.491 90.975 L337.472 90.975 L337.472 90.1475 L338.491 90.1475 L338.491 89.6961 Q338.491 88.6139 338.994 88.122 Q339.498 87.6243 340.592 87.6243 L341.599 87.6243 Z" fill="#000000" fill-rule="evenodd" fill-opacity="1"></path><path clip-path="url(#clip540)" d="M 0 0 M348.994 90.894 Q348.138 90.894 347.64 91.5653 Q347.143 92.2308 347.143 93.394 Q347.143 94.5572 347.634 95.2285 Q348.132 95.894 348.994 95.894 Q349.845 95.894 350.343 95.2227 Q350.84 94.5514 350.84 93.394 Q350.84 92.2424 350.343 91.5711 Q349.845 90.894 348.994 90.894 M348.994 89.9912 Q350.383 89.9912 351.176 90.894 Q351.969 91.7968 351.969 93.394 Q351.969 94.9854 351.176 95.894 Q350.383 96.7968 348.994 96.7968 Q347.6 96.7968 346.807 95.894 Q346.02 94.9854 346.02 93.394 Q346.02 91.7968 346.807 90.894 Q347.6 89.9912 348.994 89.9912 Z" fill="#000000" fill-rule="evenodd" fill-opacity="1"></path><path clip-path="url(#clip540)" d="M 0 0 M352.976 94.0711 L352.976 90.1475 L354.041 90.1475 L354.041 94.0306 Q354.041 94.9507 354.399 95.4137 Q354.758 95.8708 355.476 95.8708 Q356.338 95.8708 356.836 95.3211 Q357.339 94.7713 357.339 93.8222 L357.339 90.1475 L358.404 90.1475 L358.404 96.6289 L357.339 96.6289 L357.339 95.6336 Q356.952 96.2238 356.436 96.5132 Q355.927 96.7968 355.25 96.7968 Q354.133 96.7968 353.555 96.1023 Q352.976 95.4079 352.976 94.0711 M355.655 89.9912 L355.655 89.9912 Z" fill="#000000" fill-rule="evenodd" fill-opacity="1"></path><path clip-path="url(#clip540)" d="M 0 0 M360.574 88.3072 L360.574 90.1475 L362.767 90.1475 L362.767 90.975 L360.574 90.975 L360.574 94.4935 Q360.574 95.2863 360.788 95.512 Q361.008 95.7377 361.674 95.7377 L362.767 95.7377 L362.767 96.6289 L361.674 96.6289 Q360.441 96.6289 359.972 96.1718 Q359.504 95.7088 359.504 94.4935 L359.504 90.975 L358.722 90.975 L358.722 90.1475 L359.504 90.1475 L359.504 88.3072 L360.574 88.3072 Z" fill="#000000" fill-rule="evenodd" fill-opacity="1"></path><path clip-path="url(#clip540)" d="M 0 0 M364.914 95.6567 L364.914 99.0942 L363.844 99.0942 L363.844 90.1475 L364.914 90.1475 L364.914 91.1313 Q365.25 90.5526 365.759 90.2748 Q366.274 89.9912 366.986 89.9912 Q368.167 89.9912 368.902 90.9287 Q369.642 91.8662 369.642 93.394 Q369.642 94.9218 368.902 95.8593 Q368.167 96.7968 366.986 96.7968 Q366.274 96.7968 365.759 96.519 Q365.25 96.2354 364.914 95.6567 M368.537 93.394 Q368.537 92.2192 368.051 91.5537 Q367.571 90.8824 366.726 90.8824 Q365.881 90.8824 365.395 91.5537 Q364.914 92.2192 364.914 93.394 Q364.914 94.5688 365.395 95.24 Q365.881 95.9056 366.726 95.9056 Q367.571 95.9056 368.051 95.24 Q368.537 94.5688 368.537 93.394 Z" fill="#000000" fill-rule="evenodd" fill-opacity="1"></path><path clip-path="url(#clip540)" d="M 0 0 M370.649 94.0711 L370.649 90.1475 L371.714 90.1475 L371.714 94.0306 Q371.714 94.9507 372.073 95.4137 Q372.432 95.8708 373.149 95.8708 Q374.012 95.8708 374.509 95.3211 Q375.013 94.7713 375.013 93.8222 L375.013 90.1475 L376.078 90.1475 L376.078 96.6289 L375.013 96.6289 L375.013 95.6336 Q374.625 96.2238 374.11 96.5132 Q373.601 96.7968 372.924 96.7968 Q371.807 96.7968 371.228 96.1023 Q370.649 95.4079 370.649 94.0711 M373.329 89.9912 L373.329 89.9912 Z" fill="#000000" fill-rule="evenodd" fill-opacity="1"></path><path clip-path="url(#clip540)" d="M 0 0 M378.248 88.3072 L378.248 90.1475 L380.441 90.1475 L380.441 90.975 L378.248 90.975 L378.248 94.4935 Q378.248 95.2863 378.462 95.512 Q378.682 95.7377 379.347 95.7377 L380.441 95.7377 L380.441 96.6289 L379.347 96.6289 Q378.115 96.6289 377.646 96.1718 Q377.177 95.7088 377.177 94.4935 L377.177 90.975 L376.396 90.975 L376.396 90.1475 L377.177 90.1475 L377.177 88.3072 L378.248 88.3072 Z" fill="#000000" fill-rule="evenodd" fill-opacity="1"></path><path clip-path="url(#clip540)" d="M 0 0 M389.59 93.313 Q389.59 92.1556 389.11 91.519 Q388.635 90.8824 387.773 90.8824 Q386.917 90.8824 386.436 91.519 Q385.962 92.1556 385.962 93.313 Q385.962 94.4646 386.436 95.1012 Q386.917 95.7377 387.773 95.7377 Q388.635 95.7377 389.11 95.1012 Q389.59 94.4646 389.59 93.313 M390.655 95.8245 Q390.655 97.4796 389.92 98.284 Q389.185 99.0942 387.669 99.0942 Q387.108 99.0942 386.61 99.0074 Q386.112 98.9264 385.643 98.7528 L385.643 97.7169 Q386.112 97.9715 386.569 98.093 Q387.027 98.2146 387.501 98.2146 Q388.549 98.2146 389.069 97.6648 Q389.59 97.1208 389.59 96.0155 L389.59 95.4889 Q389.26 96.0618 388.745 96.3454 Q388.23 96.6289 387.513 96.6289 Q386.321 96.6289 385.591 95.7204 Q384.862 94.8118 384.862 93.313 Q384.862 91.8084 385.591 90.8998 Q386.321 89.9912 387.513 89.9912 Q388.23 89.9912 388.745 90.2748 Q389.26 90.5584 389.59 91.1313 L389.59 90.1475 L390.655 90.1475 L390.655 95.8245 Z" fill="#000000" fill-rule="evenodd" fill-opacity="1"></path><path clip-path="url(#clip540)" d="M 0 0 M394.718 93.3708 Q393.427 93.3708 392.929 93.666 Q392.432 93.9611 392.432 94.6729 Q392.432 95.24 392.802 95.5757 Q393.178 95.9056 393.821 95.9056 Q394.706 95.9056 395.238 95.2806 Q395.777 94.6498 395.777 93.6081 L395.777 93.3708 L394.718 93.3708 M396.841 92.931 L396.841 96.6289 L395.777 96.6289 L395.777 95.6451 Q395.412 96.2354 394.868 96.519 Q394.324 96.7968 393.537 96.7968 Q392.542 96.7968 391.951 96.2412 Q391.367 95.6799 391.367 94.7424 Q391.367 93.6486 392.096 93.0931 Q392.831 92.5375 394.283 92.5375 L395.777 92.5375 L395.777 92.4333 Q395.777 91.6984 395.29 91.2991 Q394.81 90.894 393.936 90.894 Q393.381 90.894 392.854 91.0271 Q392.327 91.1602 391.841 91.4264 L391.841 90.4426 Q392.426 90.2169 392.976 90.107 Q393.525 89.9912 394.046 89.9912 Q395.452 89.9912 396.147 90.7204 Q396.841 91.4496 396.841 92.931 Z" fill="#000000" fill-rule="evenodd" fill-opacity="1"></path><path clip-path="url(#clip540)" d="M 0 0 M398.988 95.6567 L398.988 99.0942 L397.918 99.0942 L397.918 90.1475 L398.988 90.1475 L398.988 91.1313 Q399.324 90.5526 399.833 90.2748 Q400.348 89.9912 401.06 89.9912 Q402.241 89.9912 402.976 90.9287 Q403.716 91.8662 403.716 93.394 Q403.716 94.9218 402.976 95.8593 Q402.241 96.7968 401.06 96.7968 Q400.348 96.7968 399.833 96.519 Q399.324 96.2354 398.988 95.6567 M402.611 93.394 Q402.611 92.2192 402.125 91.5537 Q401.645 90.8824 400.8 90.8824 Q399.955 90.8824 399.469 91.5537 Q398.988 92.2192 398.988 93.394 Q398.988 94.5688 399.469 95.24 Q399.955 95.9056 400.8 95.9056 Q401.645 95.9056 402.125 95.24 Q402.611 94.5688 402.611 93.394 Z" fill="#000000" fill-rule="evenodd" fill-opacity="1"></path><path clip-path="url(#clip540)" d="M 0 0 M409.654 88.3072 L409.654 90.1475 L411.847 90.1475 L411.847 90.975 L409.654 90.975 L409.654 94.4935 Q409.654 95.2863 409.868 95.512 Q410.088 95.7377 410.753 95.7377 L411.847 95.7377 L411.847 96.6289 L410.753 96.6289 Q409.521 96.6289 409.052 96.1718 Q408.583 95.7088 408.583 94.4935 L408.583 90.975 L407.802 90.975 L407.802 90.1475 L408.583 90.1475 L408.583 88.3072 L409.654 88.3072 Z" fill="#000000" fill-rule="evenodd" fill-opacity="1"></path><path clip-path="url(#clip540)" d="M 0 0 M415.475 90.894 Q414.619 90.894 414.121 91.5653 Q413.624 92.2308 413.624 93.394 Q413.624 94.5572 414.116 95.2285 Q414.613 95.894 415.475 95.894 Q416.326 95.894 416.824 95.2227 Q417.322 94.5514 417.322 93.394 Q417.322 92.2424 416.824 91.5711 Q416.326 90.894 415.475 90.894 M415.475 89.9912 Q416.864 89.9912 417.657 90.894 Q418.45 91.7968 418.45 93.394 Q418.45 94.9854 417.657 95.894 Q416.864 96.7968 415.475 96.7968 Q414.081 96.7968 413.288 95.894 Q412.501 94.9854 412.501 93.394 Q412.501 91.7968 413.288 90.894 Q414.081 89.9912 415.475 89.9912 Z" fill="#000000" fill-rule="evenodd" fill-opacity="1"></path><path clip-path="url(#clip540)" d="M 0 0 M424.364 95.6567 L424.364 99.0942 L423.294 99.0942 L423.294 90.1475 L424.364 90.1475 L424.364 91.1313 Q424.7 90.5526 425.209 90.2748 Q425.724 89.9912 426.436 89.9912 Q427.617 89.9912 428.352 90.9287 Q429.092 91.8662 429.092 93.394 Q429.092 94.9218 428.352 95.8593 Q427.617 96.7968 426.436 96.7968 Q425.724 96.7968 425.209 96.519 Q424.7 96.2354 424.364 95.6567 M427.987 93.394 Q427.987 92.2192 427.501 91.5537 Q427.021 90.8824 426.176 90.8824 Q425.331 90.8824 424.845 91.5537 Q424.364 92.2192 424.364 93.394 Q424.364 94.5688 424.845 95.24 Q425.331 95.9056 426.176 95.9056 Q427.021 95.9056 427.501 95.24 Q427.987 94.5688 427.987 93.394 Z" fill="#000000" fill-rule="evenodd" fill-opacity="1"></path><path clip-path="url(#clip540)" d="M 0 0 M435.753 93.122 L435.753 93.6428 L430.857 93.6428 Q430.927 94.7424 431.517 95.3211 Q432.113 95.894 433.172 95.894 Q433.786 95.894 434.358 95.7435 Q434.937 95.5931 435.504 95.2921 L435.504 96.2991 Q434.931 96.5421 434.33 96.6694 Q433.728 96.7968 433.109 96.7968 Q431.558 96.7968 430.649 95.894 Q429.746 94.9912 429.746 93.4519 Q429.746 91.8604 430.603 90.9287 Q431.465 89.9912 432.923 89.9912 Q434.231 89.9912 434.989 90.8361 Q435.753 91.6753 435.753 93.122 M434.688 92.8095 Q434.677 91.9357 434.196 91.4148 Q433.722 90.894 432.935 90.894 Q432.044 90.894 431.506 91.3975 Q430.973 91.9009 430.892 92.8153 L434.688 92.8095 Z" fill="#000000" fill-rule="evenodd" fill-opacity="1"></path><path clip-path="url(#clip540)" d="M 0 0 M440.626 91.1428 Q440.446 91.0387 440.232 90.9924 Q440.024 90.9403 439.769 90.9403 Q438.867 90.9403 438.38 91.5306 Q437.9 92.1151 437.9 93.2146 L437.9 96.6289 L436.83 96.6289 L436.83 90.1475 L437.9 90.1475 L437.9 91.1544 Q438.236 90.5641 438.774 90.2806 Q439.312 89.9912 440.082 89.9912 Q440.192 89.9912 440.325 90.0086 Q440.458 90.0202 440.62 90.0491 L440.626 91.1428 Z" fill="#000000" fill-rule="evenodd" fill-opacity="1"></path><path clip-path="url(#clip540)" d="M 0 0 M446.581 91.3917 Q446.98 90.6741 447.536 90.3327 Q448.091 89.9912 448.843 89.9912 Q449.856 89.9912 450.406 90.703 Q450.956 91.409 450.956 92.7169 L450.956 96.6289 L449.885 96.6289 L449.885 92.7516 Q449.885 91.8199 449.555 91.3685 Q449.225 90.9172 448.548 90.9172 Q447.721 90.9172 447.24 91.4669 Q446.76 92.0167 446.76 92.9658 L446.76 96.6289 L445.689 96.6289 L445.689 92.7516 Q445.689 91.8141 445.36 91.3685 Q445.03 90.9172 444.341 90.9172 Q443.525 90.9172 443.045 91.4727 Q442.564 92.0225 442.564 92.9658 L442.564 96.6289 L441.494 96.6289 L441.494 90.1475 L442.564 90.1475 L442.564 91.1544 Q442.929 90.5584 443.438 90.2748 Q443.948 89.9912 444.648 89.9912 Q445.354 89.9912 445.846 90.35 Q446.343 90.7088 446.581 91.3917 Z" fill="#000000" fill-rule="evenodd" fill-opacity="1"></path><path clip-path="url(#clip540)" d="M 0 0 M455.018 93.3708 Q453.728 93.3708 453.23 93.666 Q452.732 93.9611 452.732 94.6729 Q452.732 95.24 453.103 95.5757 Q453.479 95.9056 454.121 95.9056 Q455.007 95.9056 455.539 95.2806 Q456.077 94.6498 456.077 93.6081 L456.077 93.3708 L455.018 93.3708 M457.142 92.931 L457.142 96.6289 L456.077 96.6289 L456.077 95.6451 Q455.713 96.2354 455.169 96.519 Q454.625 96.7968 453.838 96.7968 Q452.842 96.7968 452.252 96.2412 Q451.667 95.6799 451.667 94.7424 Q451.667 93.6486 452.397 93.0931 Q453.132 92.5375 454.584 92.5375 L456.077 92.5375 L456.077 92.4333 Q456.077 91.6984 455.591 91.2991 Q455.111 90.894 454.237 90.894 Q453.681 90.894 453.155 91.0271 Q452.628 91.1602 452.142 91.4264 L452.142 90.4426 Q452.726 90.2169 453.276 90.107 Q453.826 89.9912 454.347 89.9912 Q455.753 89.9912 456.447 90.7204 Q457.142 91.4496 457.142 92.931 Z" fill="#000000" fill-rule="evenodd" fill-opacity="1"></path><path clip-path="url(#clip540)" d="M 0 0 M463.647 92.7169 L463.647 96.6289 L462.582 96.6289 L462.582 92.7516 Q462.582 91.8315 462.223 91.3743 Q461.864 90.9172 461.147 90.9172 Q460.284 90.9172 459.787 91.4669 Q459.289 92.0167 459.289 92.9658 L459.289 96.6289 L458.218 96.6289 L458.218 90.1475 L459.289 90.1475 L459.289 91.1544 Q459.671 90.5699 460.186 90.2806 Q460.707 89.9912 461.384 89.9912 Q462.501 89.9912 463.074 90.6857 Q463.647 91.3743 463.647 92.7169 Z" fill="#000000" fill-rule="evenodd" fill-opacity="1"></path><path clip-path="url(#clip540)" d="M 0 0 M470.307 93.122 L470.307 93.6428 L465.412 93.6428 Q465.481 94.7424 466.071 95.3211 Q466.667 95.894 467.726 95.894 Q468.34 95.894 468.913 95.7435 Q469.491 95.5931 470.059 95.2921 L470.059 96.2991 Q469.486 96.5421 468.884 96.6694 Q468.282 96.7968 467.663 96.7968 Q466.112 96.7968 465.203 95.894 Q464.3 94.9912 464.3 93.4519 Q464.3 91.8604 465.157 90.9287 Q466.019 89.9912 467.478 89.9912 Q468.785 89.9912 469.543 90.8361 Q470.307 91.6753 470.307 93.122 M469.243 92.8095 Q469.231 91.9357 468.751 91.4148 Q468.276 90.894 467.489 90.894 Q466.598 90.894 466.06 91.3975 Q465.527 91.9009 465.446 92.8153 L469.243 92.8095 Z" fill="#000000" fill-rule="evenodd" fill-opacity="1"></path><path clip-path="url(#clip540)" d="M 0 0 M476.812 92.7169 L476.812 96.6289 L475.747 96.6289 L475.747 92.7516 Q475.747 91.8315 475.388 91.3743 Q475.03 90.9172 474.312 90.9172 Q473.45 90.9172 472.952 91.4669 Q472.454 92.0167 472.454 92.9658 L472.454 96.6289 L471.384 96.6289 L471.384 90.1475 L472.454 90.1475 L472.454 91.1544 Q472.836 90.5699 473.351 90.2806 Q473.872 89.9912 474.549 89.9912 Q475.666 89.9912 476.239 90.6857 Q476.812 91.3743 476.812 92.7169 Z" fill="#000000" fill-rule="evenodd" fill-opacity="1"></path><path clip-path="url(#clip540)" d="M 0 0 M478.982 88.3072 L478.982 90.1475 L481.175 90.1475 L481.175 90.975 L478.982 90.975 L478.982 94.4935 Q478.982 95.2863 479.196 95.512 Q479.416 95.7377 480.082 95.7377 L481.175 95.7377 L481.175 96.6289 L480.082 96.6289 Q478.849 96.6289 478.38 96.1718 Q477.912 95.7088 477.912 94.4935 L477.912 90.975 L477.13 90.975 L477.13 90.1475 L477.912 90.1475 L477.912 88.3072 L478.982 88.3072 Z" fill="#000000" fill-rule="evenodd" fill-opacity="1"></path><path clip-path="url(#clip540)" d="M 0 0 M486.06 87.6243 L487.124 87.6243 L487.124 96.6289 L486.06 96.6289 L486.06 87.6243 Z" fill="#000000" fill-rule="evenodd" fill-opacity="1"></path><path clip-path="url(#clip540)" d="M 0 0 M488.241 90.1475 L489.306 90.1475 L489.306 96.6289 L488.241 96.6289 L488.241 90.1475 M488.241 87.6243 L489.306 87.6243 L489.306 88.9727 L488.241 88.9727 L488.241 87.6243 Z" fill="#000000" fill-rule="evenodd" fill-opacity="1"></path><path clip-path="url(#clip540)" d="M 0 0 M491.06 93.394 Q491.06 94.5688 491.54 95.24 Q492.026 95.9056 492.871 95.9056 Q493.716 95.9056 494.202 95.24 Q494.688 94.5688 494.688 93.394 Q494.688 92.2192 494.202 91.5537 Q493.716 90.8824 492.871 90.8824 Q492.026 90.8824 491.54 91.5537 Q491.06 92.2192 491.06 93.394 M494.688 95.6567 Q494.352 96.2354 493.837 96.519 Q493.328 96.7968 492.61 96.7968 Q491.436 96.7968 490.695 95.8593 Q489.96 94.9218 489.96 93.394 Q489.96 91.8662 490.695 90.9287 Q491.436 89.9912 492.61 89.9912 Q493.328 89.9912 493.837 90.2748 Q494.352 90.5526 494.688 91.1313 L494.688 90.1475 L495.753 90.1475 L495.753 99.0942 L494.688 99.0942 L494.688 95.6567 Z" fill="#000000" fill-rule="evenodd" fill-opacity="1"></path><path clip-path="url(#clip540)" d="M 0 0 M496.76 94.0711 L496.76 90.1475 L497.825 90.1475 L497.825 94.0306 Q497.825 94.9507 498.183 95.4137 Q498.542 95.8708 499.26 95.8708 Q500.122 95.8708 500.62 95.3211 Q501.123 94.7713 501.123 93.8222 L501.123 90.1475 L502.188 90.1475 L502.188 96.6289 L501.123 96.6289 L501.123 95.6336 Q500.735 96.2238 500.22 96.5132 Q499.711 96.7968 499.034 96.7968 Q497.917 96.7968 497.338 96.1023 Q496.76 95.4079 496.76 94.0711 M499.439 89.9912 L499.439 89.9912 Z" fill="#000000" fill-rule="evenodd" fill-opacity="1"></path><path clip-path="url(#clip540)" d="M 0 0 M503.305 90.1475 L504.37 90.1475 L504.37 96.6289 L503.305 96.6289 L503.305 90.1475 M503.305 87.6243 L504.37 87.6243 L504.37 88.9727 L503.305 88.9727 L503.305 87.6243 Z" fill="#000000" fill-rule="evenodd" fill-opacity="1"></path><path clip-path="url(#clip540)" d="M 0 0 M509.752 91.1313 L509.752 87.6243 L510.816 87.6243 L510.816 96.6289 L509.752 96.6289 L509.752 95.6567 Q509.416 96.2354 508.901 96.519 Q508.392 96.7968 507.674 96.7968 Q506.499 96.7968 505.759 95.8593 Q505.024 94.9218 505.024 93.394 Q505.024 91.8662 505.759 90.9287 Q506.499 89.9912 507.674 89.9912 Q508.392 89.9912 508.901 90.2748 Q509.416 90.5526 509.752 91.1313 M506.123 93.394 Q506.123 94.5688 506.603 95.24 Q507.09 95.9056 507.934 95.9056 Q508.779 95.9056 509.266 95.24 Q509.752 94.5688 509.752 93.394 Q509.752 92.2192 509.266 91.5537 Q508.779 90.8824 507.934 90.8824 Q507.09 90.8824 506.603 91.5537 Q506.123 92.2192 506.123 93.394 Z" fill="#000000" fill-rule="evenodd" fill-opacity="1"></path><path clip-path="url(#clip540)" d="M 0 0 M511.933 90.1475 L512.998 90.1475 L512.998 96.6289 L511.933 96.6289 L511.933 90.1475 M511.933 87.6243 L512.998 87.6243 L512.998 88.9727 L511.933 88.9727 L511.933 87.6243 Z" fill="#000000" fill-rule="evenodd" fill-opacity="1"></path><path clip-path="url(#clip540)" d="M 0 0 M515.168 88.3072 L515.168 90.1475 L517.362 90.1475 L517.362 90.975 L515.168 90.975 L515.168 94.4935 Q515.168 95.2863 515.382 95.512 Q515.602 95.7377 516.268 95.7377 L517.362 95.7377 L517.362 96.6289 L516.268 96.6289 Q515.035 96.6289 514.566 96.1718 Q514.098 95.7088 514.098 94.4935 L514.098 90.975 L513.316 90.975 L513.316 90.1475 L514.098 90.1475 L514.098 88.3072 L515.168 88.3072 Z" fill="#000000" fill-rule="evenodd" fill-opacity="1"></path><path clip-path="url(#clip540)" d="M 0 0 M521.175 97.2308 Q520.724 98.3882 520.296 98.7412 Q519.867 99.0942 519.15 99.0942 L518.299 99.0942 L518.299 98.203 L518.924 98.203 Q519.364 98.203 519.607 97.9947 Q519.85 97.7863 520.145 97.0109 L520.336 96.5248 L517.715 90.1475 L518.843 90.1475 L520.868 95.2169 L522.894 90.1475 L524.022 90.1475 L521.175 97.2308 Z" fill="#000000" fill-rule="evenodd" fill-opacity="1"></path><path clip-path="url(#clip540)" d="M 0 0 M533.039 90.3385 L533.039 91.3454 Q532.587 91.1139 532.101 90.9982 Q531.615 90.8824 531.094 90.8824 Q530.301 90.8824 529.902 91.1255 Q529.508 91.3685 529.508 91.8546 Q529.508 92.225 529.792 92.4391 Q530.076 92.6475 530.932 92.8384 L531.297 92.9195 Q532.431 93.1625 532.905 93.6081 Q533.386 94.0479 533.386 94.8407 Q533.386 95.7435 532.668 96.2701 Q531.956 96.7968 530.706 96.7968 Q530.186 96.7968 529.618 96.6926 Q529.057 96.5942 528.432 96.3917 L528.432 95.2921 Q529.022 95.5988 529.595 95.7551 Q530.168 95.9056 530.73 95.9056 Q531.482 95.9056 531.887 95.6509 Q532.292 95.3905 532.292 94.9218 Q532.292 94.4877 531.997 94.2563 Q531.708 94.0248 530.718 93.8107 L530.348 93.7239 Q529.358 93.5155 528.918 93.0873 Q528.478 92.6533 528.478 91.9009 Q528.478 90.9866 529.127 90.4889 Q529.775 89.9912 530.967 89.9912 Q531.557 89.9912 532.078 90.078 Q532.599 90.1648 533.039 90.3385 Z" fill="#000000" fill-rule="evenodd" fill-opacity="1"></path><path clip-path="url(#clip540)" d="M 0 0 M539.89 92.7169 L539.89 96.6289 L538.826 96.6289 L538.826 92.7516 Q538.826 91.8315 538.467 91.3743 Q538.108 90.9172 537.39 90.9172 Q536.528 90.9172 536.03 91.4669 Q535.533 92.0167 535.533 92.9658 L535.533 96.6289 L534.462 96.6289 L534.462 87.6243 L535.533 87.6243 L535.533 91.1544 Q535.915 90.5699 536.43 90.2806 Q536.951 89.9912 537.628 89.9912 Q538.745 89.9912 539.317 90.6857 Q539.89 91.3743 539.89 92.7169 Z" fill="#000000" fill-rule="evenodd" fill-opacity="1"></path><path clip-path="url(#clip540)" d="M 0 0 M543.519 90.894 Q542.662 90.894 542.165 91.5653 Q541.667 92.2308 541.667 93.394 Q541.667 94.5572 542.159 95.2285 Q542.657 95.894 543.519 95.894 Q544.369 95.894 544.867 95.2227 Q545.365 94.5514 545.365 93.394 Q545.365 92.2424 544.867 91.5711 Q544.369 90.894 543.519 90.894 M543.519 89.9912 Q544.908 89.9912 545.7 90.894 Q546.493 91.7968 546.493 93.394 Q546.493 94.9854 545.7 95.894 Q544.908 96.7968 543.519 96.7968 Q542.124 96.7968 541.331 95.894 Q540.544 94.9854 540.544 93.394 Q540.544 91.7968 541.331 90.894 Q542.124 89.9912 543.519 89.9912 Z" fill="#000000" fill-rule="evenodd" fill-opacity="1"></path><path clip-path="url(#clip540)" d="M 0 0 M552.275 90.3963 L552.275 91.3917 Q551.823 91.1428 551.366 91.0213 Q550.915 90.894 550.452 90.894 Q549.416 90.894 548.843 91.5537 Q548.27 92.2077 548.27 93.394 Q548.27 94.5803 548.843 95.24 Q549.416 95.894 550.452 95.894 Q550.915 95.894 551.366 95.7725 Q551.823 95.6451 552.275 95.3963 L552.275 96.3801 Q551.829 96.5884 551.349 96.6926 Q550.874 96.7968 550.336 96.7968 Q548.872 96.7968 548.01 95.8766 Q547.147 94.9565 547.147 93.394 Q547.147 91.8084 548.015 90.8998 Q548.889 89.9912 550.405 89.9912 Q550.897 89.9912 551.366 90.0954 Q551.835 90.1938 552.275 90.3963 Z" fill="#000000" fill-rule="evenodd" fill-opacity="1"></path><path clip-path="url(#clip540)" d="M 0 0 M553.351 87.6243 L554.422 87.6243 L554.422 92.9426 L557.599 90.1475 L558.959 90.1475 L555.521 93.1799 L559.103 96.6289 L557.714 96.6289 L554.422 93.4634 L554.422 96.6289 L553.351 96.6289 L553.351 87.6243 Z" fill="#000000" fill-rule="evenodd" fill-opacity="1"></path></svg>