<svg xmlns="http://www.w3.org/2000/svg" xmlns:xlink="http://www.w3.org/1999/xlink" width="150" height="150" viewBox="0 0 600 600">
<defs>
  <clipPath id="clip570">
    <rect x="0" y="0" width="600" height="600"></rect>
  </clipPath>
</defs>
<path clip-path="url(#clip570)" d="
M0 600 L600 600 L600 0 L0 0  Z
  " fill="#ffffff" fill-rule="evenodd" fill-opacity="1"></path>
<defs>
  <clipPath id="clip571">
    <rect x="120" y="60" width="421" height="421"></rect>
  </clipPath>
</defs>
<path clip-path="url(#clip570)" d="
M49.8013 543.535 L588.189 543.535 L588.189 61.108 L49.8013 61.108  Z
  " fill="#ffffff" fill-rule="evenodd" fill-opacity="1"></path>
<defs>
  <clipPath id="clip572">
    <rect x="49" y="61" width="539" height="483"></rect>
  </clipPath>
</defs>
<polyline clip-path="url(#clip572)" style="stroke:#000000; stroke-width:0.5; stroke-opacity:0.1; fill:none" points="
  58.6094,543.535 58.6094,61.108 
  "></polyline>
<polyline clip-path="url(#clip572)" style="stroke:#000000; stroke-width:0.5; stroke-opacity:0.1; fill:none" points="
  187.195,543.535 187.195,61.108 
  "></polyline>
<polyline clip-path="url(#clip572)" style="stroke:#000000; stroke-width:0.5; stroke-opacity:0.1; fill:none" points="
  315.781,543.535 315.781,61.108 
  "></polyline>
<polyline clip-path="url(#clip572)" style="stroke:#000000; stroke-width:0.5; stroke-opacity:0.1; fill:none" points="
  444.366,543.535 444.366,61.108 
  "></polyline>
<polyline clip-path="url(#clip572)" style="stroke:#000000; stroke-width:0.5; stroke-opacity:0.1; fill:none" points="
  572.952,543.535 572.952,61.108 
  "></polyline>
<polyline clip-path="url(#clip570)" style="stroke:#000000; stroke-width:1; stroke-opacity:1; fill:none" points="
  49.8013,543.535 588.189,543.535 
  "></polyline>
<polyline clip-path="url(#clip570)" style="stroke:#000000; stroke-width:1; stroke-opacity:1; fill:none" points="
  58.6094,543.535 58.6094,537.746 
  "></polyline>
<polyline clip-path="url(#clip570)" style="stroke:#000000; stroke-width:1; stroke-opacity:1; fill:none" points="
  187.195,543.535 187.195,537.746 
  "></polyline>
<polyline clip-path="url(#clip570)" style="stroke:#000000; stroke-width:1; stroke-opacity:1; fill:none" points="
  315.781,543.535 315.781,537.746 
  "></polyline>
<polyline clip-path="url(#clip570)" style="stroke:#000000; stroke-width:1; stroke-opacity:1; fill:none" points="
  444.366,543.535 444.366,537.746 
  "></polyline>
<polyline clip-path="url(#clip570)" style="stroke:#000000; stroke-width:1; stroke-opacity:1; fill:none" points="
  572.952,543.535 572.952,537.746 
  "></polyline>
<path clip-path="url(#clip570)" d="M 0 0 M58.6094 550.833 Q57.7066 550.833 57.2495 551.724 Q56.7981 552.609 56.7981 554.392 Q56.7981 556.168 57.2495 557.059 Q57.7066 557.945 58.6094 557.945 Q59.518 557.945 59.9694 557.059 Q60.4265 556.168 60.4265 554.392 Q60.4265 552.609 59.9694 551.724 Q59.518 550.833 58.6094 550.833 M58.6094 549.907 Q60.062 549.907 60.8258 551.058 Q61.5955 552.204 61.5955 554.392 Q61.5955 556.573 60.8258 557.725 Q60.062 558.871 58.6094 558.871 Q57.1569 558.871 56.3872 557.725 Q55.6233 556.573 55.6233 554.392 Q55.6233 552.204 56.3872 551.058 Q57.1569 549.907 58.6094 549.907 Z" fill="#000000" fill-rule="evenodd" fill-opacity="1"></path><path clip-path="url(#clip570)" d="M 0 0 M182.481 557.719 L186.561 557.719 L186.561 558.703 L181.075 558.703 L181.075 557.719 Q181.741 557.031 182.887 555.873 Q184.038 554.71 184.333 554.374 Q184.895 553.743 185.115 553.309 Q185.34 552.87 185.34 552.447 Q185.34 551.759 184.854 551.325 Q184.374 550.891 183.598 550.891 Q183.049 550.891 182.435 551.081 Q181.828 551.272 181.133 551.66 L181.133 550.48 Q181.839 550.196 182.453 550.051 Q183.066 549.907 183.575 549.907 Q184.918 549.907 185.716 550.578 Q186.515 551.249 186.515 552.372 Q186.515 552.904 186.312 553.385 Q186.116 553.859 185.589 554.507 Q185.444 554.675 184.669 555.48 Q183.893 556.278 182.481 557.719 Z" fill="#000000" fill-rule="evenodd" fill-opacity="1"></path><path clip-path="url(#clip570)" d="M 0 0 M190.329 550.833 Q189.426 550.833 188.969 551.724 Q188.517 552.609 188.517 554.392 Q188.517 556.168 188.969 557.059 Q189.426 557.945 190.329 557.945 Q191.237 557.945 191.689 557.059 Q192.146 556.168 192.146 554.392 Q192.146 552.609 191.689 551.724 Q191.237 550.833 190.329 550.833 M190.329 549.907 Q191.781 549.907 192.545 551.058 Q193.315 552.204 193.315 554.392 Q193.315 556.573 192.545 557.725 Q191.781 558.871 190.329 558.871 Q188.876 558.871 188.106 557.725 Q187.343 556.573 187.343 554.392 Q187.343 552.204 188.106 551.058 Q188.876 549.907 190.329 549.907 Z" fill="#000000" fill-rule="evenodd" fill-opacity="1"></path><path clip-path="url(#clip570)" d="M 0 0 M313.156 551.081 L310.205 555.694 L313.156 555.694 L313.156 551.081 M312.849 550.063 L314.319 550.063 L314.319 555.694 L315.552 555.694 L315.552 556.666 L314.319 556.666 L314.319 558.703 L313.156 558.703 L313.156 556.666 L309.256 556.666 L309.256 555.537 L312.849 550.063 Z" fill="#000000" fill-rule="evenodd" fill-opacity="1"></path><path clip-path="url(#clip570)" d="M 0 0 M319.319 550.833 Q318.416 550.833 317.959 551.724 Q317.508 552.609 317.508 554.392 Q317.508 556.168 317.959 557.059 Q318.416 557.945 319.319 557.945 Q320.228 557.945 320.679 557.059 Q321.136 556.168 321.136 554.392 Q321.136 552.609 320.679 551.724 Q320.228 550.833 319.319 550.833 M319.319 549.907 Q320.772 549.907 321.536 551.058 Q322.305 552.204 322.305 554.392 Q322.305 556.573 321.536 557.725 Q320.772 558.871 319.319 558.871 Q317.867 558.871 317.097 557.725 Q316.333 556.573 316.333 554.392 Q316.333 552.204 317.097 551.058 Q317.867 549.907 319.319 549.907 Z" fill="#000000" fill-rule="evenodd" fill-opacity="1"></path><path clip-path="url(#clip570)" d="M 0 0 M441.091 553.917 Q440.304 553.917 439.841 554.455 Q439.383 554.993 439.383 555.931 Q439.383 556.863 439.841 557.407 Q440.304 557.945 441.091 557.945 Q441.878 557.945 442.335 557.407 Q442.798 556.863 442.798 555.931 Q442.798 554.993 442.335 554.455 Q441.878 553.917 441.091 553.917 M443.411 550.254 L443.411 551.319 Q442.971 551.11 442.52 551 Q442.074 550.891 441.635 550.891 Q440.477 550.891 439.864 551.672 Q439.256 552.453 439.169 554.033 Q439.511 553.529 440.026 553.263 Q440.541 552.991 441.16 552.991 Q442.462 552.991 443.214 553.784 Q443.973 554.571 443.973 555.931 Q443.973 557.262 443.185 558.066 Q442.398 558.871 441.091 558.871 Q439.592 558.871 438.799 557.725 Q438.006 556.573 438.006 554.392 Q438.006 552.343 438.978 551.128 Q439.951 549.907 441.588 549.907 Q442.028 549.907 442.474 549.994 Q442.925 550.08 443.411 550.254 Z" fill="#000000" fill-rule="evenodd" fill-opacity="1"></path><path clip-path="url(#clip570)" d="M 0 0 M447.74 550.833 Q446.837 550.833 446.38 551.724 Q445.929 552.609 445.929 554.392 Q445.929 556.168 446.38 557.059 Q446.837 557.945 447.74 557.945 Q448.648 557.945 449.1 557.059 Q449.557 556.168 449.557 554.392 Q449.557 552.609 449.1 551.724 Q448.648 550.833 447.74 550.833 M447.74 549.907 Q449.192 549.907 449.956 551.058 Q450.726 552.204 450.726 554.392 Q450.726 556.573 449.956 557.725 Q449.192 558.871 447.74 558.871 Q446.287 558.871 445.518 557.725 Q444.754 556.573 444.754 554.392 Q444.754 552.204 445.518 551.058 Q446.287 549.907 447.74 549.907 Z" fill="#000000" fill-rule="evenodd" fill-opacity="1"></path><path clip-path="url(#clip570)" d="M 0 0 M569.575 554.6 Q568.742 554.6 568.261 555.046 Q567.787 555.491 567.787 556.272 Q567.787 557.054 568.261 557.499 Q568.742 557.945 569.575 557.945 Q570.408 557.945 570.889 557.499 Q571.369 557.048 571.369 556.272 Q571.369 555.491 570.889 555.046 Q570.414 554.6 569.575 554.6 M568.406 554.102 Q567.654 553.917 567.231 553.402 Q566.814 552.887 566.814 552.146 Q566.814 551.11 567.549 550.509 Q568.29 549.907 569.575 549.907 Q570.865 549.907 571.6 550.509 Q572.335 551.11 572.335 552.146 Q572.335 552.887 571.913 553.402 Q571.496 553.917 570.75 554.102 Q571.595 554.299 572.063 554.872 Q572.538 555.445 572.538 556.272 Q572.538 557.528 571.768 558.199 Q571.004 558.871 569.575 558.871 Q568.145 558.871 567.376 558.199 Q566.612 557.528 566.612 556.272 Q566.612 555.445 567.086 554.872 Q567.561 554.299 568.406 554.102 M567.978 552.256 Q567.978 552.928 568.394 553.304 Q568.817 553.68 569.575 553.68 Q570.327 553.68 570.75 553.304 Q571.178 552.928 571.178 552.256 Q571.178 551.585 570.75 551.209 Q570.327 550.833 569.575 550.833 Q568.817 550.833 568.394 551.209 Q567.978 551.585 567.978 552.256 Z" fill="#000000" fill-rule="evenodd" fill-opacity="1"></path><path clip-path="url(#clip570)" d="M 0 0 M576.305 550.833 Q575.402 550.833 574.945 551.724 Q574.494 552.609 574.494 554.392 Q574.494 556.168 574.945 557.059 Q575.402 557.945 576.305 557.945 Q577.214 557.945 577.665 557.059 Q578.122 556.168 578.122 554.392 Q578.122 552.609 577.665 551.724 Q577.214 550.833 576.305 550.833 M576.305 549.907 Q577.758 549.907 578.522 551.058 Q579.291 552.204 579.291 554.392 Q579.291 556.573 578.522 557.725 Q577.758 558.871 576.305 558.871 Q574.853 558.871 574.083 557.725 Q573.319 556.573 573.319 554.392 Q573.319 552.204 574.083 551.058 Q574.853 549.907 576.305 549.907 Z" fill="#000000" fill-rule="evenodd" fill-opacity="1"></path><path clip-path="url(#clip570)" d="M 0 0 M255.06 574.523 Q254.367 574.523 253.969 575.112 Q253.58 575.701 253.58 576.751 Q253.58 577.786 253.969 578.382 Q254.367 578.971 255.06 578.971 Q255.736 578.971 256.126 578.382 Q256.524 577.786 256.524 576.751 Q256.524 575.709 256.126 575.12 Q255.736 574.523 255.06 574.523 M255.06 573.513 Q256.317 573.513 257.057 574.388 Q257.797 575.263 257.797 576.751 Q257.797 578.239 257.049 579.114 Q256.309 579.982 255.06 579.982 Q253.786 579.982 253.046 579.114 Q252.306 578.239 252.306 576.751 Q252.306 575.255 253.046 574.388 Q253.794 573.513 255.06 573.513 M246.848 568.667 Q246.163 568.667 245.766 569.263 Q245.376 569.852 245.376 570.887 Q245.376 571.937 245.766 572.526 Q246.156 573.115 246.848 573.115 Q247.54 573.115 247.93 572.526 Q248.328 571.937 248.328 570.887 Q248.328 569.86 247.93 569.263 Q247.532 568.667 246.848 568.667 M254.033 567.656 L255.306 567.656 L247.874 579.982 L246.601 579.982 L254.033 567.656 M246.848 567.656 Q248.105 567.656 248.853 568.531 Q249.601 569.399 249.601 570.887 Q249.601 572.391 248.853 573.258 Q248.113 574.125 246.848 574.125 Q245.583 574.125 244.843 573.258 Q244.111 572.383 244.111 570.887 Q244.111 569.407 244.851 568.531 Q245.591 567.656 246.848 567.656 Z" fill="#000000" fill-rule="evenodd" fill-opacity="1"></path><path clip-path="url(#clip570)" d="M 0 0 M270.377 572.192 L270.377 567.37 L271.841 567.37 L271.841 579.751 L270.377 579.751 L270.377 578.414 Q269.916 579.21 269.207 579.6 Q268.507 579.982 267.52 579.982 Q265.905 579.982 264.887 578.693 Q263.876 577.404 263.876 575.303 Q263.876 573.202 264.887 571.913 Q265.905 570.624 267.52 570.624 Q268.507 570.624 269.207 571.014 Q269.916 571.396 270.377 572.192 M265.388 575.303 Q265.388 576.918 266.048 577.841 Q266.717 578.756 267.879 578.756 Q269.04 578.756 269.709 577.841 Q270.377 576.918 270.377 575.303 Q270.377 573.688 269.709 572.773 Q269.04 571.85 267.879 571.85 Q266.717 571.85 266.048 572.773 Q265.388 573.688 265.388 575.303 Z" fill="#000000" fill-rule="evenodd" fill-opacity="1"></path><path clip-path="url(#clip570)" d="M 0 0 M281 574.929 L281 575.645 L274.268 575.645 Q274.364 577.157 275.175 577.953 Q275.995 578.74 277.451 578.74 Q278.294 578.74 279.082 578.534 Q279.878 578.327 280.658 577.913 L280.658 579.297 Q279.87 579.632 279.042 579.807 Q278.215 579.982 277.363 579.982 Q275.231 579.982 273.982 578.74 Q272.74 577.499 272.74 575.382 Q272.74 573.194 273.918 571.913 Q275.104 570.624 277.109 570.624 Q278.907 570.624 279.949 571.786 Q281 572.94 281 574.929 M279.536 574.499 Q279.52 573.298 278.859 572.582 Q278.207 571.865 277.125 571.865 Q275.899 571.865 275.159 572.558 Q274.427 573.25 274.316 574.507 L279.536 574.499 Z" fill="#000000" fill-rule="evenodd" fill-opacity="1"></path><path clip-path="url(#clip570)" d="M 0 0 M281.485 570.839 L283.037 570.839 L285.822 578.319 L288.607 570.839 L290.158 570.839 L286.816 579.751 L284.827 579.751 L281.485 570.839 Z" fill="#000000" fill-rule="evenodd" fill-opacity="1"></path><path clip-path="url(#clip570)" d="M 0 0 M291.694 570.839 L293.158 570.839 L293.158 579.751 L291.694 579.751 L291.694 570.839 M291.694 567.37 L293.158 567.37 L293.158 569.224 L291.694 569.224 L291.694 567.37 Z" fill="#000000" fill-rule="evenodd" fill-opacity="1"></path><path clip-path="url(#clip570)" d="M 0 0 M298.744 575.271 Q296.97 575.271 296.285 575.677 Q295.601 576.083 295.601 577.061 Q295.601 577.841 296.11 578.303 Q296.628 578.756 297.511 578.756 Q298.728 578.756 299.46 577.897 Q300.2 577.03 300.2 575.597 L300.2 575.271 L298.744 575.271 M301.665 574.666 L301.665 579.751 L300.2 579.751 L300.2 578.398 Q299.699 579.21 298.951 579.6 Q298.203 579.982 297.121 579.982 Q295.752 579.982 294.941 579.218 Q294.137 578.446 294.137 577.157 Q294.137 575.653 295.14 574.889 Q296.15 574.125 298.147 574.125 L300.2 574.125 L300.2 573.982 Q300.2 572.971 299.532 572.422 Q298.872 571.865 297.67 571.865 Q296.906 571.865 296.182 572.048 Q295.458 572.231 294.79 572.597 L294.79 571.245 Q295.593 570.934 296.349 570.783 Q297.105 570.624 297.821 570.624 Q299.755 570.624 300.71 571.627 Q301.665 572.629 301.665 574.666 Z" fill="#000000" fill-rule="evenodd" fill-opacity="1"></path><path clip-path="url(#clip570)" d="M 0 0 M304.648 568.309 L304.648 570.839 L307.664 570.839 L307.664 571.977 L304.648 571.977 L304.648 576.815 Q304.648 577.905 304.943 578.215 Q305.245 578.526 306.16 578.526 L307.664 578.526 L307.664 579.751 L306.16 579.751 Q304.465 579.751 303.821 579.122 Q303.176 578.486 303.176 576.815 L303.176 571.977 L302.102 571.977 L302.102 570.839 L303.176 570.839 L303.176 568.309 L304.648 568.309 Z" fill="#000000" fill-rule="evenodd" fill-opacity="1"></path><path clip-path="url(#clip570)" d="M 0 0 M309.2 570.839 L310.664 570.839 L310.664 579.751 L309.2 579.751 L309.2 570.839 M309.2 567.37 L310.664 567.37 L310.664 569.224 L309.2 569.224 L309.2 567.37 Z" fill="#000000" fill-rule="evenodd" fill-opacity="1"></path><path clip-path="url(#clip570)" d="M 0 0 M315.653 571.865 Q314.475 571.865 313.791 572.788 Q313.107 573.704 313.107 575.303 Q313.107 576.902 313.783 577.825 Q314.468 578.74 315.653 578.74 Q316.823 578.74 317.507 577.817 Q318.191 576.894 318.191 575.303 Q318.191 573.719 317.507 572.796 Q316.823 571.865 315.653 571.865 M315.653 570.624 Q317.563 570.624 318.653 571.865 Q319.743 573.107 319.743 575.303 Q319.743 577.491 318.653 578.74 Q317.563 579.982 315.653 579.982 Q313.735 579.982 312.645 578.74 Q311.563 577.491 311.563 575.303 Q311.563 573.107 312.645 571.865 Q313.735 570.624 315.653 570.624 Z" fill="#000000" fill-rule="evenodd" fill-opacity="1"></path><path clip-path="url(#clip570)" d="M 0 0 M328.687 574.372 L328.687 579.751 L327.223 579.751 L327.223 574.42 Q327.223 573.154 326.729 572.526 Q326.236 571.897 325.249 571.897 Q324.064 571.897 323.38 572.653 Q322.695 573.409 322.695 574.714 L322.695 579.751 L321.223 579.751 L321.223 570.839 L322.695 570.839 L322.695 572.224 Q323.22 571.42 323.929 571.022 Q324.645 570.624 325.576 570.624 Q327.111 570.624 327.899 571.579 Q328.687 572.526 328.687 574.372 Z" fill="#000000" fill-rule="evenodd" fill-opacity="1"></path><path clip-path="url(#clip570)" d="M 0 0 M339.914 567.37 L339.914 568.587 L338.514 568.587 Q337.726 568.587 337.416 568.905 Q337.114 569.224 337.114 570.051 L337.114 570.839 L339.525 570.839 L339.525 571.977 L337.114 571.977 L337.114 579.751 L335.641 579.751 L335.641 571.977 L334.241 571.977 L334.241 570.839 L335.641 570.839 L335.641 570.218 Q335.641 568.73 336.334 568.054 Q337.026 567.37 338.53 567.37 L339.914 567.37 Z" fill="#000000" fill-rule="evenodd" fill-opacity="1"></path><path clip-path="url(#clip570)" d="M 0 0 M346.614 572.208 Q346.368 572.064 346.073 572.001 Q345.787 571.929 345.437 571.929 Q344.195 571.929 343.527 572.741 Q342.867 573.544 342.867 575.056 L342.867 579.751 L341.394 579.751 L341.394 570.839 L342.867 570.839 L342.867 572.224 Q343.328 571.412 344.068 571.022 Q344.808 570.624 345.866 570.624 Q346.018 570.624 346.201 570.648 Q346.384 570.664 346.606 570.704 L346.614 572.208 Z" fill="#000000" fill-rule="evenodd" fill-opacity="1"></path><path clip-path="url(#clip570)" d="M 0 0 M351.245 571.865 Q350.068 571.865 349.383 572.788 Q348.699 573.704 348.699 575.303 Q348.699 576.902 349.375 577.825 Q350.06 578.74 351.245 578.74 Q352.415 578.74 353.099 577.817 Q353.784 576.894 353.784 575.303 Q353.784 573.719 353.099 572.796 Q352.415 571.865 351.245 571.865 M351.245 570.624 Q353.155 570.624 354.245 571.865 Q355.335 573.107 355.335 575.303 Q355.335 577.491 354.245 578.74 Q353.155 579.982 351.245 579.982 Q349.328 579.982 348.238 578.74 Q347.155 577.491 347.155 575.303 Q347.155 573.107 348.238 571.865 Q349.328 570.624 351.245 570.624 Z" fill="#000000" fill-rule="evenodd" fill-opacity="1"></path><path clip-path="url(#clip570)" d="M 0 0 M363.81 572.55 Q364.359 571.563 365.123 571.094 Q365.887 570.624 366.921 570.624 Q368.313 570.624 369.069 571.603 Q369.825 572.574 369.825 574.372 L369.825 579.751 L368.353 579.751 L368.353 574.42 Q368.353 573.139 367.9 572.518 Q367.446 571.897 366.515 571.897 Q365.377 571.897 364.717 572.653 Q364.056 573.409 364.056 574.714 L364.056 579.751 L362.584 579.751 L362.584 574.42 Q362.584 573.131 362.131 572.518 Q361.677 571.897 360.73 571.897 Q359.608 571.897 358.948 572.661 Q358.287 573.417 358.287 574.714 L358.287 579.751 L356.815 579.751 L356.815 570.839 L358.287 570.839 L358.287 572.224 Q358.789 571.404 359.489 571.014 Q360.189 570.624 361.152 570.624 Q362.123 570.624 362.799 571.117 Q363.483 571.611 363.81 572.55 Z" fill="#000000" fill-rule="evenodd" fill-opacity="1"></path><path clip-path="url(#clip570)" d="M 0 0 M383.726 568.261 L383.726 569.828 Q382.811 569.391 382 569.176 Q381.188 568.961 380.432 568.961 Q379.119 568.961 378.403 569.47 Q377.695 569.98 377.695 570.919 Q377.695 571.706 378.164 572.112 Q378.642 572.51 379.963 572.757 L380.933 572.956 Q382.732 573.298 383.583 574.165 Q384.443 575.024 384.443 576.473 Q384.443 578.199 383.281 579.091 Q382.127 579.982 379.891 579.982 Q379.048 579.982 378.093 579.791 Q377.146 579.6 376.127 579.226 L376.127 577.571 Q377.106 578.12 378.045 578.398 Q378.984 578.677 379.891 578.677 Q381.268 578.677 382.016 578.136 Q382.764 577.595 382.764 576.592 Q382.764 575.717 382.223 575.223 Q381.689 574.73 380.464 574.483 L379.485 574.292 Q377.687 573.934 376.883 573.17 Q376.08 572.407 376.08 571.046 Q376.08 569.47 377.186 568.563 Q378.3 567.656 380.249 567.656 Q381.085 567.656 381.952 567.807 Q382.819 567.958 383.726 568.261 Z" fill="#000000" fill-rule="evenodd" fill-opacity="1"></path><path clip-path="url(#clip570)" d="M 0 0 M393.164 568.261 L393.164 569.828 Q392.249 569.391 391.437 569.176 Q390.625 568.961 389.869 568.961 Q388.556 568.961 387.84 569.47 Q387.132 569.98 387.132 570.919 Q387.132 571.706 387.602 572.112 Q388.079 572.51 389.4 572.757 L390.371 572.956 Q392.169 573.298 393.02 574.165 Q393.88 575.024 393.88 576.473 Q393.88 578.199 392.718 579.091 Q391.564 579.982 389.328 579.982 Q388.485 579.982 387.53 579.791 Q386.583 579.6 385.565 579.226 L385.565 577.571 Q386.543 578.12 387.482 578.398 Q388.421 578.677 389.328 578.677 Q390.705 578.677 391.453 578.136 Q392.201 577.595 392.201 576.592 Q392.201 575.717 391.66 575.223 Q391.127 574.73 389.901 574.483 L388.922 574.292 Q387.124 573.934 386.32 573.17 Q385.517 572.407 385.517 571.046 Q385.517 569.47 386.623 568.563 Q387.737 567.656 389.686 567.656 Q390.522 567.656 391.389 567.807 Q392.256 567.958 393.164 568.261 Z" fill="#000000" fill-rule="evenodd" fill-opacity="1"></path><polyline clip-path="url(#clip572)" style="stroke:#000000; stroke-width:0.5; stroke-opacity:0.1; fill:none" points="
  49.8013,529.881 588.189,529.881 
  "></polyline>
<polyline clip-path="url(#clip572)" style="stroke:#000000; stroke-width:0.5; stroke-opacity:0.1; fill:none" points="
  49.8013,424.424 588.189,424.424 
  "></polyline>
<polyline clip-path="url(#clip572)" style="stroke:#000000; stroke-width:0.5; stroke-opacity:0.1; fill:none" points="
  49.8013,318.966 588.189,318.966 
  "></polyline>
<polyline clip-path="url(#clip572)" style="stroke:#000000; stroke-width:0.5; stroke-opacity:0.1; fill:none" points="
  49.8013,213.508 588.189,213.508 
  "></polyline>
<polyline clip-path="url(#clip572)" style="stroke:#000000; stroke-width:0.5; stroke-opacity:0.1; fill:none" points="
  49.8013,108.05 588.189,108.05 
  "></polyline>
<polyline clip-path="url(#clip570)" style="stroke:#000000; stroke-width:1; stroke-opacity:1; fill:none" points="
  49.8013,543.535 49.8013,61.108 
  "></polyline>
<polyline clip-path="url(#clip570)" style="stroke:#000000; stroke-width:1; stroke-opacity:1; fill:none" points="
  49.8013,529.881 56.262,529.881 
  "></polyline>
<polyline clip-path="url(#clip570)" style="stroke:#000000; stroke-width:1; stroke-opacity:1; fill:none" points="
  49.8013,424.424 56.262,424.424 
  "></polyline>
<polyline clip-path="url(#clip570)" style="stroke:#000000; stroke-width:1; stroke-opacity:1; fill:none" points="
  49.8013,318.966 56.262,318.966 
  "></polyline>
<polyline clip-path="url(#clip570)" style="stroke:#000000; stroke-width:1; stroke-opacity:1; fill:none" points="
  49.8013,213.508 56.262,213.508 
  "></polyline>
<polyline clip-path="url(#clip570)" style="stroke:#000000; stroke-width:1; stroke-opacity:1; fill:none" points="
  49.8013,108.05 56.262,108.05 
  "></polyline>
<path clip-path="url(#clip570)" d="M 0 0 M37.8152 526.331 Q36.9124 526.331 36.4553 527.222 Q36.0039 528.108 36.0039 529.89 Q36.0039 531.667 36.4553 532.558 Q36.9124 533.443 37.8152 533.443 Q38.7238 533.443 39.1752 532.558 Q39.6323 531.667 39.6323 529.89 Q39.6323 528.108 39.1752 527.222 Q38.7238 526.331 37.8152 526.331 M37.8152 525.405 Q39.2677 525.405 40.0316 526.557 Q40.8013 527.703 40.8013 529.89 Q40.8013 532.072 40.0316 533.223 Q39.2677 534.369 37.8152 534.369 Q36.3627 534.369 35.593 533.223 Q34.8291 532.072 34.8291 529.89 Q34.8291 527.703 35.593 526.557 Q36.3627 525.405 37.8152 525.405 Z" fill="#000000" fill-rule="evenodd" fill-opacity="1"></path><path clip-path="url(#clip570)" d="M 0 0 M35.8245 427.76 L37.7342 427.76 L37.7342 421.168 L35.6567 421.585 L35.6567 420.52 L37.7226 420.104 L38.8916 420.104 L38.8916 427.76 L40.8013 427.76 L40.8013 428.744 L35.8245 428.744 L35.8245 427.76 Z" fill="#000000" fill-rule="evenodd" fill-opacity="1"></path><path clip-path="url(#clip570)" d="M 0 0 M36.7215 322.302 L40.8013 322.302 L40.8013 323.286 L35.3152 323.286 L35.3152 322.302 Q35.9807 321.613 37.1266 320.456 Q38.2782 319.293 38.5733 318.957 Q39.1346 318.326 39.3546 317.892 Q39.5802 317.453 39.5802 317.03 Q39.5802 316.341 39.0941 315.907 Q38.6138 315.473 37.8384 315.473 Q37.2886 315.473 36.6752 315.664 Q36.0675 315.855 35.3731 316.243 L35.3731 315.062 Q36.0791 314.779 36.6925 314.634 Q37.306 314.49 37.8152 314.49 Q39.1578 314.49 39.9564 315.161 Q40.755 315.832 40.755 316.955 Q40.755 317.487 40.5525 317.968 Q40.3557 318.442 39.8291 319.09 Q39.6844 319.258 38.909 320.062 Q38.1335 320.861 36.7215 322.302 Z" fill="#000000" fill-rule="evenodd" fill-opacity="1"></path><path clip-path="url(#clip570)" d="M 0 0 M39.0189 213.169 Q39.858 213.349 40.3268 213.916 Q40.8013 214.483 40.8013 215.316 Q40.8013 216.595 39.9217 217.296 Q39.0421 217.996 37.4217 217.996 Q36.8777 217.996 36.299 217.886 Q35.7261 217.782 35.1127 217.568 L35.1127 216.439 Q35.5988 216.723 36.1775 216.867 Q36.7562 217.012 37.387 217.012 Q38.4865 217.012 39.0594 216.578 Q39.6381 216.144 39.6381 215.316 Q39.6381 214.553 39.0999 214.124 Q38.5675 213.69 37.6127 213.69 L36.6057 213.69 L36.6057 212.73 L37.659 212.73 Q38.5212 212.73 38.9784 212.388 Q39.4356 212.041 39.4356 211.393 Q39.4356 210.727 38.961 210.374 Q38.4923 210.016 37.6127 210.016 Q37.1323 210.016 36.5826 210.12 Q36.0328 210.224 35.3731 210.444 L35.3731 209.402 Q36.0386 209.217 36.6173 209.124 Q37.2018 209.032 37.7168 209.032 Q39.0478 209.032 39.8233 209.639 Q40.5988 210.241 40.5988 211.271 Q40.5988 211.989 40.1879 212.487 Q39.777 212.979 39.0189 213.169 Z" fill="#000000" fill-rule="evenodd" fill-opacity="1"></path><path clip-path="url(#clip570)" d="M 0 0 M38.4055 104.749 L35.4541 109.361 L38.4055 109.361 L38.4055 104.749 M38.0988 103.73 L39.5687 103.73 L39.5687 109.361 L40.8013 109.361 L40.8013 110.333 L39.5687 110.333 L39.5687 112.37 L38.4055 112.37 L38.4055 110.333 L34.505 110.333 L34.505 109.205 L38.0988 103.73 Z" fill="#000000" fill-rule="evenodd" fill-opacity="1"></path><path clip-path="url(#clip570)" d="M 0 0 M10.061 329.177 L10.061 327.569 L14.9308 327.569 L14.9308 321.729 L10.061 321.729 L10.061 320.122 L21.941 320.122 L21.941 321.729 L16.2835 321.729 L16.2835 327.569 L21.941 327.569 L21.941 329.177 L10.061 329.177 Z" fill="#000000" fill-rule="evenodd" fill-opacity="1"></path><path clip-path="url(#clip570)" d="M 0 0 M14.0555 315.132 Q14.0555 316.31 14.9785 316.994 Q15.8936 317.679 17.493 317.679 Q19.0924 317.679 20.0154 317.002 Q20.9305 316.318 20.9305 315.132 Q20.9305 313.963 20.0075 313.278 Q19.0844 312.594 17.493 312.594 Q15.9095 312.594 14.9865 313.278 Q14.0555 313.963 14.0555 315.132 M12.8142 315.132 Q12.8142 313.223 14.0555 312.133 Q15.2968 311.043 17.493 311.043 Q19.6812 311.043 20.9305 312.133 Q22.1718 313.223 22.1718 315.132 Q22.1718 317.05 20.9305 318.14 Q19.6812 319.222 17.493 319.222 Q15.2968 319.222 14.0555 318.14 Q12.8142 317.05 12.8142 315.132 Z" fill="#000000" fill-rule="evenodd" fill-opacity="1"></path><path clip-path="url(#clip570)" d="M 0 0 M14.3977 304.343 Q14.2544 304.589 14.1908 304.884 Q14.1192 305.17 14.1192 305.52 Q14.1192 306.762 14.9308 307.43 Q15.7345 308.09 17.2463 308.09 L21.941 308.09 L21.941 309.562 L13.0291 309.562 L13.0291 308.09 L14.4136 308.09 Q13.602 307.629 13.2121 306.889 Q12.8142 306.149 12.8142 305.091 Q12.8142 304.939 12.8381 304.756 Q12.854 304.573 12.8938 304.351 L14.3977 304.343 Z" fill="#000000" fill-rule="evenodd" fill-opacity="1"></path><path clip-path="url(#clip570)" d="M 0 0 M13.0291 302.807 L13.0291 301.343 L21.941 301.343 L21.941 302.807 L13.0291 302.807 M9.55974 302.807 L9.55974 301.343 L11.4138 301.343 L11.4138 302.807 L9.55974 302.807 Z" fill="#000000" fill-rule="evenodd" fill-opacity="1"></path><path clip-path="url(#clip570)" d="M 0 0 M13.0291 300.444 L13.0291 293.489 L14.3658 293.489 L20.7713 298.995 L20.7713 293.489 L21.941 293.489 L21.941 300.643 L20.6042 300.643 L14.1987 295.136 L14.1987 300.444 L13.0291 300.444 Z" fill="#000000" fill-rule="evenodd" fill-opacity="1"></path><path clip-path="url(#clip570)" d="M 0 0 M14.0555 288.5 Q14.0555 289.678 14.9785 290.362 Q15.8936 291.046 17.493 291.046 Q19.0924 291.046 20.0154 290.37 Q20.9305 289.686 20.9305 288.5 Q20.9305 287.33 20.0075 286.646 Q19.0844 285.962 17.493 285.962 Q15.9095 285.962 14.9865 286.646 Q14.0555 287.33 14.0555 288.5 M12.8142 288.5 Q12.8142 286.59 14.0555 285.5 Q15.2968 284.41 17.493 284.41 Q19.6812 284.41 20.9305 285.5 Q22.1718 286.59 22.1718 288.5 Q22.1718 290.418 20.9305 291.508 Q19.6812 292.59 17.493 292.59 Q15.2968 292.59 14.0555 291.508 Q12.8142 290.418 12.8142 288.5 Z" fill="#000000" fill-rule="evenodd" fill-opacity="1"></path><path clip-path="url(#clip570)" d="M 0 0 M16.562 275.466 L21.941 275.466 L21.941 276.93 L16.6098 276.93 Q15.3446 276.93 14.716 277.424 Q14.0873 277.917 14.0873 278.904 Q14.0873 280.089 14.8433 280.774 Q15.5992 281.458 16.9042 281.458 L21.941 281.458 L21.941 282.93 L13.0291 282.93 L13.0291 281.458 L14.4136 281.458 Q13.6099 280.933 13.2121 280.225 Q12.8142 279.508 12.8142 278.577 Q12.8142 277.042 13.7691 276.254 Q14.716 275.466 16.562 275.466 Z" fill="#000000" fill-rule="evenodd" fill-opacity="1"></path><path clip-path="url(#clip570)" d="M 0 0 M125.499 3.024 L127.544 3.024 L127.544 18.144 L125.499 18.144 L125.499 3.024 Z" fill="#000000" fill-rule="evenodd" fill-opacity="1"></path><path clip-path="url(#clip570)" d="M 0 0 M138.33 8.97883 Q139.029 7.72305 140.001 7.12554 Q140.973 6.52803 142.29 6.52803 Q144.062 6.52803 145.024 7.77369 Q145.986 9.00921 145.986 11.298 L145.986 18.144 L144.113 18.144 L144.113 11.3587 Q144.113 9.72825 143.535 8.93832 Q142.958 8.14839 141.773 8.14839 Q140.325 8.14839 139.484 9.11048 Q138.644 10.0726 138.644 11.7334 L138.644 18.144 L136.77 18.144 L136.77 11.3587 Q136.77 9.71812 136.193 8.93832 Q135.616 8.14839 134.411 8.14839 Q132.983 8.14839 132.142 9.12061 Q131.302 10.0827 131.302 11.7334 L131.302 18.144 L129.428 18.144 L129.428 6.80147 L131.302 6.80147 L131.302 8.56361 Q131.94 7.5205 132.831 7.02427 Q133.722 6.52803 134.947 6.52803 Q136.183 6.52803 137.044 7.15592 Q137.915 7.78381 138.33 8.97883 Z" fill="#000000" fill-rule="evenodd" fill-opacity="1"></path><path clip-path="url(#clip570)" d="M 0 0 M149.743 16.4426 L149.743 22.4582 L147.87 22.4582 L147.87 6.80147 L149.743 6.80147 L149.743 8.5231 Q150.331 7.51038 151.222 7.02427 Q152.123 6.52803 153.369 6.52803 Q155.435 6.52803 156.721 8.16865 Q158.017 9.80926 158.017 12.4829 Q158.017 15.1565 156.721 16.7971 Q155.435 18.4377 153.369 18.4377 Q152.123 18.4377 151.222 17.9516 Q150.331 17.4553 149.743 16.4426 M156.083 12.4829 Q156.083 10.427 155.232 9.26239 Q154.392 8.08763 152.913 8.08763 Q151.435 8.08763 150.584 9.26239 Q149.743 10.427 149.743 12.4829 Q149.743 14.5387 150.584 15.7135 Q151.435 16.8781 152.913 16.8781 Q154.392 16.8781 155.232 15.7135 Q156.083 14.5387 156.083 12.4829 Z" fill="#000000" fill-rule="evenodd" fill-opacity="1"></path><path clip-path="url(#clip570)" d="M 0 0 M159.779 13.6678 L159.779 6.80147 L161.643 6.80147 L161.643 13.5969 Q161.643 15.2071 162.271 16.0173 Q162.899 16.8173 164.154 16.8173 Q165.663 16.8173 166.534 15.8552 Q167.415 14.8931 167.415 13.2323 L167.415 6.80147 L169.279 6.80147 L169.279 18.144 L167.415 18.144 L167.415 16.4021 Q166.737 17.4351 165.836 17.9415 Q164.944 18.4377 163.759 18.4377 Q161.805 18.4377 160.792 17.2224 Q159.779 16.0071 159.779 13.6678 M164.468 6.52803 L164.468 6.52803 Z" fill="#000000" fill-rule="evenodd" fill-opacity="1"></path><path clip-path="url(#clip570)" d="M 0 0 M171.233 2.38598 L173.097 2.38598 L173.097 18.144 L171.233 18.144 L171.233 2.38598 Z" fill="#000000" fill-rule="evenodd" fill-opacity="1"></path><path clip-path="url(#clip570)" d="M 0 0 M182.282 7.13567 L182.282 8.89781 Q181.492 8.49272 180.642 8.29018 Q179.791 8.08763 178.879 8.08763 Q177.492 8.08763 176.793 8.51298 Q176.105 8.93832 176.105 9.78901 Q176.105 10.4372 176.601 10.8119 Q177.097 11.1764 178.596 11.5106 L179.234 11.6524 Q181.219 12.0778 182.049 12.8576 Q182.89 13.6272 182.89 15.0147 Q182.89 16.5945 181.634 17.5161 Q180.388 18.4377 178.201 18.4377 Q177.289 18.4377 176.297 18.2554 Q175.315 18.0832 174.221 17.7288 L174.221 15.8046 Q175.254 16.3413 176.256 16.6148 Q177.259 16.8781 178.241 16.8781 Q179.558 16.8781 180.267 16.4325 Q180.976 15.9768 180.976 15.1565 Q180.976 14.3969 180.459 13.9918 Q179.953 13.5867 178.221 13.212 L177.573 13.0601 Q175.841 12.6955 175.072 11.9461 Q174.302 11.1866 174.302 9.87003 Q174.302 8.26992 175.436 7.39898 Q176.57 6.52803 178.657 6.52803 Q179.69 6.52803 180.601 6.67994 Q181.513 6.83185 182.282 7.13567 Z" fill="#000000" fill-rule="evenodd" fill-opacity="1"></path><path clip-path="url(#clip570)" d="M 0 0 M194.546 12.0069 L194.546 12.9183 L185.979 12.9183 Q186.1 14.8425 187.133 15.8552 Q188.176 16.8578 190.03 16.8578 Q191.103 16.8578 192.106 16.5945 Q193.118 16.3312 194.111 15.8046 L194.111 17.5667 Q193.108 17.9921 192.055 18.2149 Q191.002 18.4377 189.918 18.4377 Q187.204 18.4377 185.614 16.8578 Q184.034 15.278 184.034 12.5841 Q184.034 9.79914 185.533 8.16865 Q187.042 6.52803 189.594 6.52803 Q191.883 6.52803 193.209 8.00661 Q194.546 9.47506 194.546 12.0069 M192.683 11.46 Q192.663 9.93079 191.822 9.01934 Q190.992 8.10788 189.614 8.10788 Q188.055 8.10788 187.113 8.98896 Q186.181 9.87003 186.039 11.4701 L192.683 11.46 Z" fill="#000000" fill-rule="evenodd" fill-opacity="1"></path><path clip-path="url(#clip570)" d="M 0 0 M210.345 11.0549 Q211.003 11.2777 211.621 12.0069 Q212.249 12.736 212.877 14.0121 L214.953 18.144 L212.755 18.144 L210.821 14.2653 Q210.071 12.7462 209.362 12.2499 Q208.664 11.7537 207.448 11.7537 L205.22 11.7537 L205.22 18.144 L203.175 18.144 L203.175 3.024 L207.793 3.024 Q210.385 3.024 211.661 4.10762 Q212.937 5.19123 212.937 7.37872 Q212.937 8.80667 212.269 9.7485 Q211.611 10.6903 210.345 11.0549 M205.22 4.70513 L205.22 10.0726 L207.793 10.0726 Q209.271 10.0726 210.021 9.39405 Q210.78 8.70539 210.78 7.37872 Q210.78 6.05205 210.021 5.38365 Q209.271 4.70513 207.793 4.70513 L205.22 4.70513 Z" fill="#000000" fill-rule="evenodd" fill-opacity="1"></path><path clip-path="url(#clip570)" d="M 0 0 M225.677 12.0069 L225.677 12.9183 L217.11 12.9183 Q217.231 14.8425 218.264 15.8552 Q219.307 16.8578 221.161 16.8578 Q222.234 16.8578 223.237 16.5945 Q224.25 16.3312 225.242 15.8046 L225.242 17.5667 Q224.239 17.9921 223.186 18.2149 Q222.133 18.4377 221.049 18.4377 Q218.335 18.4377 216.745 16.8578 Q215.165 15.278 215.165 12.5841 Q215.165 9.79914 216.664 8.16865 Q218.173 6.52803 220.725 6.52803 Q223.014 6.52803 224.341 8.00661 Q225.677 9.47506 225.677 12.0069 M223.814 11.46 Q223.794 9.93079 222.953 9.01934 Q222.123 8.10788 220.746 8.10788 Q219.186 8.10788 218.244 8.98896 Q217.312 9.87003 217.171 11.4701 L223.814 11.46 Z" fill="#000000" fill-rule="evenodd" fill-opacity="1"></path><path clip-path="url(#clip570)" d="M 0 0 M234.863 7.13567 L234.863 8.89781 Q234.073 8.49272 233.222 8.29018 Q232.372 8.08763 231.46 8.08763 Q230.073 8.08763 229.374 8.51298 Q228.685 8.93832 228.685 9.78901 Q228.685 10.4372 229.182 10.8119 Q229.678 11.1764 231.177 11.5106 L231.815 11.6524 Q233.8 12.0778 234.63 12.8576 Q235.471 13.6272 235.471 15.0147 Q235.471 16.5945 234.215 17.5161 Q232.969 18.4377 230.782 18.4377 Q229.87 18.4377 228.878 18.2554 Q227.895 18.0832 226.802 17.7288 L226.802 15.8046 Q227.835 16.3413 228.837 16.6148 Q229.84 16.8781 230.822 16.8781 Q232.139 16.8781 232.848 16.4325 Q233.557 15.9768 233.557 15.1565 Q233.557 14.3969 233.04 13.9918 Q232.534 13.5867 230.802 13.212 L230.154 13.0601 Q228.422 12.6955 227.652 11.9461 Q226.883 11.1866 226.883 9.87003 Q226.883 8.26992 228.017 7.39898 Q229.151 6.52803 231.237 6.52803 Q232.27 6.52803 233.182 6.67994 Q234.093 6.83185 234.863 7.13567 Z" fill="#000000" fill-rule="evenodd" fill-opacity="1"></path><path clip-path="url(#clip570)" d="M 0 0 M239.228 16.4426 L239.228 22.4582 L237.354 22.4582 L237.354 6.80147 L239.228 6.80147 L239.228 8.5231 Q239.815 7.51038 240.706 7.02427 Q241.608 6.52803 242.853 6.52803 Q244.919 6.52803 246.205 8.16865 Q247.502 9.80926 247.502 12.4829 Q247.502 15.1565 246.205 16.7971 Q244.919 18.4377 242.853 18.4377 Q241.608 18.4377 240.706 17.9516 Q239.815 17.4553 239.228 16.4426 M245.567 12.4829 Q245.567 10.427 244.717 9.26239 Q243.876 8.08763 242.398 8.08763 Q240.919 8.08763 240.068 9.26239 Q239.228 10.427 239.228 12.4829 Q239.228 14.5387 240.068 15.7135 Q240.919 16.8781 242.398 16.8781 Q243.876 16.8781 244.717 15.7135 Q245.567 14.5387 245.567 12.4829 Z" fill="#000000" fill-rule="evenodd" fill-opacity="1"></path><path clip-path="url(#clip570)" d="M 0 0 M253.852 8.10788 Q252.353 8.10788 251.482 9.28265 Q250.611 10.4473 250.611 12.4829 Q250.611 14.5184 251.472 15.6932 Q252.343 16.8578 253.852 16.8578 Q255.34 16.8578 256.211 15.6831 Q257.082 14.5083 257.082 12.4829 Q257.082 10.4675 256.211 9.29277 Q255.34 8.10788 253.852 8.10788 M253.852 6.52803 Q256.282 6.52803 257.67 8.10788 Q259.057 9.68774 259.057 12.4829 Q259.057 15.2679 257.67 16.8578 Q256.282 18.4377 253.852 18.4377 Q251.411 18.4377 250.023 16.8578 Q248.646 15.2679 248.646 12.4829 Q248.646 9.68774 250.023 8.10788 Q251.411 6.52803 253.852 6.52803 Z" fill="#000000" fill-rule="evenodd" fill-opacity="1"></path><path clip-path="url(#clip570)" d="M 0 0 M270.44 11.298 L270.44 18.144 L268.577 18.144 L268.577 11.3587 Q268.577 9.7485 267.949 8.94845 Q267.321 8.14839 266.065 8.14839 Q264.556 8.14839 263.685 9.11048 Q262.814 10.0726 262.814 11.7334 L262.814 18.144 L260.941 18.144 L260.941 6.80147 L262.814 6.80147 L262.814 8.56361 Q263.483 7.54076 264.384 7.0344 Q265.295 6.52803 266.48 6.52803 Q268.435 6.52803 269.437 7.7433 Q270.44 8.94845 270.44 11.298 Z" fill="#000000" fill-rule="evenodd" fill-opacity="1"></path><path clip-path="url(#clip570)" d="M 0 0 M279.625 7.13567 L279.625 8.89781 Q278.835 8.49272 277.985 8.29018 Q277.134 8.08763 276.223 8.08763 Q274.835 8.08763 274.136 8.51298 Q273.448 8.93832 273.448 9.78901 Q273.448 10.4372 273.944 10.8119 Q274.44 11.1764 275.939 11.5106 L276.577 11.6524 Q278.562 12.0778 279.392 12.8576 Q280.233 13.6272 280.233 15.0147 Q280.233 16.5945 278.977 17.5161 Q277.732 18.4377 275.544 18.4377 Q274.633 18.4377 273.64 18.2554 Q272.658 18.0832 271.564 17.7288 L271.564 15.8046 Q272.597 16.3413 273.6 16.6148 Q274.602 16.8781 275.585 16.8781 Q276.901 16.8781 277.61 16.4325 Q278.319 15.9768 278.319 15.1565 Q278.319 14.3969 277.803 13.9918 Q277.296 13.5867 275.564 13.212 L274.916 13.0601 Q273.184 12.6955 272.415 11.9461 Q271.645 11.1866 271.645 9.87003 Q271.645 8.26992 272.779 7.39898 Q273.914 6.52803 276 6.52803 Q277.033 6.52803 277.944 6.67994 Q278.856 6.83185 279.625 7.13567 Z" fill="#000000" fill-rule="evenodd" fill-opacity="1"></path><path clip-path="url(#clip570)" d="M 0 0 M291.89 12.0069 L291.89 12.9183 L283.322 12.9183 Q283.443 14.8425 284.476 15.8552 Q285.519 16.8578 287.373 16.8578 Q288.446 16.8578 289.449 16.5945 Q290.462 16.3312 291.454 15.8046 L291.454 17.5667 Q290.451 17.9921 289.398 18.2149 Q288.345 18.4377 287.261 18.4377 Q284.547 18.4377 282.957 16.8578 Q281.377 15.278 281.377 12.5841 Q281.377 9.79914 282.876 8.16865 Q284.385 6.52803 286.937 6.52803 Q289.226 6.52803 290.553 8.00661 Q291.89 9.47506 291.89 12.0069 M290.026 11.46 Q290.006 9.93079 289.165 9.01934 Q288.335 8.10788 286.958 8.10788 Q285.398 8.10788 284.456 8.98896 Q283.524 9.87003 283.383 11.4701 L290.026 11.46 Z" fill="#000000" fill-rule="evenodd" fill-opacity="1"></path><path clip-path="url(#clip570)" d="M 0 0 M300.518 3.024 L309.207 3.024 L309.207 4.74563 L302.564 4.74563 L302.564 9.20163 L308.559 9.20163 L308.559 10.9233 L302.564 10.9233 L302.564 18.144 L300.518 18.144 L300.518 3.024 Z" fill="#000000" fill-rule="evenodd" fill-opacity="1"></path><path clip-path="url(#clip570)" d="M 0 0 M309.835 13.6678 L309.835 6.80147 L311.698 6.80147 L311.698 13.5969 Q311.698 15.2071 312.326 16.0173 Q312.954 16.8173 314.21 16.8173 Q315.719 16.8173 316.59 15.8552 Q317.471 14.8931 317.471 13.2323 L317.471 6.80147 L319.334 6.80147 L319.334 18.144 L317.471 18.144 L317.471 16.4021 Q316.792 17.4351 315.891 17.9415 Q315 18.4377 313.815 18.4377 Q311.86 18.4377 310.848 17.2224 Q309.835 16.0071 309.835 13.6678 M314.524 6.52803 L314.524 6.52803 Z" fill="#000000" fill-rule="evenodd" fill-opacity="1"></path><path clip-path="url(#clip570)" d="M 0 0 M330.717 11.298 L330.717 18.144 L328.854 18.144 L328.854 11.3587 Q328.854 9.7485 328.226 8.94845 Q327.598 8.14839 326.342 8.14839 Q324.834 8.14839 323.963 9.11048 Q323.092 10.0726 323.092 11.7334 L323.092 18.144 L321.218 18.144 L321.218 6.80147 L323.092 6.80147 L323.092 8.56361 Q323.76 7.54076 324.661 7.0344 Q325.573 6.52803 326.758 6.52803 Q328.712 6.52803 329.715 7.7433 Q330.717 8.94845 330.717 11.298 Z" fill="#000000" fill-rule="evenodd" fill-opacity="1"></path><path clip-path="url(#clip570)" d="M 0 0 M340.835 7.23694 L340.835 8.97883 Q340.045 8.54336 339.245 8.33068 Q338.455 8.10788 337.644 8.10788 Q335.832 8.10788 334.829 9.26239 Q333.827 10.4068 333.827 12.4829 Q333.827 14.5589 334.829 15.7135 Q335.832 16.8578 337.644 16.8578 Q338.455 16.8578 339.245 16.6452 Q340.045 16.4224 340.835 15.9869 L340.835 17.7085 Q340.055 18.0731 339.214 18.2554 Q338.384 18.4377 337.442 18.4377 Q334.88 18.4377 333.371 16.8275 Q331.862 15.2172 331.862 12.4829 Q331.862 9.70799 333.381 8.11801 Q334.91 6.52803 337.563 6.52803 Q338.424 6.52803 339.245 6.71032 Q340.065 6.88249 340.835 7.23694 Z" fill="#000000" fill-rule="evenodd" fill-opacity="1"></path><path clip-path="url(#clip570)" d="M 0 0 M344.632 3.581 L344.632 6.80147 L348.471 6.80147 L348.471 8.24967 L344.632 8.24967 L344.632 14.407 Q344.632 15.7945 345.007 16.1894 Q345.392 16.5844 346.556 16.5844 L348.471 16.5844 L348.471 18.144 L346.556 18.144 Q344.399 18.144 343.579 17.3439 Q342.759 16.5338 342.759 14.407 L342.759 8.24967 L341.392 8.24967 L341.392 6.80147 L342.759 6.80147 L342.759 3.581 L344.632 3.581 Z" fill="#000000" fill-rule="evenodd" fill-opacity="1"></path><path clip-path="url(#clip570)" d="M 0 0 M350.425 6.80147 L352.289 6.80147 L352.289 18.144 L350.425 18.144 L350.425 6.80147 M350.425 2.38598 L352.289 2.38598 L352.289 4.74563 L350.425 4.74563 L350.425 2.38598 Z" fill="#000000" fill-rule="evenodd" fill-opacity="1"></path><path clip-path="url(#clip570)" d="M 0 0 M358.638 8.10788 Q357.139 8.10788 356.269 9.28265 Q355.398 10.4473 355.398 12.4829 Q355.398 14.5184 356.258 15.6932 Q357.129 16.8578 358.638 16.8578 Q360.127 16.8578 360.998 15.6831 Q361.869 14.5083 361.869 12.4829 Q361.869 10.4675 360.998 9.29277 Q360.127 8.10788 358.638 8.10788 M358.638 6.52803 Q361.069 6.52803 362.456 8.10788 Q363.844 9.68774 363.844 12.4829 Q363.844 15.2679 362.456 16.8578 Q361.069 18.4377 358.638 18.4377 Q356.198 18.4377 354.81 16.8578 Q353.433 15.2679 353.433 12.4829 Q353.433 9.68774 354.81 8.10788 Q356.198 6.52803 358.638 6.52803 Z" fill="#000000" fill-rule="evenodd" fill-opacity="1"></path><path clip-path="url(#clip570)" d="M 0 0 M375.227 11.298 L375.227 18.144 L373.363 18.144 L373.363 11.3587 Q373.363 9.7485 372.735 8.94845 Q372.108 8.14839 370.852 8.14839 Q369.343 8.14839 368.472 9.11048 Q367.601 10.0726 367.601 11.7334 L367.601 18.144 L365.727 18.144 L365.727 6.80147 L367.601 6.80147 L367.601 8.56361 Q368.269 7.54076 369.171 7.0344 Q370.082 6.52803 371.267 6.52803 Q373.222 6.52803 374.224 7.7433 Q375.227 8.94845 375.227 11.298 Z" fill="#000000" fill-rule="evenodd" fill-opacity="1"></path><path clip-path="url(#clip570)" d="M 0 0 M388.169 8.10788 Q386.671 8.10788 385.8 9.28265 Q384.929 10.4473 384.929 12.4829 Q384.929 14.5184 385.789 15.6932 Q386.66 16.8578 388.169 16.8578 Q389.658 16.8578 390.529 15.6831 Q391.4 14.5083 391.4 12.4829 Q391.4 10.4675 390.529 9.29277 Q389.658 8.10788 388.169 8.10788 M388.169 6.52803 Q390.6 6.52803 391.987 8.10788 Q393.375 9.68774 393.375 12.4829 Q393.375 15.2679 391.987 16.8578 Q390.6 18.4377 388.169 18.4377 Q385.729 18.4377 384.341 16.8578 Q382.964 15.2679 382.964 12.4829 Q382.964 9.68774 384.341 8.10788 Q385.729 6.52803 388.169 6.52803 Z" fill="#000000" fill-rule="evenodd" fill-opacity="1"></path><path clip-path="url(#clip570)" d="M 0 0 M401.072 2.38598 L401.072 3.93545 L399.289 3.93545 Q398.287 3.93545 397.892 4.34054 Q397.507 4.74563 397.507 5.79887 L397.507 6.80147 L400.575 6.80147 L400.575 8.24967 L397.507 8.24967 L397.507 18.144 L395.633 18.144 L395.633 8.24967 L393.851 8.24967 L393.851 6.80147 L395.633 6.80147 L395.633 6.01154 Q395.633 4.11774 396.514 3.25693 Q397.395 2.38598 399.309 2.38598 L401.072 2.38598 Z" fill="#000000" fill-rule="evenodd" fill-opacity="1"></path><path clip-path="url(#clip570)" d="M 0 0 M411.422 16.4426 L411.422 22.4582 L409.548 22.4582 L409.548 6.80147 L411.422 6.80147 L411.422 8.5231 Q412.009 7.51038 412.9 7.02427 Q413.801 6.52803 415.047 6.52803 Q417.113 6.52803 418.399 8.16865 Q419.696 9.80926 419.696 12.4829 Q419.696 15.1565 418.399 16.7971 Q417.113 18.4377 415.047 18.4377 Q413.801 18.4377 412.9 17.9516 Q412.009 17.4553 411.422 16.4426 M417.761 12.4829 Q417.761 10.427 416.911 9.26239 Q416.07 8.08763 414.591 8.08763 Q413.113 8.08763 412.262 9.26239 Q411.422 10.427 411.422 12.4829 Q411.422 14.5387 412.262 15.7135 Q413.113 16.8781 414.591 16.8781 Q416.07 16.8781 416.911 15.7135 Q417.761 14.5387 417.761 12.4829 Z" fill="#000000" fill-rule="evenodd" fill-opacity="1"></path><path clip-path="url(#clip570)" d="M 0 0 M426.045 8.10788 Q424.547 8.10788 423.676 9.28265 Q422.805 10.4473 422.805 12.4829 Q422.805 14.5184 423.665 15.6932 Q424.536 16.8578 426.045 16.8578 Q427.534 16.8578 428.405 15.6831 Q429.276 14.5083 429.276 12.4829 Q429.276 10.4675 428.405 9.29277 Q427.534 8.10788 426.045 8.10788 M426.045 6.52803 Q428.476 6.52803 429.863 8.10788 Q431.251 9.68774 431.251 12.4829 Q431.251 15.2679 429.863 16.8578 Q428.476 18.4377 426.045 18.4377 Q423.605 18.4377 422.217 16.8578 Q420.84 15.2679 420.84 12.4829 Q420.84 9.68774 422.217 8.10788 Q423.605 6.52803 426.045 6.52803 Z" fill="#000000" fill-rule="evenodd" fill-opacity="1"></path><path clip-path="url(#clip570)" d="M 0 0 M433.205 2.38598 L435.069 2.38598 L435.069 18.144 L433.205 18.144 L433.205 2.38598 Z" fill="#000000" fill-rule="evenodd" fill-opacity="1"></path><path clip-path="url(#clip570)" d="M 0 0 M437.023 6.80147 L438.887 6.80147 L438.887 18.144 L437.023 18.144 L437.023 6.80147 M437.023 2.38598 L438.887 2.38598 L438.887 4.74563 L437.023 4.74563 L437.023 2.38598 Z" fill="#000000" fill-rule="evenodd" fill-opacity="1"></path><path clip-path="url(#clip570)" d="M 0 0 M449.004 7.23694 L449.004 8.97883 Q448.214 8.54336 447.414 8.33068 Q446.624 8.10788 445.814 8.10788 Q444.001 8.10788 442.998 9.26239 Q441.996 10.4068 441.996 12.4829 Q441.996 14.5589 442.998 15.7135 Q444.001 16.8578 445.814 16.8578 Q446.624 16.8578 447.414 16.6452 Q448.214 16.4224 449.004 15.9869 L449.004 17.7085 Q448.224 18.0731 447.383 18.2554 Q446.553 18.4377 445.611 18.4377 Q443.049 18.4377 441.54 16.8275 Q440.031 15.2172 440.031 12.4829 Q440.031 9.70799 441.55 8.11801 Q443.079 6.52803 445.733 6.52803 Q446.594 6.52803 447.414 6.71032 Q448.234 6.88249 449.004 7.23694 Z" fill="#000000" fill-rule="evenodd" fill-opacity="1"></path><path clip-path="url(#clip570)" d="M 0 0 M455.678 19.1972 Q454.888 21.2227 454.138 21.8405 Q453.389 22.4582 452.133 22.4582 L450.644 22.4582 L450.644 20.8986 L451.738 20.8986 Q452.508 20.8986 452.933 20.534 Q453.359 20.1695 453.875 18.8124 L454.209 17.9617 L449.622 6.80147 L451.596 6.80147 L455.141 15.6729 L458.686 6.80147 L460.66 6.80147 L455.678 19.1972 Z" fill="#000000" fill-rule="evenodd" fill-opacity="1"></path><path clip-path="url(#clip570)" d="M 0 0 M475.78 8.54336 Q475.466 8.36107 475.092 8.28005 Q474.727 8.1889 474.281 8.1889 Q472.702 8.1889 471.851 9.22188 Q471.01 10.2447 471.01 12.1689 L471.01 18.144 L469.137 18.144 L469.137 6.80147 L471.01 6.80147 L471.01 8.56361 Q471.598 7.53063 472.54 7.0344 Q473.481 6.52803 474.828 6.52803 Q475.021 6.52803 475.254 6.55841 Q475.487 6.57867 475.77 6.6293 L475.78 8.54336 Z" fill="#000000" fill-rule="evenodd" fill-opacity="1"></path><path clip-path="url(#clip570)" d="M 0 0 M482.89 12.4424 Q480.631 12.4424 479.76 12.9588 Q478.889 13.4753 478.889 14.721 Q478.889 15.7135 479.538 16.3008 Q480.196 16.8781 481.32 16.8781 Q482.869 16.8781 483.801 15.7843 Q484.743 14.6805 484.743 12.8576 L484.743 12.4424 L482.89 12.4424 M486.606 11.6727 L486.606 18.144 L484.743 18.144 L484.743 16.4224 Q484.105 17.4553 483.153 17.9516 Q482.201 18.4377 480.824 18.4377 Q479.082 18.4377 478.049 17.4655 Q477.026 16.4831 477.026 14.8425 Q477.026 12.9285 478.302 11.9562 Q479.588 10.984 482.13 10.984 L484.743 10.984 L484.743 10.8017 Q484.743 9.51557 483.892 8.81679 Q483.052 8.10788 481.522 8.10788 Q480.55 8.10788 479.629 8.34081 Q478.707 8.57374 477.856 9.03959 L477.856 7.31796 Q478.879 6.923 479.841 6.73058 Q480.803 6.52803 481.715 6.52803 Q484.176 6.52803 485.391 7.80407 Q486.606 9.0801 486.606 11.6727 Z" fill="#000000" fill-rule="evenodd" fill-opacity="1"></path><path clip-path="url(#clip570)" d="M 0 0 M490.404 3.581 L490.404 6.80147 L494.242 6.80147 L494.242 8.24967 L490.404 8.24967 L490.404 14.407 Q490.404 15.7945 490.779 16.1894 Q491.164 16.5844 492.328 16.5844 L494.242 16.5844 L494.242 18.144 L492.328 18.144 Q490.171 18.144 489.351 17.3439 Q488.531 16.5338 488.531 14.407 L488.531 8.24967 L487.163 8.24967 L487.163 6.80147 L488.531 6.80147 L488.531 3.581 L490.404 3.581 Z" fill="#000000" fill-rule="evenodd" fill-opacity="1"></path><path clip-path="url(#clip570)" d="M 0 0 M505.899 12.0069 L505.899 12.9183 L497.331 12.9183 Q497.453 14.8425 498.486 15.8552 Q499.529 16.8578 501.382 16.8578 Q502.456 16.8578 503.458 16.5945 Q504.471 16.3312 505.463 15.8046 L505.463 17.5667 Q504.461 17.9921 503.407 18.2149 Q502.354 18.4377 501.271 18.4377 Q498.557 18.4377 496.967 16.8578 Q495.387 15.278 495.387 12.5841 Q495.387 9.79914 496.886 8.16865 Q498.394 6.52803 500.947 6.52803 Q503.235 6.52803 504.562 8.00661 Q505.899 9.47506 505.899 12.0069 M504.035 11.46 Q504.015 9.93079 503.175 9.01934 Q502.344 8.10788 500.967 8.10788 Q499.407 8.10788 498.465 8.98896 Q497.534 9.87003 497.392 11.4701 L504.035 11.46 Z" fill="#000000" fill-rule="evenodd" fill-opacity="1"></path><path clip-path="url(#clip570)" d="M 0 0 M208.517 29.4815 L210.38 29.4815 L210.38 40.824 L208.517 40.824 L208.517 29.4815 M208.517 25.066 L210.38 25.066 L210.38 27.4256 L208.517 27.4256 L208.517 25.066 Z" fill="#000000" fill-rule="evenodd" fill-opacity="1"></path><path clip-path="url(#clip570)" d="M 0 0 M221.763 33.978 L221.763 40.824 L219.9 40.824 L219.9 34.0387 Q219.9 32.4285 219.272 31.6284 Q218.644 30.8284 217.388 30.8284 Q215.879 30.8284 215.008 31.7905 Q214.137 32.7526 214.137 34.4134 L214.137 40.824 L212.264 40.824 L212.264 29.4815 L214.137 29.4815 L214.137 31.2436 Q214.806 30.2208 215.707 29.7144 Q216.619 29.208 217.804 29.208 Q219.758 29.208 220.761 30.4233 Q221.763 31.6284 221.763 33.978 Z" fill="#000000" fill-rule="evenodd" fill-opacity="1"></path><path clip-path="url(#clip570)" d="M 0 0 M232.437 27.3851 L232.437 39.1429 L234.908 39.1429 Q238.038 39.1429 239.486 37.7251 Q240.944 36.3072 240.944 33.2488 Q240.944 30.2106 239.486 28.8029 Q238.038 27.3851 234.908 27.3851 L232.437 27.3851 M230.392 25.704 L234.595 25.704 Q238.99 25.704 241.046 27.537 Q243.101 29.3599 243.101 33.2488 Q243.101 37.1579 241.035 38.991 Q238.97 40.824 234.595 40.824 L230.392 40.824 L230.392 25.704 Z" fill="#000000" fill-rule="evenodd" fill-opacity="1"></path><path clip-path="url(#clip570)" d="M 0 0 M254.758 34.6869 L254.758 35.5983 L246.19 35.5983 Q246.312 37.5225 247.345 38.5352 Q248.388 39.5378 250.241 39.5378 Q251.315 39.5378 252.317 39.2745 Q253.33 39.0112 254.322 38.4846 L254.322 40.2467 Q253.32 40.6721 252.267 40.8949 Q251.213 41.1177 250.13 41.1177 Q247.416 41.1177 245.826 39.5378 Q244.246 37.958 244.246 35.2641 Q244.246 32.4791 245.745 30.8486 Q247.254 29.208 249.806 29.208 Q252.094 29.208 253.421 30.6866 Q254.758 32.1551 254.758 34.6869 M252.895 34.14 Q252.874 32.6108 252.034 31.6993 Q251.203 30.7879 249.826 30.7879 Q248.266 30.7879 247.325 31.669 Q246.393 32.55 246.251 34.1501 L252.895 34.14 Z" fill="#000000" fill-rule="evenodd" fill-opacity="1"></path><path clip-path="url(#clip570)" d="M 0 0 M256.712 25.066 L258.576 25.066 L258.576 40.824 L256.712 40.824 L256.712 25.066 Z" fill="#000000" fill-rule="evenodd" fill-opacity="1"></path><path clip-path="url(#clip570)" d="M 0 0 M267.204 25.704 L269.959 25.704 L276.663 38.3529 L276.663 25.704 L278.648 25.704 L278.648 40.824 L275.894 40.824 L269.189 28.1751 L269.189 40.824 L267.204 40.824 L267.204 25.704 Z" fill="#000000" fill-rule="evenodd" fill-opacity="1"></path><path clip-path="url(#clip570)" d="M 0 0 M290.305 34.6869 L290.305 35.5983 L281.737 35.5983 Q281.858 37.5225 282.891 38.5352 Q283.935 39.5378 285.788 39.5378 Q286.861 39.5378 287.864 39.2745 Q288.877 39.0112 289.869 38.4846 L289.869 40.2467 Q288.867 40.6721 287.813 40.8949 Q286.76 41.1177 285.676 41.1177 Q282.962 41.1177 281.372 39.5378 Q279.793 37.958 279.793 35.2641 Q279.793 32.4791 281.291 30.8486 Q282.8 29.208 285.352 29.208 Q287.641 29.208 288.968 30.6866 Q290.305 32.1551 290.305 34.6869 M288.441 34.14 Q288.421 32.6108 287.58 31.6993 Q286.75 30.7879 285.373 30.7879 Q283.813 30.7879 282.871 31.669 Q281.939 32.55 281.798 34.1501 L288.441 34.14 Z" fill="#000000" fill-rule="evenodd" fill-opacity="1"></path><path clip-path="url(#clip570)" d="M 0 0 M299.723 35.0211 Q299.723 32.9956 298.882 31.8816 Q298.052 30.7676 296.543 30.7676 Q295.044 30.7676 294.204 31.8816 Q293.373 32.9956 293.373 35.0211 Q293.373 37.0364 294.204 38.1504 Q295.044 39.2644 296.543 39.2644 Q298.052 39.2644 298.882 38.1504 Q299.723 37.0364 299.723 35.0211 M301.586 39.4163 Q301.586 42.3127 300.3 43.7204 Q299.014 45.1382 296.361 45.1382 Q295.378 45.1382 294.507 44.9863 Q293.636 44.8445 292.816 44.5407 L292.816 42.7279 Q293.636 43.1735 294.437 43.3862 Q295.237 43.5989 296.067 43.5989 Q297.9 43.5989 298.812 42.6368 Q299.723 41.6848 299.723 39.7505 L299.723 38.8289 Q299.146 39.8315 298.244 40.3278 Q297.343 40.824 296.087 40.824 Q294.001 40.824 292.725 39.234 Q291.449 37.644 291.449 35.0211 Q291.449 32.388 292.725 30.798 Q294.001 29.208 296.087 29.208 Q297.343 29.208 298.244 29.7043 Q299.146 30.2005 299.723 31.2031 L299.723 29.4815 L301.586 29.4815 L301.586 39.4163 Z" fill="#000000" fill-rule="evenodd" fill-opacity="1"></path><path clip-path="url(#clip570)" d="M 0 0 M310.114 31.2234 Q309.8 31.0411 309.425 30.96 Q309.06 30.8689 308.615 30.8689 Q307.035 30.8689 306.184 31.9019 Q305.344 32.9247 305.344 34.8489 L305.344 40.824 L303.47 40.824 L303.47 29.4815 L305.344 29.4815 L305.344 31.2436 Q305.931 30.2106 306.873 29.7144 Q307.815 29.208 309.162 29.208 Q309.354 29.208 309.587 29.2384 Q309.82 29.2587 310.103 29.3093 L310.114 31.2234 Z" fill="#000000" fill-rule="evenodd" fill-opacity="1"></path><path clip-path="url(#clip570)" d="M 0 0 M316.008 30.7879 Q314.509 30.7879 313.638 31.9626 Q312.767 33.1273 312.767 35.1629 Q312.767 37.1984 313.628 38.3732 Q314.499 39.5378 316.008 39.5378 Q317.496 39.5378 318.367 38.3631 Q319.238 37.1883 319.238 35.1629 Q319.238 33.1475 318.367 31.9728 Q317.496 30.7879 316.008 30.7879 M316.008 29.208 Q318.438 29.208 319.826 30.7879 Q321.213 32.3677 321.213 35.1629 Q321.213 37.9479 319.826 39.5378 Q318.438 41.1177 316.008 41.1177 Q313.567 41.1177 312.179 39.5378 Q310.802 37.9479 310.802 35.1629 Q310.802 32.3677 312.179 30.7879 Q313.567 29.208 316.008 29.208 Z" fill="#000000" fill-rule="evenodd" fill-opacity="1"></path><path clip-path="url(#clip570)" d="M 0 0 M339.462 34.6869 L339.462 35.5983 L330.895 35.5983 Q331.016 37.5225 332.049 38.5352 Q333.092 39.5378 334.946 39.5378 Q336.019 39.5378 337.022 39.2745 Q338.034 39.0112 339.027 38.4846 L339.027 40.2467 Q338.024 40.6721 336.971 40.8949 Q335.918 41.1177 334.834 41.1177 Q332.12 41.1177 330.53 39.5378 Q328.95 37.958 328.95 35.2641 Q328.95 32.4791 330.449 30.8486 Q331.958 29.208 334.51 29.208 Q336.799 29.208 338.126 30.6866 Q339.462 32.1551 339.462 34.6869 M337.599 34.14 Q337.579 32.6108 336.738 31.6993 Q335.908 30.7879 334.53 30.7879 Q332.971 30.7879 332.029 31.669 Q331.097 32.55 330.955 34.1501 L337.599 34.14 Z" fill="#000000" fill-rule="evenodd" fill-opacity="1"></path><path clip-path="url(#clip570)" d="M 0 0 M343.26 26.261 L343.26 29.4815 L347.098 29.4815 L347.098 30.9297 L343.26 30.9297 L343.26 37.087 Q343.26 38.4745 343.635 38.8694 Q344.02 39.2644 345.184 39.2644 L347.098 39.2644 L347.098 40.824 L345.184 40.824 Q343.027 40.824 342.207 40.0239 Q341.387 39.2138 341.387 37.087 L341.387 30.9297 L340.019 30.9297 L340.019 29.4815 L341.387 29.4815 L341.387 26.261 L343.26 26.261 Z" fill="#000000" fill-rule="evenodd" fill-opacity="1"></path><path clip-path="url(#clip570)" d="M 0 0 M360.8 35.1224 Q358.542 35.1224 357.671 35.6388 Q356.8 36.1553 356.8 37.401 Q356.8 38.3935 357.448 38.9808 Q358.107 39.5581 359.231 39.5581 Q360.78 39.5581 361.712 38.4643 Q362.654 37.3605 362.654 35.5376 L362.654 35.1224 L360.8 35.1224 M364.517 34.3527 L364.517 40.824 L362.654 40.824 L362.654 39.1024 Q362.016 40.1353 361.064 40.6316 Q360.112 41.1177 358.735 41.1177 Q356.993 41.1177 355.96 40.1455 Q354.937 39.1631 354.937 37.5225 Q354.937 35.6085 356.213 34.6362 Q357.499 33.664 360.041 33.664 L362.654 33.664 L362.654 33.4817 Q362.654 32.1956 361.803 31.4968 Q360.963 30.7879 359.433 30.7879 Q358.461 30.7879 357.539 31.0208 Q356.618 31.2537 355.767 31.7196 L355.767 29.998 Q356.79 29.603 357.752 29.4106 Q358.714 29.208 359.626 29.208 Q362.087 29.208 363.302 30.4841 Q364.517 31.7601 364.517 34.3527 Z" fill="#000000" fill-rule="evenodd" fill-opacity="1"></path><path clip-path="url(#clip570)" d="M 0 0 M366.472 25.066 L368.335 25.066 L368.335 40.824 L366.472 40.824 L366.472 25.066 Z" fill="#000000" fill-rule="evenodd" fill-opacity="1"></path><path clip-path="url(#clip570)" d="M 0 0 M370.553 38.2517 L372.69 38.2517 L372.69 40.824 L370.553 40.824 L370.553 38.2517 Z" fill="#000000" fill-rule="evenodd" fill-opacity="1"></path><path clip-path="url(#clip570)" d="M 0 0 M385.714 25.0862 Q384.356 27.4155 383.698 29.6941 Q383.04 31.9728 383.04 34.3122 Q383.04 36.6516 383.698 38.9505 Q384.367 41.2392 385.714 43.5584 L384.093 43.5584 Q382.574 41.1785 381.815 38.8796 Q381.065 36.5807 381.065 34.3122 Q381.065 32.0538 381.815 29.765 Q382.564 27.4763 384.093 25.0862 L385.714 25.0862 Z" fill="#000000" fill-rule="evenodd" fill-opacity="1"></path><path clip-path="url(#clip570)" d="M 0 0 M389.694 39.1024 L396.833 39.1024 L396.833 40.824 L387.233 40.824 L387.233 39.1024 Q388.397 37.8972 390.402 35.8718 Q392.418 33.8362 392.934 33.2488 Q393.917 32.1449 394.301 31.3854 Q394.696 30.6157 394.696 29.8764 Q394.696 28.6713 393.846 27.9117 Q393.005 27.1522 391.648 27.1522 Q390.686 27.1522 389.613 27.4864 Q388.549 27.8206 387.334 28.4991 L387.334 26.4332 Q388.569 25.9369 389.643 25.6837 Q390.716 25.4306 391.608 25.4306 Q393.957 25.4306 395.355 26.6053 Q396.752 27.7801 396.752 29.7448 Q396.752 30.6765 396.398 31.517 Q396.053 32.3475 395.132 33.4817 Q394.879 33.7754 393.522 35.1831 Q392.165 36.5807 389.694 39.1024 Z" fill="#000000" fill-rule="evenodd" fill-opacity="1"></path><path clip-path="url(#clip570)" d="M 0 0 M403.426 27.0509 Q401.846 27.0509 401.046 28.6105 Q400.256 30.16 400.256 33.2792 Q400.256 36.3883 401.046 37.9479 Q401.846 39.4973 403.426 39.4973 Q405.016 39.4973 405.806 37.9479 Q406.606 36.3883 406.606 33.2792 Q406.606 30.16 405.806 28.6105 Q405.016 27.0509 403.426 27.0509 M403.426 25.4306 Q405.968 25.4306 407.305 27.4459 Q408.652 29.4511 408.652 33.2792 Q408.652 37.0972 407.305 39.1125 Q405.968 41.1177 403.426 41.1177 Q400.884 41.1177 399.537 39.1125 Q398.2 37.0972 398.2 33.2792 Q398.2 29.4511 399.537 27.4459 Q400.884 25.4306 403.426 25.4306 Z" fill="#000000" fill-rule="evenodd" fill-opacity="1"></path><path clip-path="url(#clip570)" d="M 0 0 M411.224 39.1024 L414.566 39.1024 L414.566 27.5674 L410.93 28.2966 L410.93 26.4332 L414.546 25.704 L416.592 25.704 L416.592 39.1024 L419.934 39.1024 L419.934 40.824 L411.224 40.824 L411.224 39.1024 Z" fill="#000000" fill-rule="evenodd" fill-opacity="1"></path><path clip-path="url(#clip570)" d="M 0 0 M426.526 33.6438 Q425.068 33.6438 424.228 34.4236 Q423.397 35.2034 423.397 36.5706 Q423.397 37.9377 424.228 38.7175 Q425.068 39.4973 426.526 39.4973 Q427.985 39.4973 428.825 38.7175 Q429.666 37.9276 429.666 36.5706 Q429.666 35.2034 428.825 34.4236 Q427.995 33.6438 426.526 33.6438 M424.481 32.7728 Q423.164 32.4488 422.425 31.5474 Q421.696 30.6461 421.696 29.3498 Q421.696 27.537 422.982 26.4838 Q424.278 25.4306 426.526 25.4306 Q428.785 25.4306 430.071 26.4838 Q431.357 27.537 431.357 29.3498 Q431.357 30.6461 430.618 31.5474 Q429.889 32.4488 428.582 32.7728 Q430.061 33.1172 430.881 34.1198 Q431.712 35.1224 431.712 36.5706 Q431.712 38.7682 430.365 39.9429 Q429.028 41.1177 426.526 41.1177 Q424.025 41.1177 422.678 39.9429 Q421.341 38.7682 421.341 36.5706 Q421.341 35.1224 422.172 34.1198 Q423.002 33.1172 424.481 32.7728 M423.731 29.5422 Q423.731 30.717 424.46 31.3753 Q425.2 32.0335 426.526 32.0335 Q427.843 32.0335 428.582 31.3753 Q429.332 30.717 429.332 29.5422 Q429.332 28.3675 428.582 27.7092 Q427.843 27.0509 426.526 27.0509 Q425.2 27.0509 424.46 27.7092 Q423.731 28.3675 423.731 29.5422 Z" fill="#000000" fill-rule="evenodd" fill-opacity="1"></path><path clip-path="url(#clip570)" d="M 0 0 M433.372 25.0862 L434.993 25.0862 Q436.512 27.4763 437.261 29.765 Q438.021 32.0538 438.021 34.3122 Q438.021 36.5807 437.261 38.8796 Q436.512 41.1785 434.993 43.5584 L433.372 43.5584 Q434.719 41.2392 435.378 38.9505 Q436.046 36.6516 436.046 34.3122 Q436.046 31.9728 435.378 29.6941 Q434.719 27.4155 433.372 25.0862 Z" fill="#000000" fill-rule="evenodd" fill-opacity="1"></path><polyline clip-path="url(#clip572)" style="stroke:#ff0000; stroke-width:4; stroke-opacity:1; fill:none" points="
  65.0387,203.309 71.468,95.8506 77.8972,74.7616 84.3265,86.2196 90.7558,109.199 97.1851,135.664 103.614,162.604 110.044,188.913 116.473,214.197 122.902,238.323 
  129.331,261.249 135.761,282.962 142.19,303.465 148.619,322.762 155.049,340.863 161.478,357.784 167.907,373.545 174.336,388.172 180.766,401.697 187.195,414.156 
  193.624,425.59 200.054,436.043 206.483,445.562 212.912,454.199 219.341,462.003 225.771,469.029 232.2,475.328 238.629,480.954 245.058,485.957 251.488,490.389 
  257.917,494.3 264.346,497.735 270.776,500.741 277.205,503.36 283.634,505.633 290.063,507.598 296.493,509.291 302.922,510.743 309.351,511.986 315.781,513.047 
  322.21,513.952 328.639,514.723 335.068,515.381 341.498,515.945 347.927,516.43 354.356,516.853 360.785,517.224 367.215,517.556 373.644,517.857 380.073,518.136 
  386.503,518.4 392.932,518.654 399.361,518.903 405.79,519.15 412.22,519.399 418.649,519.652 425.078,519.91 431.507,520.173 437.937,520.444 444.366,520.721 
  450.795,521.004 457.225,521.294 463.654,521.589 470.083,521.888 476.512,522.191 482.942,522.496 489.371,522.802 495.8,523.109 502.23,523.414 508.659,523.718 
  515.088,524.019 521.517,524.316 527.947,524.607 534.376,524.893 540.805,525.173 547.234,525.445 553.664,525.709 560.093,525.965 566.522,526.212 572.952,526.45 
  
  "></polyline>
<polyline clip-path="url(#clip572)" style="stroke:#000000; stroke-width:2; stroke-opacity:1; fill:none" points="
  65.0387,529.881 71.468,529.881 77.8972,529.881 84.3265,529.881 90.7558,529.881 97.1851,529.881 103.614,529.881 110.044,529.881 116.473,529.881 122.902,529.881 
  129.331,529.881 135.761,529.881 142.19,529.881 148.619,529.881 155.049,529.881 161.478,529.881 167.907,529.881 174.336,529.881 180.766,529.881 187.195,529.881 
  193.624,529.881 200.054,529.881 206.483,529.881 212.912,529.881 219.341,529.881 225.771,529.881 232.2,529.881 238.629,529.881 245.058,529.881 251.488,529.881 
  257.917,529.881 264.346,529.881 270.776,529.881 277.205,529.881 283.634,529.881 290.063,529.881 296.493,529.881 302.922,529.881 309.351,529.881 315.781,529.881 
  322.21,529.881 328.639,529.881 335.068,529.881 341.498,529.881 347.927,529.881 354.356,529.881 360.785,529.881 367.215,529.881 373.644,529.881 380.073,529.881 
  386.503,529.881 392.932,529.881 399.361,529.881 405.79,529.881 412.22,529.881 418.649,529.881 425.078,529.881 431.507,529.881 437.937,529.881 444.366,529.881 
  450.795,529.881 457.225,529.881 463.654,529.881 470.083,529.881 476.512,529.881 482.942,529.881 489.371,529.881 495.8,529.881 502.23,529.881 508.659,529.881 
  515.088,529.881 521.517,529.881 527.947,529.881 534.376,529.881 540.805,529.881 547.234,529.881 553.664,529.881 560.093,529.881 566.522,529.881 572.952,529.881 
  
  "></polyline>
<path clip-path="url(#clip570)" d="
M261.407 107.429 L570.243 107.429 L570.243 77.1889 L261.407 77.1889  Z
  " fill="#ffffff" fill-rule="evenodd" fill-opacity="1"></path>
<polyline clip-path="url(#clip570)" style="stroke:#000000; stroke-width:1; stroke-opacity:1; fill:none" points="
  261.407,107.429 570.243,107.429 570.243,77.1889 261.407,77.1889 261.407,107.429 
  "></polyline>
<polyline clip-path="url(#clip570)" style="stroke:#ff0000; stroke-width:1; stroke-opacity:1; fill:none" points="
  267.389,92.3089 303.282,92.3089 
  "></polyline>
<path clip-path="url(#clip570)" d="M 0 0 M309.264 87.9889 L310.433 87.9889 L310.433 96.6289 L309.264 96.6289 L309.264 87.9889 Z" fill="#000000" fill-rule="evenodd" fill-opacity="1"></path><path clip-path="url(#clip570)" d="M 0 0 M315.693 92.578 Q316.069 92.7053 316.422 93.122 Q316.781 93.5387 317.14 94.2678 L318.326 96.6289 L317.07 96.6289 L315.965 94.4125 Q315.537 93.5445 315.132 93.2609 Q314.732 92.9773 314.038 92.9773 L312.765 92.9773 L312.765 96.6289 L311.596 96.6289 L311.596 87.9889 L314.235 87.9889 Q315.716 87.9889 316.445 88.6081 Q317.175 89.2273 317.175 90.4773 Q317.175 91.2933 316.793 91.8315 Q316.416 92.3697 315.693 92.578 M312.765 88.9496 L312.765 92.0167 L314.235 92.0167 Q315.08 92.0167 315.508 91.629 Q315.942 91.2354 315.942 90.4773 Q315.942 89.7192 315.508 89.3373 Q315.08 88.9496 314.235 88.9496 L312.765 88.9496 Z" fill="#000000" fill-rule="evenodd" fill-opacity="1"></path><path clip-path="url(#clip570)" d="M 0 0 M319.489 87.9889 L324.455 87.9889 L324.455 88.9727 L320.658 88.9727 L320.658 91.519 L324.084 91.519 L324.084 92.5028 L320.658 92.5028 L320.658 96.6289 L319.489 96.6289 L319.489 87.9889 Z" fill="#000000" fill-rule="evenodd" fill-opacity="1"></path><path clip-path="url(#clip570)" d="M 0 0 M331.85 90.894 Q330.994 90.894 330.496 91.5653 Q329.999 92.2308 329.999 93.394 Q329.999 94.5572 330.49 95.2285 Q330.988 95.894 331.85 95.894 Q332.701 95.894 333.199 95.2227 Q333.696 94.5514 333.696 93.394 Q333.696 92.2424 333.199 91.5711 Q332.701 90.894 331.85 90.894 M331.85 89.9912 Q333.239 89.9912 334.032 90.894 Q334.825 91.7968 334.825 93.394 Q334.825 94.9854 334.032 95.894 Q333.239 96.7968 331.85 96.7968 Q330.456 96.7968 329.663 95.894 Q328.876 94.9854 328.876 93.394 Q328.876 91.7968 329.663 90.894 Q330.456 89.9912 331.85 89.9912 Z" fill="#000000" fill-rule="evenodd" fill-opacity="1"></path><path clip-path="url(#clip570)" d="M 0 0 M339.223 87.6243 L339.223 88.5098 L338.204 88.5098 Q337.632 88.5098 337.406 88.7412 Q337.186 88.9727 337.186 89.5746 L337.186 90.1475 L338.939 90.1475 L338.939 90.975 L337.186 90.975 L337.186 96.6289 L336.115 96.6289 L336.115 90.975 L335.097 90.975 L335.097 90.1475 L336.115 90.1475 L336.115 89.6961 Q336.115 88.6139 336.619 88.122 Q337.122 87.6243 338.216 87.6243 L339.223 87.6243 Z" fill="#000000" fill-rule="evenodd" fill-opacity="1"></path><path clip-path="url(#clip570)" d="M 0 0 M345.137 95.6567 L345.137 99.0942 L344.067 99.0942 L344.067 90.1475 L345.137 90.1475 L345.137 91.1313 Q345.473 90.5526 345.982 90.2748 Q346.497 89.9912 347.209 89.9912 Q348.39 89.9912 349.125 90.9287 Q349.865 91.8662 349.865 93.394 Q349.865 94.9218 349.125 95.8593 Q348.39 96.7968 347.209 96.7968 Q346.497 96.7968 345.982 96.519 Q345.473 96.2354 345.137 95.6567 M348.76 93.394 Q348.76 92.2192 348.274 91.5537 Q347.794 90.8824 346.949 90.8824 Q346.104 90.8824 345.618 91.5537 Q345.137 92.2192 345.137 93.394 Q345.137 94.5688 345.618 95.24 Q346.104 95.9056 346.949 95.9056 Q347.794 95.9056 348.274 95.24 Q348.76 94.5688 348.76 93.394 Z" fill="#000000" fill-rule="evenodd" fill-opacity="1"></path><path clip-path="url(#clip570)" d="M 0 0 M353.494 90.894 Q352.637 90.894 352.14 91.5653 Q351.642 92.2308 351.642 93.394 Q351.642 94.5572 352.134 95.2285 Q352.632 95.894 353.494 95.894 Q354.344 95.894 354.842 95.2227 Q355.34 94.5514 355.34 93.394 Q355.34 92.2424 354.842 91.5711 Q354.344 90.894 353.494 90.894 M353.494 89.9912 Q354.883 89.9912 355.675 90.894 Q356.468 91.7968 356.468 93.394 Q356.468 94.9854 355.675 95.894 Q354.883 96.7968 353.494 96.7968 Q352.099 96.7968 351.306 95.894 Q350.519 94.9854 350.519 93.394 Q350.519 91.7968 351.306 90.894 Q352.099 89.9912 353.494 89.9912 Z" fill="#000000" fill-rule="evenodd" fill-opacity="1"></path><path clip-path="url(#clip570)" d="M 0 0 M357.585 87.6243 L358.65 87.6243 L358.65 96.6289 L357.585 96.6289 L357.585 87.6243 Z" fill="#000000" fill-rule="evenodd" fill-opacity="1"></path><path clip-path="url(#clip570)" d="M 0 0 M359.767 90.1475 L360.832 90.1475 L360.832 96.6289 L359.767 96.6289 L359.767 90.1475 M359.767 87.6243 L360.832 87.6243 L360.832 88.9727 L359.767 88.9727 L359.767 87.6243 Z" fill="#000000" fill-rule="evenodd" fill-opacity="1"></path><path clip-path="url(#clip570)" d="M 0 0 M366.613 90.3963 L366.613 91.3917 Q366.162 91.1428 365.704 91.0213 Q365.253 90.894 364.79 90.894 Q363.754 90.894 363.181 91.5537 Q362.608 92.2077 362.608 93.394 Q362.608 94.5803 363.181 95.24 Q363.754 95.894 364.79 95.894 Q365.253 95.894 365.704 95.7725 Q366.162 95.6451 366.613 95.3963 L366.613 96.3801 Q366.167 96.5884 365.687 96.6926 Q365.212 96.7968 364.674 96.7968 Q363.21 96.7968 362.348 95.8766 Q361.486 94.9565 361.486 93.394 Q361.486 91.8084 362.354 90.8998 Q363.228 89.9912 364.744 89.9912 Q365.236 89.9912 365.704 90.0954 Q366.173 90.1938 366.613 90.3963 Z" fill="#000000" fill-rule="evenodd" fill-opacity="1"></path><path clip-path="url(#clip570)" d="M 0 0 M370.427 97.2308 Q369.975 98.3882 369.547 98.7412 Q369.119 99.0942 368.401 99.0942 L367.55 99.0942 L367.55 98.203 L368.175 98.203 Q368.615 98.203 368.858 97.9947 Q369.101 97.7863 369.396 97.0109 L369.587 96.5248 L366.966 90.1475 L368.094 90.1475 L370.12 95.2169 L372.145 90.1475 L373.274 90.1475 L370.427 97.2308 Z" fill="#000000" fill-rule="evenodd" fill-opacity="1"></path><path clip-path="url(#clip570)" d="M 0 0 M381.914 91.1428 Q381.734 91.0387 381.52 90.9924 Q381.312 90.9403 381.057 90.9403 Q380.155 90.9403 379.668 91.5306 Q379.188 92.1151 379.188 93.2146 L379.188 96.6289 L378.117 96.6289 L378.117 90.1475 L379.188 90.1475 L379.188 91.1544 Q379.524 90.5641 380.062 90.2806 Q380.6 89.9912 381.37 89.9912 Q381.48 89.9912 381.613 90.0086 Q381.746 90.0202 381.908 90.0491 L381.914 91.1428 Z" fill="#000000" fill-rule="evenodd" fill-opacity="1"></path><path clip-path="url(#clip570)" d="M 0 0 M385.976 93.3708 Q384.686 93.3708 384.188 93.666 Q383.69 93.9611 383.69 94.6729 Q383.69 95.24 384.061 95.5757 Q384.437 95.9056 385.079 95.9056 Q385.965 95.9056 386.497 95.2806 Q387.035 94.6498 387.035 93.6081 L387.035 93.3708 L385.976 93.3708 M388.1 92.931 L388.1 96.6289 L387.035 96.6289 L387.035 95.6451 Q386.671 96.2354 386.127 96.519 Q385.583 96.7968 384.796 96.7968 Q383.8 96.7968 383.21 96.2412 Q382.626 95.6799 382.626 94.7424 Q382.626 93.6486 383.355 93.0931 Q384.09 92.5375 385.542 92.5375 L387.035 92.5375 L387.035 92.4333 Q387.035 91.6984 386.549 91.2991 Q386.069 90.894 385.195 90.894 Q384.639 90.894 384.113 91.0271 Q383.586 91.1602 383.1 91.4264 L383.1 90.4426 Q383.685 90.2169 384.234 90.107 Q384.784 89.9912 385.305 89.9912 Q386.711 89.9912 387.406 90.7204 Q388.1 91.4496 388.1 92.931 Z" fill="#000000" fill-rule="evenodd" fill-opacity="1"></path><path clip-path="url(#clip570)" d="M 0 0 M390.27 88.3072 L390.27 90.1475 L392.463 90.1475 L392.463 90.975 L390.27 90.975 L390.27 94.4935 Q390.27 95.2863 390.484 95.512 Q390.704 95.7377 391.37 95.7377 L392.463 95.7377 L392.463 96.6289 L391.37 96.6289 Q390.137 96.6289 389.668 96.1718 Q389.2 95.7088 389.2 94.4935 L389.2 90.975 L388.418 90.975 L388.418 90.1475 L389.2 90.1475 L389.2 88.3072 L390.27 88.3072 Z" fill="#000000" fill-rule="evenodd" fill-opacity="1"></path><path clip-path="url(#clip570)" d="M 0 0 M399.124 93.122 L399.124 93.6428 L394.229 93.6428 Q394.298 94.7424 394.888 95.3211 Q395.484 95.894 396.543 95.894 Q397.157 95.894 397.73 95.7435 Q398.308 95.5931 398.875 95.2921 L398.875 96.2991 Q398.303 96.5421 397.701 96.6694 Q397.099 96.7968 396.48 96.7968 Q394.929 96.7968 394.02 95.894 Q393.117 94.9912 393.117 93.4519 Q393.117 91.8604 393.974 90.9287 Q394.836 89.9912 396.294 89.9912 Q397.602 89.9912 398.36 90.8361 Q399.124 91.6753 399.124 93.122 M398.06 92.8095 Q398.048 91.9357 397.568 91.4148 Q397.093 90.894 396.306 90.894 Q395.415 90.894 394.877 91.3975 Q394.344 91.9009 394.263 92.8153 L398.06 92.8095 Z" fill="#000000" fill-rule="evenodd" fill-opacity="1"></path><path clip-path="url(#clip570)" d="M 0 0 M408.829 88.3072 L408.829 90.1475 L411.022 90.1475 L411.022 90.975 L408.829 90.975 L408.829 94.4935 Q408.829 95.2863 409.043 95.512 Q409.263 95.7377 409.929 95.7377 L411.022 95.7377 L411.022 96.6289 L409.929 96.6289 Q408.696 96.6289 408.227 96.1718 Q407.759 95.7088 407.759 94.4935 L407.759 90.975 L406.977 90.975 L406.977 90.1475 L407.759 90.1475 L407.759 88.3072 L408.829 88.3072 Z" fill="#000000" fill-rule="evenodd" fill-opacity="1"></path><path clip-path="url(#clip570)" d="M 0 0 M414.651 90.894 Q413.794 90.894 413.297 91.5653 Q412.799 92.2308 412.799 93.394 Q412.799 94.5572 413.291 95.2285 Q413.789 95.894 414.651 95.894 Q415.502 95.894 415.999 95.2227 Q416.497 94.5514 416.497 93.394 Q416.497 92.2424 415.999 91.5711 Q415.502 90.894 414.651 90.894 M414.651 89.9912 Q416.04 89.9912 416.833 90.894 Q417.625 91.7968 417.625 93.394 Q417.625 94.9854 416.833 95.894 Q416.04 96.7968 414.651 96.7968 Q413.256 96.7968 412.463 95.894 Q411.676 94.9854 411.676 93.394 Q411.676 91.7968 412.463 90.894 Q413.256 89.9912 414.651 89.9912 Z" fill="#000000" fill-rule="evenodd" fill-opacity="1"></path><path clip-path="url(#clip570)" d="M 0 0 M423.54 95.6567 L423.54 99.0942 L422.469 99.0942 L422.469 90.1475 L423.54 90.1475 L423.54 91.1313 Q423.875 90.5526 424.385 90.2748 Q424.9 89.9912 425.611 89.9912 Q426.792 89.9912 427.527 90.9287 Q428.268 91.8662 428.268 93.394 Q428.268 94.9218 427.527 95.8593 Q426.792 96.7968 425.611 96.7968 Q424.9 96.7968 424.385 96.519 Q423.875 96.2354 423.54 95.6567 M427.162 93.394 Q427.162 92.2192 426.676 91.5537 Q426.196 90.8824 425.351 90.8824 Q424.506 90.8824 424.02 91.5537 Q423.54 92.2192 423.54 93.394 Q423.54 94.5688 424.02 95.24 Q424.506 95.9056 425.351 95.9056 Q426.196 95.9056 426.676 95.24 Q427.162 94.5688 427.162 93.394 Z" fill="#000000" fill-rule="evenodd" fill-opacity="1"></path><path clip-path="url(#clip570)" d="M 0 0 M434.929 93.122 L434.929 93.6428 L430.033 93.6428 Q430.102 94.7424 430.692 95.3211 Q431.288 95.894 432.348 95.894 Q432.961 95.894 433.534 95.7435 Q434.113 95.5931 434.68 95.2921 L434.68 96.2991 Q434.107 96.5421 433.505 96.6694 Q432.903 96.7968 432.284 96.7968 Q430.733 96.7968 429.824 95.894 Q428.922 94.9912 428.922 93.4519 Q428.922 91.8604 429.778 90.9287 Q430.64 89.9912 432.099 89.9912 Q433.407 89.9912 434.165 90.8361 Q434.929 91.6753 434.929 93.122 M433.864 92.8095 Q433.852 91.9357 433.372 91.4148 Q432.897 90.894 432.11 90.894 Q431.219 90.894 430.681 91.3975 Q430.148 91.9009 430.067 92.8153 L433.864 92.8095 Z" fill="#000000" fill-rule="evenodd" fill-opacity="1"></path><path clip-path="url(#clip570)" d="M 0 0 M439.801 91.1428 Q439.622 91.0387 439.408 90.9924 Q439.199 90.9403 438.945 90.9403 Q438.042 90.9403 437.556 91.5306 Q437.075 92.1151 437.075 93.2146 L437.075 96.6289 L436.005 96.6289 L436.005 90.1475 L437.075 90.1475 L437.075 91.1544 Q437.411 90.5641 437.949 90.2806 Q438.488 89.9912 439.257 89.9912 Q439.367 89.9912 439.5 90.0086 Q439.633 90.0202 439.795 90.0491 L439.801 91.1428 Z" fill="#000000" fill-rule="evenodd" fill-opacity="1"></path><path clip-path="url(#clip570)" d="M 0 0 M445.756 91.3917 Q446.155 90.6741 446.711 90.3327 Q447.266 89.9912 448.019 89.9912 Q449.031 89.9912 449.581 90.703 Q450.131 91.409 450.131 92.7169 L450.131 96.6289 L449.06 96.6289 L449.06 92.7516 Q449.06 91.8199 448.731 91.3685 Q448.401 90.9172 447.724 90.9172 Q446.896 90.9172 446.416 91.4669 Q445.935 92.0167 445.935 92.9658 L445.935 96.6289 L444.865 96.6289 L444.865 92.7516 Q444.865 91.8141 444.535 91.3685 Q444.205 90.9172 443.516 90.9172 Q442.7 90.9172 442.22 91.4727 Q441.74 92.0225 441.74 92.9658 L441.74 96.6289 L440.669 96.6289 L440.669 90.1475 L441.74 90.1475 L441.74 91.1544 Q442.104 90.5584 442.614 90.2748 Q443.123 89.9912 443.823 89.9912 Q444.529 89.9912 445.021 90.35 Q445.519 90.7088 445.756 91.3917 Z" fill="#000000" fill-rule="evenodd" fill-opacity="1"></path><path clip-path="url(#clip570)" d="M 0 0 M454.193 93.3708 Q452.903 93.3708 452.405 93.666 Q451.908 93.9611 451.908 94.6729 Q451.908 95.24 452.278 95.5757 Q452.654 95.9056 453.296 95.9056 Q454.182 95.9056 454.714 95.2806 Q455.252 94.6498 455.252 93.6081 L455.252 93.3708 L454.193 93.3708 M456.317 92.931 L456.317 96.6289 L455.252 96.6289 L455.252 95.6451 Q454.888 96.2354 454.344 96.519 Q453.8 96.7968 453.013 96.7968 Q452.018 96.7968 451.427 96.2412 Q450.843 95.6799 450.843 94.7424 Q450.843 93.6486 451.572 93.0931 Q452.307 92.5375 453.759 92.5375 L455.252 92.5375 L455.252 92.4333 Q455.252 91.6984 454.766 91.2991 Q454.286 90.894 453.412 90.894 Q452.857 90.894 452.33 91.0271 Q451.803 91.1602 451.317 91.4264 L451.317 90.4426 Q451.902 90.2169 452.452 90.107 Q453.001 89.9912 453.522 89.9912 Q454.928 89.9912 455.623 90.7204 Q456.317 91.4496 456.317 92.931 Z" fill="#000000" fill-rule="evenodd" fill-opacity="1"></path><path clip-path="url(#clip570)" d="M 0 0 M462.822 92.7169 L462.822 96.6289 L461.757 96.6289 L461.757 92.7516 Q461.757 91.8315 461.398 91.3743 Q461.039 90.9172 460.322 90.9172 Q459.46 90.9172 458.962 91.4669 Q458.464 92.0167 458.464 92.9658 L458.464 96.6289 L457.394 96.6289 L457.394 90.1475 L458.464 90.1475 L458.464 91.1544 Q458.846 90.5699 459.361 90.2806 Q459.882 89.9912 460.559 89.9912 Q461.676 89.9912 462.249 90.6857 Q462.822 91.3743 462.822 92.7169 Z" fill="#000000" fill-rule="evenodd" fill-opacity="1"></path><path clip-path="url(#clip570)" d="M 0 0 M469.483 93.122 L469.483 93.6428 L464.587 93.6428 Q464.656 94.7424 465.247 95.3211 Q465.843 95.894 466.902 95.894 Q467.515 95.894 468.088 95.7435 Q468.667 95.5931 469.234 95.2921 L469.234 96.2991 Q468.661 96.5421 468.059 96.6694 Q467.457 96.7968 466.838 96.7968 Q465.287 96.7968 464.379 95.894 Q463.476 94.9912 463.476 93.4519 Q463.476 91.8604 464.332 90.9287 Q465.195 89.9912 466.653 89.9912 Q467.961 89.9912 468.719 90.8361 Q469.483 91.6753 469.483 93.122 M468.418 92.8095 Q468.406 91.9357 467.926 91.4148 Q467.451 90.894 466.664 90.894 Q465.773 90.894 465.235 91.3975 Q464.703 91.9009 464.622 92.8153 L468.418 92.8095 Z" fill="#000000" fill-rule="evenodd" fill-opacity="1"></path><path clip-path="url(#clip570)" d="M 0 0 M475.987 92.7169 L475.987 96.6289 L474.923 96.6289 L474.923 92.7516 Q474.923 91.8315 474.564 91.3743 Q474.205 90.9172 473.487 90.9172 Q472.625 90.9172 472.127 91.4669 Q471.63 92.0167 471.63 92.9658 L471.63 96.6289 L470.559 96.6289 L470.559 90.1475 L471.63 90.1475 L471.63 91.1544 Q472.012 90.5699 472.527 90.2806 Q473.048 89.9912 473.725 89.9912 Q474.841 89.9912 475.414 90.6857 Q475.987 91.3743 475.987 92.7169 Z" fill="#000000" fill-rule="evenodd" fill-opacity="1"></path><path clip-path="url(#clip570)" d="M 0 0 M478.157 88.3072 L478.157 90.1475 L480.351 90.1475 L480.351 90.975 L478.157 90.975 L478.157 94.4935 Q478.157 95.2863 478.372 95.512 Q478.591 95.7377 479.257 95.7377 L480.351 95.7377 L480.351 96.6289 L479.257 96.6289 Q478.024 96.6289 477.556 96.1718 Q477.087 95.7088 477.087 94.4935 L477.087 90.975 L476.306 90.975 L476.306 90.1475 L477.087 90.1475 L477.087 88.3072 L478.157 88.3072 Z" fill="#000000" fill-rule="evenodd" fill-opacity="1"></path><path clip-path="url(#clip570)" d="M 0 0 M485.235 87.6243 L486.3 87.6243 L486.3 96.6289 L485.235 96.6289 L485.235 87.6243 Z" fill="#000000" fill-rule="evenodd" fill-opacity="1"></path><path clip-path="url(#clip570)" d="M 0 0 M487.417 90.1475 L488.481 90.1475 L488.481 96.6289 L487.417 96.6289 L487.417 90.1475 M487.417 87.6243 L488.481 87.6243 L488.481 88.9727 L487.417 88.9727 L487.417 87.6243 Z" fill="#000000" fill-rule="evenodd" fill-opacity="1"></path><path clip-path="url(#clip570)" d="M 0 0 M490.235 93.394 Q490.235 94.5688 490.715 95.24 Q491.201 95.9056 492.046 95.9056 Q492.891 95.9056 493.377 95.24 Q493.863 94.5688 493.863 93.394 Q493.863 92.2192 493.377 91.5537 Q492.891 90.8824 492.046 90.8824 Q491.201 90.8824 490.715 91.5537 Q490.235 92.2192 490.235 93.394 M493.863 95.6567 Q493.528 96.2354 493.013 96.519 Q492.503 96.7968 491.786 96.7968 Q490.611 96.7968 489.87 95.8593 Q489.135 94.9218 489.135 93.394 Q489.135 91.8662 489.87 90.9287 Q490.611 89.9912 491.786 89.9912 Q492.503 89.9912 493.013 90.2748 Q493.528 90.5526 493.863 91.1313 L493.863 90.1475 L494.928 90.1475 L494.928 99.0942 L493.863 99.0942 L493.863 95.6567 Z" fill="#000000" fill-rule="evenodd" fill-opacity="1"></path><path clip-path="url(#clip570)" d="M 0 0 M495.935 94.0711 L495.935 90.1475 L497 90.1475 L497 94.0306 Q497 94.9507 497.359 95.4137 Q497.718 95.8708 498.435 95.8708 Q499.297 95.8708 499.795 95.3211 Q500.299 94.7713 500.299 93.8222 L500.299 90.1475 L501.363 90.1475 L501.363 96.6289 L500.299 96.6289 L500.299 95.6336 Q499.911 96.2238 499.396 96.5132 Q498.887 96.7968 498.209 96.7968 Q497.093 96.7968 496.514 96.1023 Q495.935 95.4079 495.935 94.0711 M498.615 89.9912 L498.615 89.9912 Z" fill="#000000" fill-rule="evenodd" fill-opacity="1"></path><path clip-path="url(#clip570)" d="M 0 0 M502.48 90.1475 L503.545 90.1475 L503.545 96.6289 L502.48 96.6289 L502.48 90.1475 M502.48 87.6243 L503.545 87.6243 L503.545 88.9727 L502.48 88.9727 L502.48 87.6243 Z" fill="#000000" fill-rule="evenodd" fill-opacity="1"></path><path clip-path="url(#clip570)" d="M 0 0 M508.927 91.1313 L508.927 87.6243 L509.992 87.6243 L509.992 96.6289 L508.927 96.6289 L508.927 95.6567 Q508.591 96.2354 508.076 96.519 Q507.567 96.7968 506.849 96.7968 Q505.675 96.7968 504.934 95.8593 Q504.199 94.9218 504.199 93.394 Q504.199 91.8662 504.934 90.9287 Q505.675 89.9912 506.849 89.9912 Q507.567 89.9912 508.076 90.2748 Q508.591 90.5526 508.927 91.1313 M505.299 93.394 Q505.299 94.5688 505.779 95.24 Q506.265 95.9056 507.11 95.9056 Q507.955 95.9056 508.441 95.24 Q508.927 94.5688 508.927 93.394 Q508.927 92.2192 508.441 91.5537 Q507.955 90.8824 507.11 90.8824 Q506.265 90.8824 505.779 91.5537 Q505.299 92.2192 505.299 93.394 Z" fill="#000000" fill-rule="evenodd" fill-opacity="1"></path><path clip-path="url(#clip570)" d="M 0 0 M511.109 90.1475 L512.173 90.1475 L512.173 96.6289 L511.109 96.6289 L511.109 90.1475 M511.109 87.6243 L512.173 87.6243 L512.173 88.9727 L511.109 88.9727 L511.109 87.6243 Z" fill="#000000" fill-rule="evenodd" fill-opacity="1"></path><path clip-path="url(#clip570)" d="M 0 0 M514.344 88.3072 L514.344 90.1475 L516.537 90.1475 L516.537 90.975 L514.344 90.975 L514.344 94.4935 Q514.344 95.2863 514.558 95.512 Q514.778 95.7377 515.443 95.7377 L516.537 95.7377 L516.537 96.6289 L515.443 96.6289 Q514.21 96.6289 513.742 96.1718 Q513.273 95.7088 513.273 94.4935 L513.273 90.975 L512.492 90.975 L512.492 90.1475 L513.273 90.1475 L513.273 88.3072 L514.344 88.3072 Z" fill="#000000" fill-rule="evenodd" fill-opacity="1"></path><path clip-path="url(#clip570)" d="M 0 0 M520.351 97.2308 Q519.899 98.3882 519.471 98.7412 Q519.043 99.0942 518.325 99.0942 L517.474 99.0942 L517.474 98.203 L518.099 98.203 Q518.539 98.203 518.782 97.9947 Q519.025 97.7863 519.32 97.0109 L519.511 96.5248 L516.89 90.1475 L518.018 90.1475 L520.044 95.2169 L522.069 90.1475 L523.198 90.1475 L520.351 97.2308 Z" fill="#000000" fill-rule="evenodd" fill-opacity="1"></path><path clip-path="url(#clip570)" d="M 0 0 M532.214 90.3385 L532.214 91.3454 Q531.762 91.1139 531.276 90.9982 Q530.79 90.8824 530.269 90.8824 Q529.477 90.8824 529.077 91.1255 Q528.684 91.3685 528.684 91.8546 Q528.684 92.225 528.967 92.4391 Q529.251 92.6475 530.107 92.8384 L530.472 92.9195 Q531.606 93.1625 532.081 93.6081 Q532.561 94.0479 532.561 94.8407 Q532.561 95.7435 531.844 96.2701 Q531.132 96.7968 529.882 96.7968 Q529.361 96.7968 528.794 96.6926 Q528.232 96.5942 527.607 96.3917 L527.607 95.2921 Q528.198 95.5988 528.771 95.7551 Q529.344 95.9056 529.905 95.9056 Q530.657 95.9056 531.062 95.6509 Q531.467 95.3905 531.467 94.9218 Q531.467 94.4877 531.172 94.2563 Q530.883 94.0248 529.893 93.8107 L529.523 93.7239 Q528.533 93.5155 528.094 93.0873 Q527.654 92.6533 527.654 91.9009 Q527.654 90.9866 528.302 90.4889 Q528.95 89.9912 530.142 89.9912 Q530.732 89.9912 531.253 90.078 Q531.774 90.1648 532.214 90.3385 Z" fill="#000000" fill-rule="evenodd" fill-opacity="1"></path><path clip-path="url(#clip570)" d="M 0 0 M539.066 92.7169 L539.066 96.6289 L538.001 96.6289 L538.001 92.7516 Q538.001 91.8315 537.642 91.3743 Q537.283 90.9172 536.566 90.9172 Q535.703 90.9172 535.206 91.4669 Q534.708 92.0167 534.708 92.9658 L534.708 96.6289 L533.637 96.6289 L533.637 87.6243 L534.708 87.6243 L534.708 91.1544 Q535.09 90.5699 535.605 90.2806 Q536.126 89.9912 536.803 89.9912 Q537.92 89.9912 538.493 90.6857 Q539.066 91.3743 539.066 92.7169 Z" fill="#000000" fill-rule="evenodd" fill-opacity="1"></path><path clip-path="url(#clip570)" d="M 0 0 M542.694 90.894 Q541.838 90.894 541.34 91.5653 Q540.842 92.2308 540.842 93.394 Q540.842 94.5572 541.334 95.2285 Q541.832 95.894 542.694 95.894 Q543.545 95.894 544.043 95.2227 Q544.54 94.5514 544.54 93.394 Q544.54 92.2424 544.043 91.5711 Q543.545 90.894 542.694 90.894 M542.694 89.9912 Q544.083 89.9912 544.876 90.894 Q545.669 91.7968 545.669 93.394 Q545.669 94.9854 544.876 95.894 Q544.083 96.7968 542.694 96.7968 Q541.299 96.7968 540.507 95.894 Q539.72 94.9854 539.72 93.394 Q539.72 91.7968 540.507 90.894 Q541.299 89.9912 542.694 89.9912 Z" fill="#000000" fill-rule="evenodd" fill-opacity="1"></path><path clip-path="url(#clip570)" d="M 0 0 M551.45 90.3963 L551.45 91.3917 Q550.998 91.1428 550.541 91.0213 Q550.09 90.894 549.627 90.894 Q548.591 90.894 548.018 91.5537 Q547.445 92.2077 547.445 93.394 Q547.445 94.5803 548.018 95.24 Q548.591 95.894 549.627 95.894 Q550.09 95.894 550.541 95.7725 Q550.998 95.6451 551.45 95.3963 L551.45 96.3801 Q551.004 96.5884 550.524 96.6926 Q550.049 96.7968 549.511 96.7968 Q548.047 96.7968 547.185 95.8766 Q546.323 94.9565 546.323 93.394 Q546.323 91.8084 547.191 90.8998 Q548.064 89.9912 549.581 89.9912 Q550.073 89.9912 550.541 90.0954 Q551.01 90.1938 551.45 90.3963 Z" fill="#000000" fill-rule="evenodd" fill-opacity="1"></path><path clip-path="url(#clip570)" d="M 0 0 M552.526 87.6243 L553.597 87.6243 L553.597 92.9426 L556.774 90.1475 L558.134 90.1475 L554.696 93.1799 L558.279 96.6289 L556.89 96.6289 L553.597 93.4634 L553.597 96.6289 L552.526 96.6289 L552.526 87.6243 Z" fill="#000000" fill-rule="evenodd" fill-opacity="1"></path></svg>