<svg xmlns="http://www.w3.org/2000/svg" xmlns:xlink="http://www.w3.org/1999/xlink" width="150" height="150" viewBox="0 0 600 600">
<defs>
  <clipPath id="clip520">
    <rect x="0" y="0" width="600" height="600"></rect>
  </clipPath>
</defs>
<path clip-path="url(#clip520)" d="
M0 600 L600 600 L600 0 L0 0  Z
  " fill="#ffffff" fill-rule="evenodd" fill-opacity="1"></path>
<defs>
  <clipPath id="clip521">
    <rect x="120" y="60" width="421" height="421"></rect>
  </clipPath>
</defs>
<path clip-path="url(#clip520)" d="
M55.4031 543.535 L588.189 543.535 L588.189 61.108 L55.4031 61.108  Z
  " fill="#ffffff" fill-rule="evenodd" fill-opacity="1"></path>
<defs>
  <clipPath id="clip522">
    <rect x="55" y="61" width="534" height="483"></rect>
  </clipPath>
</defs>
<polyline clip-path="url(#clip522)" style="stroke:#000000; stroke-width:0.5; stroke-opacity:0.1; fill:none" points="
  64.1196,543.535 64.1196,61.108 
  "></polyline>
<polyline clip-path="url(#clip522)" style="stroke:#000000; stroke-width:0.5; stroke-opacity:0.1; fill:none" points="
  191.367,543.535 191.367,61.108 
  "></polyline>
<polyline clip-path="url(#clip522)" style="stroke:#000000; stroke-width:0.5; stroke-opacity:0.1; fill:none" points="
  318.615,543.535 318.615,61.108 
  "></polyline>
<polyline clip-path="url(#clip522)" style="stroke:#000000; stroke-width:0.5; stroke-opacity:0.1; fill:none" points="
  445.862,543.535 445.862,61.108 
  "></polyline>
<polyline clip-path="url(#clip522)" style="stroke:#000000; stroke-width:0.5; stroke-opacity:0.1; fill:none" points="
  573.11,543.535 573.11,61.108 
  "></polyline>
<polyline clip-path="url(#clip520)" style="stroke:#000000; stroke-width:1; stroke-opacity:1; fill:none" points="
  55.4031,543.535 588.189,543.535 
  "></polyline>
<polyline clip-path="url(#clip520)" style="stroke:#000000; stroke-width:1; stroke-opacity:1; fill:none" points="
  64.1196,543.535 64.1196,537.746 
  "></polyline>
<polyline clip-path="url(#clip520)" style="stroke:#000000; stroke-width:1; stroke-opacity:1; fill:none" points="
  191.367,543.535 191.367,537.746 
  "></polyline>
<polyline clip-path="url(#clip520)" style="stroke:#000000; stroke-width:1; stroke-opacity:1; fill:none" points="
  318.615,543.535 318.615,537.746 
  "></polyline>
<polyline clip-path="url(#clip520)" style="stroke:#000000; stroke-width:1; stroke-opacity:1; fill:none" points="
  445.862,543.535 445.862,537.746 
  "></polyline>
<polyline clip-path="url(#clip520)" style="stroke:#000000; stroke-width:1; stroke-opacity:1; fill:none" points="
  573.11,543.535 573.11,537.746 
  "></polyline>
<path clip-path="url(#clip520)" d="M 0 0 M64.1196 550.833 Q63.2168 550.833 62.7596 551.724 Q62.3083 552.609 62.3083 554.392 Q62.3083 556.168 62.7596 557.059 Q63.2168 557.945 64.1196 557.945 Q65.0281 557.945 65.4795 557.059 Q65.9367 556.168 65.9367 554.392 Q65.9367 552.609 65.4795 551.724 Q65.0281 550.833 64.1196 550.833 M64.1196 549.907 Q65.5721 549.907 66.336 551.058 Q67.1057 552.204 67.1057 554.392 Q67.1057 556.573 66.336 557.725 Q65.5721 558.871 64.1196 558.871 Q62.667 558.871 61.8974 557.725 Q61.1335 556.573 61.1335 554.392 Q61.1335 552.204 61.8974 551.058 Q62.667 549.907 64.1196 549.907 Z" fill="#000000" fill-rule="evenodd" fill-opacity="1"></path><path clip-path="url(#clip520)" d="M 0 0 M186.654 557.719 L190.734 557.719 L190.734 558.703 L185.247 558.703 L185.247 557.719 Q185.913 557.031 187.059 555.873 Q188.21 554.71 188.506 554.374 Q189.067 553.743 189.287 553.309 Q189.512 552.87 189.512 552.447 Q189.512 551.759 189.026 551.325 Q188.546 550.891 187.771 550.891 Q187.221 550.891 186.607 551.081 Q186 551.272 185.305 551.66 L185.305 550.48 Q186.011 550.196 186.625 550.051 Q187.238 549.907 187.747 549.907 Q189.09 549.907 189.889 550.578 Q190.687 551.249 190.687 552.372 Q190.687 552.904 190.485 553.385 Q190.288 553.859 189.761 554.507 Q189.617 554.675 188.841 555.48 Q188.066 556.278 186.654 557.719 Z" fill="#000000" fill-rule="evenodd" fill-opacity="1"></path><path clip-path="url(#clip520)" d="M 0 0 M194.501 550.833 Q193.598 550.833 193.141 551.724 Q192.69 552.609 192.69 554.392 Q192.69 556.168 193.141 557.059 Q193.598 557.945 194.501 557.945 Q195.409 557.945 195.861 557.059 Q196.318 556.168 196.318 554.392 Q196.318 552.609 195.861 551.724 Q195.409 550.833 194.501 550.833 M194.501 549.907 Q195.953 549.907 196.717 551.058 Q197.487 552.204 197.487 554.392 Q197.487 556.573 196.717 557.725 Q195.953 558.871 194.501 558.871 Q193.048 558.871 192.279 557.725 Q191.515 556.573 191.515 554.392 Q191.515 552.204 192.279 551.058 Q193.048 549.907 194.501 549.907 Z" fill="#000000" fill-rule="evenodd" fill-opacity="1"></path><path clip-path="url(#clip520)" d="M 0 0 M315.99 551.081 L313.039 555.694 L315.99 555.694 L315.99 551.081 M315.684 550.063 L317.154 550.063 L317.154 555.694 L318.386 555.694 L318.386 556.666 L317.154 556.666 L317.154 558.703 L315.99 558.703 L315.99 556.666 L312.09 556.666 L312.09 555.537 L315.684 550.063 Z" fill="#000000" fill-rule="evenodd" fill-opacity="1"></path><path clip-path="url(#clip520)" d="M 0 0 M322.154 550.833 Q321.251 550.833 320.794 551.724 Q320.342 552.609 320.342 554.392 Q320.342 556.168 320.794 557.059 Q321.251 557.945 322.154 557.945 Q323.062 557.945 323.514 557.059 Q323.971 556.168 323.971 554.392 Q323.971 552.609 323.514 551.724 Q323.062 550.833 322.154 550.833 M322.154 549.907 Q323.606 549.907 324.37 551.058 Q325.14 552.204 325.14 554.392 Q325.14 556.573 324.37 557.725 Q323.606 558.871 322.154 558.871 Q320.701 558.871 319.931 557.725 Q319.168 556.573 319.168 554.392 Q319.168 552.204 319.931 551.058 Q320.701 549.907 322.154 549.907 Z" fill="#000000" fill-rule="evenodd" fill-opacity="1"></path><path clip-path="url(#clip520)" d="M 0 0 M442.587 553.917 Q441.8 553.917 441.337 554.455 Q440.88 554.993 440.88 555.931 Q440.88 556.863 441.337 557.407 Q441.8 557.945 442.587 557.945 Q443.374 557.945 443.831 557.407 Q444.294 556.863 444.294 555.931 Q444.294 554.993 443.831 554.455 Q443.374 553.917 442.587 553.917 M444.908 550.254 L444.908 551.319 Q444.468 551.11 444.016 551 Q443.571 550.891 443.131 550.891 Q441.974 550.891 441.36 551.672 Q440.753 552.453 440.666 554.033 Q441.007 553.529 441.522 553.263 Q442.037 552.991 442.656 552.991 Q443.959 552.991 444.711 553.784 Q445.469 554.571 445.469 555.931 Q445.469 557.262 444.682 558.066 Q443.895 558.871 442.587 558.871 Q441.088 558.871 440.295 557.725 Q439.503 556.573 439.503 554.392 Q439.503 552.343 440.475 551.128 Q441.447 549.907 443.085 549.907 Q443.525 549.907 443.97 549.994 Q444.422 550.08 444.908 550.254 Z" fill="#000000" fill-rule="evenodd" fill-opacity="1"></path><path clip-path="url(#clip520)" d="M 0 0 M449.236 550.833 Q448.334 550.833 447.876 551.724 Q447.425 552.609 447.425 554.392 Q447.425 556.168 447.876 557.059 Q448.334 557.945 449.236 557.945 Q450.145 557.945 450.596 557.059 Q451.053 556.168 451.053 554.392 Q451.053 552.609 450.596 551.724 Q450.145 550.833 449.236 550.833 M449.236 549.907 Q450.689 549.907 451.453 551.058 Q452.222 552.204 452.222 554.392 Q452.222 556.573 451.453 557.725 Q450.689 558.871 449.236 558.871 Q447.784 558.871 447.014 557.725 Q446.25 556.573 446.25 554.392 Q446.25 552.204 447.014 551.058 Q447.784 549.907 449.236 549.907 Z" fill="#000000" fill-rule="evenodd" fill-opacity="1"></path><path clip-path="url(#clip520)" d="M 0 0 M569.733 554.6 Q568.9 554.6 568.42 555.046 Q567.945 555.491 567.945 556.272 Q567.945 557.054 568.42 557.499 Q568.9 557.945 569.733 557.945 Q570.567 557.945 571.047 557.499 Q571.527 557.048 571.527 556.272 Q571.527 555.491 571.047 555.046 Q570.573 554.6 569.733 554.6 M568.564 554.102 Q567.812 553.917 567.39 553.402 Q566.973 552.887 566.973 552.146 Q566.973 551.11 567.708 550.509 Q568.449 549.907 569.733 549.907 Q571.024 549.907 571.759 550.509 Q572.494 551.11 572.494 552.146 Q572.494 552.887 572.071 553.402 Q571.655 553.917 570.908 554.102 Q571.753 554.299 572.222 554.872 Q572.696 555.445 572.696 556.272 Q572.696 557.528 571.927 558.199 Q571.163 558.871 569.733 558.871 Q568.304 558.871 567.534 558.199 Q566.77 557.528 566.77 556.272 Q566.77 555.445 567.245 554.872 Q567.72 554.299 568.564 554.102 M568.136 552.256 Q568.136 552.928 568.553 553.304 Q568.975 553.68 569.733 553.68 Q570.486 553.68 570.908 553.304 Q571.336 552.928 571.336 552.256 Q571.336 551.585 570.908 551.209 Q570.486 550.833 569.733 550.833 Q568.975 550.833 568.553 551.209 Q568.136 551.585 568.136 552.256 Z" fill="#000000" fill-rule="evenodd" fill-opacity="1"></path><path clip-path="url(#clip520)" d="M 0 0 M576.464 550.833 Q575.561 550.833 575.104 551.724 Q574.652 552.609 574.652 554.392 Q574.652 556.168 575.104 557.059 Q575.561 557.945 576.464 557.945 Q577.372 557.945 577.824 557.059 Q578.281 556.168 578.281 554.392 Q578.281 552.609 577.824 551.724 Q577.372 550.833 576.464 550.833 M576.464 549.907 Q577.916 549.907 578.68 551.058 Q579.45 552.204 579.45 554.392 Q579.45 556.573 578.68 557.725 Q577.916 558.871 576.464 558.871 Q575.011 558.871 574.241 557.725 Q573.478 556.573 573.478 554.392 Q573.478 552.204 574.241 551.058 Q575.011 549.907 576.464 549.907 Z" fill="#000000" fill-rule="evenodd" fill-opacity="1"></path><path clip-path="url(#clip520)" d="M 0 0 M257.86 574.523 Q257.168 574.523 256.77 575.112 Q256.38 575.701 256.38 576.751 Q256.38 577.786 256.77 578.382 Q257.168 578.971 257.86 578.971 Q258.537 578.971 258.927 578.382 Q259.325 577.786 259.325 576.751 Q259.325 575.709 258.927 575.12 Q258.537 574.523 257.86 574.523 M257.86 573.513 Q259.118 573.513 259.858 574.388 Q260.598 575.263 260.598 576.751 Q260.598 578.239 259.85 579.114 Q259.11 579.982 257.86 579.982 Q256.587 579.982 255.847 579.114 Q255.107 578.239 255.107 576.751 Q255.107 575.255 255.847 574.388 Q256.595 573.513 257.86 573.513 M249.649 568.667 Q248.964 568.667 248.567 569.263 Q248.177 569.852 248.177 570.887 Q248.177 571.937 248.567 572.526 Q248.956 573.115 249.649 573.115 Q250.341 573.115 250.731 572.526 Q251.129 571.937 251.129 570.887 Q251.129 569.86 250.731 569.263 Q250.333 568.667 249.649 568.667 M256.834 567.656 L258.107 567.656 L250.675 579.982 L249.402 579.982 L256.834 567.656 M249.649 567.656 Q250.906 567.656 251.654 568.531 Q252.402 569.399 252.402 570.887 Q252.402 572.391 251.654 573.258 Q250.914 574.125 249.649 574.125 Q248.384 574.125 247.644 573.258 Q246.911 572.383 246.911 570.887 Q246.911 569.407 247.651 568.531 Q248.391 567.656 249.649 567.656 Z" fill="#000000" fill-rule="evenodd" fill-opacity="1"></path><path clip-path="url(#clip520)" d="M 0 0 M273.178 572.192 L273.178 567.37 L274.642 567.37 L274.642 579.751 L273.178 579.751 L273.178 578.414 Q272.716 579.21 272.008 579.6 Q271.308 579.982 270.321 579.982 Q268.706 579.982 267.688 578.693 Q266.677 577.404 266.677 575.303 Q266.677 573.202 267.688 571.913 Q268.706 570.624 270.321 570.624 Q271.308 570.624 272.008 571.014 Q272.716 571.396 273.178 572.192 M268.189 575.303 Q268.189 576.918 268.849 577.841 Q269.518 578.756 270.679 578.756 Q271.841 578.756 272.51 577.841 Q273.178 576.918 273.178 575.303 Q273.178 573.688 272.51 572.773 Q271.841 571.85 270.679 571.85 Q269.518 571.85 268.849 572.773 Q268.189 573.688 268.189 575.303 Z" fill="#000000" fill-rule="evenodd" fill-opacity="1"></path><path clip-path="url(#clip520)" d="M 0 0 M283.801 574.929 L283.801 575.645 L277.069 575.645 Q277.164 577.157 277.976 577.953 Q278.796 578.74 280.252 578.74 Q281.095 578.74 281.883 578.534 Q282.679 578.327 283.459 577.913 L283.459 579.297 Q282.671 579.632 281.843 579.807 Q281.016 579.982 280.164 579.982 Q278.032 579.982 276.783 578.74 Q275.541 577.499 275.541 575.382 Q275.541 573.194 276.719 571.913 Q277.905 570.624 279.91 570.624 Q281.708 570.624 282.75 571.786 Q283.801 572.94 283.801 574.929 M282.337 574.499 Q282.321 573.298 281.66 572.582 Q281.008 571.865 279.926 571.865 Q278.7 571.865 277.96 572.558 Q277.228 573.25 277.117 574.507 L282.337 574.499 Z" fill="#000000" fill-rule="evenodd" fill-opacity="1"></path><path clip-path="url(#clip520)" d="M 0 0 M284.286 570.839 L285.838 570.839 L288.623 578.319 L291.408 570.839 L292.959 570.839 L289.617 579.751 L287.628 579.751 L284.286 570.839 Z" fill="#000000" fill-rule="evenodd" fill-opacity="1"></path><path clip-path="url(#clip520)" d="M 0 0 M294.495 570.839 L295.959 570.839 L295.959 579.751 L294.495 579.751 L294.495 570.839 M294.495 567.37 L295.959 567.37 L295.959 569.224 L294.495 569.224 L294.495 567.37 Z" fill="#000000" fill-rule="evenodd" fill-opacity="1"></path><path clip-path="url(#clip520)" d="M 0 0 M301.545 575.271 Q299.771 575.271 299.086 575.677 Q298.402 576.083 298.402 577.061 Q298.402 577.841 298.911 578.303 Q299.429 578.756 300.312 578.756 Q301.529 578.756 302.261 577.897 Q303.001 577.03 303.001 575.597 L303.001 575.271 L301.545 575.271 M304.465 574.666 L304.465 579.751 L303.001 579.751 L303.001 578.398 Q302.5 579.21 301.752 579.6 Q301.004 579.982 299.922 579.982 Q298.553 579.982 297.742 579.218 Q296.938 578.446 296.938 577.157 Q296.938 575.653 297.941 574.889 Q298.951 574.125 300.948 574.125 L303.001 574.125 L303.001 573.982 Q303.001 572.971 302.333 572.422 Q301.672 571.865 300.471 571.865 Q299.707 571.865 298.983 572.048 Q298.259 572.231 297.59 572.597 L297.59 571.245 Q298.394 570.934 299.15 570.783 Q299.906 570.624 300.622 570.624 Q302.556 570.624 303.511 571.627 Q304.465 572.629 304.465 574.666 Z" fill="#000000" fill-rule="evenodd" fill-opacity="1"></path><path clip-path="url(#clip520)" d="M 0 0 M307.449 568.309 L307.449 570.839 L310.465 570.839 L310.465 571.977 L307.449 571.977 L307.449 576.815 Q307.449 577.905 307.744 578.215 Q308.046 578.526 308.961 578.526 L310.465 578.526 L310.465 579.751 L308.961 579.751 Q307.266 579.751 306.622 579.122 Q305.977 578.486 305.977 576.815 L305.977 571.977 L304.903 571.977 L304.903 570.839 L305.977 570.839 L305.977 568.309 L307.449 568.309 Z" fill="#000000" fill-rule="evenodd" fill-opacity="1"></path><path clip-path="url(#clip520)" d="M 0 0 M312.001 570.839 L313.465 570.839 L313.465 579.751 L312.001 579.751 L312.001 570.839 M312.001 567.37 L313.465 567.37 L313.465 569.224 L312.001 569.224 L312.001 567.37 Z" fill="#000000" fill-rule="evenodd" fill-opacity="1"></path><path clip-path="url(#clip520)" d="M 0 0 M318.454 571.865 Q317.276 571.865 316.592 572.788 Q315.908 573.704 315.908 575.303 Q315.908 576.902 316.584 577.825 Q317.268 578.74 318.454 578.74 Q319.624 578.74 320.308 577.817 Q320.992 576.894 320.992 575.303 Q320.992 573.719 320.308 572.796 Q319.624 571.865 318.454 571.865 M318.454 570.624 Q320.364 570.624 321.454 571.865 Q322.544 573.107 322.544 575.303 Q322.544 577.491 321.454 578.74 Q320.364 579.982 318.454 579.982 Q316.536 579.982 315.446 578.74 Q314.364 577.491 314.364 575.303 Q314.364 573.107 315.446 571.865 Q316.536 570.624 318.454 570.624 Z" fill="#000000" fill-rule="evenodd" fill-opacity="1"></path><path clip-path="url(#clip520)" d="M 0 0 M331.488 574.372 L331.488 579.751 L330.024 579.751 L330.024 574.42 Q330.024 573.154 329.53 572.526 Q329.037 571.897 328.05 571.897 Q326.865 571.897 326.18 572.653 Q325.496 573.409 325.496 574.714 L325.496 579.751 L324.024 579.751 L324.024 570.839 L325.496 570.839 L325.496 572.224 Q326.021 571.42 326.729 571.022 Q327.446 570.624 328.377 570.624 Q329.912 570.624 330.7 571.579 Q331.488 572.526 331.488 574.372 Z" fill="#000000" fill-rule="evenodd" fill-opacity="1"></path><path clip-path="url(#clip520)" d="M 0 0 M342.715 567.37 L342.715 568.587 L341.315 568.587 Q340.527 568.587 340.217 568.905 Q339.914 569.224 339.914 570.051 L339.914 570.839 L342.325 570.839 L342.325 571.977 L339.914 571.977 L339.914 579.751 L338.442 579.751 L338.442 571.977 L337.042 571.977 L337.042 570.839 L338.442 570.839 L338.442 570.218 Q338.442 568.73 339.135 568.054 Q339.827 567.37 341.331 567.37 L342.715 567.37 Z" fill="#000000" fill-rule="evenodd" fill-opacity="1"></path><path clip-path="url(#clip520)" d="M 0 0 M349.415 572.208 Q349.169 572.064 348.874 572.001 Q348.588 571.929 348.238 571.929 Q346.996 571.929 346.328 572.741 Q345.667 573.544 345.667 575.056 L345.667 579.751 L344.195 579.751 L344.195 570.839 L345.667 570.839 L345.667 572.224 Q346.129 571.412 346.869 571.022 Q347.609 570.624 348.667 570.624 Q348.818 570.624 349.001 570.648 Q349.185 570.664 349.407 570.704 L349.415 572.208 Z" fill="#000000" fill-rule="evenodd" fill-opacity="1"></path><path clip-path="url(#clip520)" d="M 0 0 M354.046 571.865 Q352.869 571.865 352.184 572.788 Q351.5 573.704 351.5 575.303 Q351.5 576.902 352.176 577.825 Q352.861 578.74 354.046 578.74 Q355.216 578.74 355.9 577.817 Q356.585 576.894 356.585 575.303 Q356.585 573.719 355.9 572.796 Q355.216 571.865 354.046 571.865 M354.046 570.624 Q355.956 570.624 357.046 571.865 Q358.136 573.107 358.136 575.303 Q358.136 577.491 357.046 578.74 Q355.956 579.982 354.046 579.982 Q352.129 579.982 351.039 578.74 Q349.956 577.491 349.956 575.303 Q349.956 573.107 351.039 571.865 Q352.129 570.624 354.046 570.624 Z" fill="#000000" fill-rule="evenodd" fill-opacity="1"></path><path clip-path="url(#clip520)" d="M 0 0 M366.611 572.55 Q367.16 571.563 367.924 571.094 Q368.687 570.624 369.722 570.624 Q371.114 570.624 371.87 571.603 Q372.626 572.574 372.626 574.372 L372.626 579.751 L371.154 579.751 L371.154 574.42 Q371.154 573.139 370.701 572.518 Q370.247 571.897 369.316 571.897 Q368.178 571.897 367.518 572.653 Q366.857 573.409 366.857 574.714 L366.857 579.751 L365.385 579.751 L365.385 574.42 Q365.385 573.131 364.932 572.518 Q364.478 571.897 363.531 571.897 Q362.409 571.897 361.749 572.661 Q361.088 573.417 361.088 574.714 L361.088 579.751 L359.616 579.751 L359.616 570.839 L361.088 570.839 L361.088 572.224 Q361.59 571.404 362.29 571.014 Q362.99 570.624 363.953 570.624 Q364.924 570.624 365.6 571.117 Q366.284 571.611 366.611 572.55 Z" fill="#000000" fill-rule="evenodd" fill-opacity="1"></path><path clip-path="url(#clip520)" d="M 0 0 M386.527 568.261 L386.527 569.828 Q385.612 569.391 384.801 569.176 Q383.989 568.961 383.233 568.961 Q381.92 568.961 381.204 569.47 Q380.496 569.98 380.496 570.919 Q380.496 571.706 380.965 572.112 Q381.443 572.51 382.764 572.757 L383.734 572.956 Q385.533 573.298 386.384 574.165 Q387.243 575.024 387.243 576.473 Q387.243 578.199 386.082 579.091 Q384.928 579.982 382.692 579.982 Q381.849 579.982 380.894 579.791 Q379.947 579.6 378.928 579.226 L378.928 577.571 Q379.907 578.12 380.846 578.398 Q381.785 578.677 382.692 578.677 Q384.069 578.677 384.817 578.136 Q385.565 577.595 385.565 576.592 Q385.565 575.717 385.023 575.223 Q384.49 574.73 383.265 574.483 L382.286 574.292 Q380.488 573.934 379.684 573.17 Q378.881 572.407 378.881 571.046 Q378.881 569.47 379.987 568.563 Q381.101 567.656 383.05 567.656 Q383.886 567.656 384.753 567.807 Q385.62 567.958 386.527 568.261 Z" fill="#000000" fill-rule="evenodd" fill-opacity="1"></path><path clip-path="url(#clip520)" d="M 0 0 M395.964 568.261 L395.964 569.828 Q395.049 569.391 394.238 569.176 Q393.426 568.961 392.67 568.961 Q391.357 568.961 390.641 569.47 Q389.933 569.98 389.933 570.919 Q389.933 571.706 390.402 572.112 Q390.88 572.51 392.201 572.757 L393.172 572.956 Q394.97 573.298 395.821 574.165 Q396.681 575.024 396.681 576.473 Q396.681 578.199 395.519 579.091 Q394.365 579.982 392.129 579.982 Q391.286 579.982 390.331 579.791 Q389.384 579.6 388.365 579.226 L388.365 577.571 Q389.344 578.12 390.283 578.398 Q391.222 578.677 392.129 578.677 Q393.506 578.677 394.254 578.136 Q395.002 577.595 395.002 576.592 Q395.002 575.717 394.461 575.223 Q393.927 574.73 392.702 574.483 L391.723 574.292 Q389.925 573.934 389.121 573.17 Q388.318 572.407 388.318 571.046 Q388.318 569.47 389.424 568.563 Q390.538 567.656 392.487 567.656 Q393.323 567.656 394.19 567.807 Q395.057 567.958 395.964 568.261 Z" fill="#000000" fill-rule="evenodd" fill-opacity="1"></path><polyline clip-path="url(#clip522)" style="stroke:#000000; stroke-width:0.5; stroke-opacity:0.1; fill:none" points="
  55.4031,508.571 588.189,508.571 
  "></polyline>
<polyline clip-path="url(#clip522)" style="stroke:#000000; stroke-width:0.5; stroke-opacity:0.1; fill:none" points="
  55.4031,386.188 588.189,386.188 
  "></polyline>
<polyline clip-path="url(#clip522)" style="stroke:#000000; stroke-width:0.5; stroke-opacity:0.1; fill:none" points="
  55.4031,263.804 588.189,263.804 
  "></polyline>
<polyline clip-path="url(#clip522)" style="stroke:#000000; stroke-width:0.5; stroke-opacity:0.1; fill:none" points="
  55.4031,141.421 588.189,141.421 
  "></polyline>
<polyline clip-path="url(#clip520)" style="stroke:#000000; stroke-width:1; stroke-opacity:1; fill:none" points="
  55.4031,543.535 55.4031,61.108 
  "></polyline>
<polyline clip-path="url(#clip520)" style="stroke:#000000; stroke-width:1; stroke-opacity:1; fill:none" points="
  55.4031,508.571 61.7966,508.571 
  "></polyline>
<polyline clip-path="url(#clip520)" style="stroke:#000000; stroke-width:1; stroke-opacity:1; fill:none" points="
  55.4031,386.188 61.7966,386.188 
  "></polyline>
<polyline clip-path="url(#clip520)" style="stroke:#000000; stroke-width:1; stroke-opacity:1; fill:none" points="
  55.4031,263.804 61.7966,263.804 
  "></polyline>
<polyline clip-path="url(#clip520)" style="stroke:#000000; stroke-width:1; stroke-opacity:1; fill:none" points="
  55.4031,141.421 61.7966,141.421 
  "></polyline>
<path clip-path="url(#clip520)" d="M 0 0 M43.417 505.021 Q42.5143 505.021 42.0571 505.912 Q41.6057 506.797 41.6057 508.58 Q41.6057 510.356 42.0571 511.247 Q42.5143 512.133 43.417 512.133 Q44.3256 512.133 44.777 511.247 Q45.2341 510.356 45.2341 508.58 Q45.2341 506.797 44.777 505.912 Q44.3256 505.021 43.417 505.021 M43.417 504.095 Q44.8696 504.095 45.6335 505.246 Q46.4031 506.392 46.4031 508.58 Q46.4031 510.761 45.6335 511.913 Q44.8696 513.059 43.417 513.059 Q41.9645 513.059 41.1948 511.913 Q40.4309 510.761 40.4309 508.58 Q40.4309 506.392 41.1948 505.246 Q41.9645 504.095 43.417 504.095 Z" fill="#000000" fill-rule="evenodd" fill-opacity="1"></path><path clip-path="url(#clip520)" d="M 0 0 M41.1775 381.868 L45.7666 381.868 L45.7666 382.851 L42.2481 382.851 L42.2481 384.969 Q42.5027 384.883 42.7573 384.842 Q43.0119 384.796 43.2666 384.796 Q44.7133 384.796 45.5582 385.589 Q46.4031 386.381 46.4031 387.736 Q46.4031 389.13 45.5351 389.906 Q44.667 390.675 43.0872 390.675 Q42.5432 390.675 41.9761 390.583 Q41.4147 390.49 40.8129 390.305 L40.8129 389.13 Q41.3337 389.414 41.8893 389.553 Q42.4448 389.692 43.064 389.692 Q44.0652 389.692 44.6497 389.165 Q45.2341 388.638 45.2341 387.736 Q45.2341 386.833 44.6497 386.306 Q44.0652 385.78 43.064 385.78 Q42.5953 385.78 42.1265 385.884 Q41.6636 385.988 41.1775 386.208 L41.1775 381.868 Z" fill="#000000" fill-rule="evenodd" fill-opacity="1"></path><path clip-path="url(#clip520)" d="M 0 0 M34.6729 267.14 L36.5826 267.14 L36.5826 260.549 L34.505 260.966 L34.505 259.901 L36.571 259.484 L37.74 259.484 L37.74 267.14 L39.6497 267.14 L39.6497 268.124 L34.6729 268.124 L34.6729 267.14 Z" fill="#000000" fill-rule="evenodd" fill-opacity="1"></path><path clip-path="url(#clip520)" d="M 0 0 M43.417 260.254 Q42.5143 260.254 42.0571 261.145 Q41.6057 262.031 41.6057 263.813 Q41.6057 265.59 42.0571 266.481 Q42.5143 267.366 43.417 267.366 Q44.3256 267.366 44.777 266.481 Q45.2341 265.59 45.2341 263.813 Q45.2341 262.031 44.777 261.145 Q44.3256 260.254 43.417 260.254 M43.417 259.328 Q44.8696 259.328 45.6335 260.48 Q46.4031 261.625 46.4031 263.813 Q46.4031 265.995 45.6335 267.146 Q44.8696 268.292 43.417 268.292 Q41.9645 268.292 41.1948 267.146 Q40.4309 265.995 40.4309 263.813 Q40.4309 261.625 41.1948 260.48 Q41.9645 259.328 43.417 259.328 Z" fill="#000000" fill-rule="evenodd" fill-opacity="1"></path><path clip-path="url(#clip520)" d="M 0 0 M34.9217 144.757 L36.8314 144.757 L36.8314 138.166 L34.7539 138.582 L34.7539 137.518 L36.8198 137.101 L37.9888 137.101 L37.9888 144.757 L39.8985 144.757 L39.8985 145.741 L34.9217 145.741 L34.9217 144.757 Z" fill="#000000" fill-rule="evenodd" fill-opacity="1"></path><path clip-path="url(#clip520)" d="M 0 0 M41.1775 137.101 L45.7666 137.101 L45.7666 138.085 L42.2481 138.085 L42.2481 140.203 Q42.5027 140.116 42.7573 140.075 Q43.0119 140.029 43.2666 140.029 Q44.7133 140.029 45.5582 140.822 Q46.4031 141.615 46.4031 142.969 Q46.4031 144.364 45.5351 145.139 Q44.667 145.909 43.0872 145.909 Q42.5432 145.909 41.9761 145.816 Q41.4147 145.724 40.8129 145.538 L40.8129 144.364 Q41.3337 144.647 41.8893 144.786 Q42.4448 144.925 43.064 144.925 Q44.0652 144.925 44.6497 144.398 Q45.2341 143.872 45.2341 142.969 Q45.2341 142.066 44.6497 141.54 Q44.0652 141.013 43.064 141.013 Q42.5953 141.013 42.1265 141.117 Q41.6636 141.221 41.1775 141.441 L41.1775 137.101 Z" fill="#000000" fill-rule="evenodd" fill-opacity="1"></path><path clip-path="url(#clip520)" d="M 0 0 M10.061 329.177 L10.061 327.569 L14.9308 327.569 L14.9308 321.729 L10.061 321.729 L10.061 320.122 L21.941 320.122 L21.941 321.729 L16.2835 321.729 L16.2835 327.569 L21.941 327.569 L21.941 329.177 L10.061 329.177 Z" fill="#000000" fill-rule="evenodd" fill-opacity="1"></path><path clip-path="url(#clip520)" d="M 0 0 M14.0555 315.132 Q14.0555 316.31 14.9785 316.994 Q15.8936 317.679 17.493 317.679 Q19.0924 317.679 20.0154 317.002 Q20.9305 316.318 20.9305 315.132 Q20.9305 313.963 20.0075 313.278 Q19.0844 312.594 17.493 312.594 Q15.9095 312.594 14.9865 313.278 Q14.0555 313.963 14.0555 315.132 M12.8142 315.132 Q12.8142 313.223 14.0555 312.133 Q15.2968 311.043 17.493 311.043 Q19.6812 311.043 20.9305 312.133 Q22.1718 313.223 22.1718 315.132 Q22.1718 317.05 20.9305 318.14 Q19.6812 319.222 17.493 319.222 Q15.2968 319.222 14.0555 318.14 Q12.8142 317.05 12.8142 315.132 Z" fill="#000000" fill-rule="evenodd" fill-opacity="1"></path><path clip-path="url(#clip520)" d="M 0 0 M14.3977 304.343 Q14.2544 304.589 14.1908 304.884 Q14.1192 305.17 14.1192 305.52 Q14.1192 306.762 14.9308 307.43 Q15.7345 308.09 17.2463 308.09 L21.941 308.09 L21.941 309.562 L13.0291 309.562 L13.0291 308.09 L14.4136 308.09 Q13.602 307.629 13.2121 306.889 Q12.8142 306.149 12.8142 305.091 Q12.8142 304.939 12.8381 304.756 Q12.854 304.573 12.8938 304.351 L14.3977 304.343 Z" fill="#000000" fill-rule="evenodd" fill-opacity="1"></path><path clip-path="url(#clip520)" d="M 0 0 M13.0291 302.807 L13.0291 301.343 L21.941 301.343 L21.941 302.807 L13.0291 302.807 M9.55974 302.807 L9.55974 301.343 L11.4138 301.343 L11.4138 302.807 L9.55974 302.807 Z" fill="#000000" fill-rule="evenodd" fill-opacity="1"></path><path clip-path="url(#clip520)" d="M 0 0 M13.0291 300.444 L13.0291 293.489 L14.3658 293.489 L20.7713 298.995 L20.7713 293.489 L21.941 293.489 L21.941 300.643 L20.6042 300.643 L14.1987 295.136 L14.1987 300.444 L13.0291 300.444 Z" fill="#000000" fill-rule="evenodd" fill-opacity="1"></path><path clip-path="url(#clip520)" d="M 0 0 M14.0555 288.5 Q14.0555 289.678 14.9785 290.362 Q15.8936 291.046 17.493 291.046 Q19.0924 291.046 20.0154 290.37 Q20.9305 289.686 20.9305 288.5 Q20.9305 287.33 20.0075 286.646 Q19.0844 285.962 17.493 285.962 Q15.9095 285.962 14.9865 286.646 Q14.0555 287.33 14.0555 288.5 M12.8142 288.5 Q12.8142 286.59 14.0555 285.5 Q15.2968 284.41 17.493 284.41 Q19.6812 284.41 20.9305 285.5 Q22.1718 286.59 22.1718 288.5 Q22.1718 290.418 20.9305 291.508 Q19.6812 292.59 17.493 292.59 Q15.2968 292.59 14.0555 291.508 Q12.8142 290.418 12.8142 288.5 Z" fill="#000000" fill-rule="evenodd" fill-opacity="1"></path><path clip-path="url(#clip520)" d="M 0 0 M16.562 275.466 L21.941 275.466 L21.941 276.93 L16.6098 276.93 Q15.3446 276.93 14.716 277.424 Q14.0873 277.917 14.0873 278.904 Q14.0873 280.089 14.8433 280.774 Q15.5992 281.458 16.9042 281.458 L21.941 281.458 L21.941 282.93 L13.0291 282.93 L13.0291 281.458 L14.4136 281.458 Q13.6099 280.933 13.2121 280.225 Q12.8142 279.508 12.8142 278.577 Q12.8142 277.042 13.7691 276.254 Q14.716 275.466 16.562 275.466 Z" fill="#000000" fill-rule="evenodd" fill-opacity="1"></path><path clip-path="url(#clip520)" d="M 0 0 M128.3 3.024 L130.345 3.024 L130.345 18.144 L128.3 18.144 L128.3 3.024 Z" fill="#000000" fill-rule="evenodd" fill-opacity="1"></path><path clip-path="url(#clip520)" d="M 0 0 M141.131 8.97883 Q141.83 7.72305 142.802 7.12554 Q143.774 6.52803 145.091 6.52803 Q146.863 6.52803 147.825 7.77369 Q148.787 9.00921 148.787 11.298 L148.787 18.144 L146.913 18.144 L146.913 11.3587 Q146.913 9.72825 146.336 8.93832 Q145.759 8.14839 144.574 8.14839 Q143.126 8.14839 142.285 9.11048 Q141.445 10.0726 141.445 11.7334 L141.445 18.144 L139.571 18.144 L139.571 11.3587 Q139.571 9.71812 138.994 8.93832 Q138.417 8.14839 137.212 8.14839 Q135.784 8.14839 134.943 9.12061 Q134.102 10.0827 134.102 11.7334 L134.102 18.144 L132.229 18.144 L132.229 6.80147 L134.102 6.80147 L134.102 8.56361 Q134.74 7.5205 135.632 7.02427 Q136.523 6.52803 137.748 6.52803 Q138.984 6.52803 139.845 7.15592 Q140.716 7.78381 141.131 8.97883 Z" fill="#000000" fill-rule="evenodd" fill-opacity="1"></path><path clip-path="url(#clip520)" d="M 0 0 M152.544 16.4426 L152.544 22.4582 L150.671 22.4582 L150.671 6.80147 L152.544 6.80147 L152.544 8.5231 Q153.132 7.51038 154.023 7.02427 Q154.924 6.52803 156.17 6.52803 Q158.236 6.52803 159.522 8.16865 Q160.818 9.80926 160.818 12.4829 Q160.818 15.1565 159.522 16.7971 Q158.236 18.4377 156.17 18.4377 Q154.924 18.4377 154.023 17.9516 Q153.132 17.4553 152.544 16.4426 M158.884 12.4829 Q158.884 10.427 158.033 9.26239 Q157.193 8.08763 155.714 8.08763 Q154.235 8.08763 153.385 9.26239 Q152.544 10.427 152.544 12.4829 Q152.544 14.5387 153.385 15.7135 Q154.235 16.8781 155.714 16.8781 Q157.193 16.8781 158.033 15.7135 Q158.884 14.5387 158.884 12.4829 Z" fill="#000000" fill-rule="evenodd" fill-opacity="1"></path><path clip-path="url(#clip520)" d="M 0 0 M162.58 13.6678 L162.58 6.80147 L164.444 6.80147 L164.444 13.5969 Q164.444 15.2071 165.072 16.0173 Q165.7 16.8173 166.955 16.8173 Q168.464 16.8173 169.335 15.8552 Q170.216 14.8931 170.216 13.2323 L170.216 6.80147 L172.08 6.80147 L172.08 18.144 L170.216 18.144 L170.216 16.4021 Q169.538 17.4351 168.636 17.9415 Q167.745 18.4377 166.56 18.4377 Q164.606 18.4377 163.593 17.2224 Q162.58 16.0071 162.58 13.6678 M167.269 6.52803 L167.269 6.52803 Z" fill="#000000" fill-rule="evenodd" fill-opacity="1"></path><path clip-path="url(#clip520)" d="M 0 0 M174.034 2.38598 L175.898 2.38598 L175.898 18.144 L174.034 18.144 L174.034 2.38598 Z" fill="#000000" fill-rule="evenodd" fill-opacity="1"></path><path clip-path="url(#clip520)" d="M 0 0 M185.083 7.13567 L185.083 8.89781 Q184.293 8.49272 183.442 8.29018 Q182.592 8.08763 181.68 8.08763 Q180.293 8.08763 179.594 8.51298 Q178.905 8.93832 178.905 9.78901 Q178.905 10.4372 179.402 10.8119 Q179.898 11.1764 181.397 11.5106 L182.035 11.6524 Q184.02 12.0778 184.85 12.8576 Q185.691 13.6272 185.691 15.0147 Q185.691 16.5945 184.435 17.5161 Q183.189 18.4377 181.002 18.4377 Q180.09 18.4377 179.098 18.2554 Q178.116 18.0832 177.022 17.7288 L177.022 15.8046 Q178.055 16.3413 179.057 16.6148 Q180.06 16.8781 181.042 16.8781 Q182.359 16.8781 183.068 16.4325 Q183.777 15.9768 183.777 15.1565 Q183.777 14.3969 183.26 13.9918 Q182.754 13.5867 181.022 13.212 L180.374 13.0601 Q178.642 12.6955 177.872 11.9461 Q177.103 11.1866 177.103 9.87003 Q177.103 8.26992 178.237 7.39898 Q179.371 6.52803 181.458 6.52803 Q182.491 6.52803 183.402 6.67994 Q184.313 6.83185 185.083 7.13567 Z" fill="#000000" fill-rule="evenodd" fill-opacity="1"></path><path clip-path="url(#clip520)" d="M 0 0 M197.347 12.0069 L197.347 12.9183 L188.78 12.9183 Q188.901 14.8425 189.934 15.8552 Q190.977 16.8578 192.83 16.8578 Q193.904 16.8578 194.907 16.5945 Q195.919 16.3312 196.912 15.8046 L196.912 17.5667 Q195.909 17.9921 194.856 18.2149 Q193.803 18.4377 192.719 18.4377 Q190.005 18.4377 188.415 16.8578 Q186.835 15.278 186.835 12.5841 Q186.835 9.79914 188.334 8.16865 Q189.843 6.52803 192.395 6.52803 Q194.684 6.52803 196.01 8.00661 Q197.347 9.47506 197.347 12.0069 M195.484 11.46 Q195.464 9.93079 194.623 9.01934 Q193.793 8.10788 192.415 8.10788 Q190.856 8.10788 189.914 8.98896 Q188.982 9.87003 188.84 11.4701 L195.484 11.46 Z" fill="#000000" fill-rule="evenodd" fill-opacity="1"></path><path clip-path="url(#clip520)" d="M 0 0 M213.146 11.0549 Q213.804 11.2777 214.422 12.0069 Q215.05 12.736 215.678 14.0121 L217.754 18.144 L215.556 18.144 L213.622 14.2653 Q212.872 12.7462 212.163 12.2499 Q211.465 11.7537 210.249 11.7537 L208.021 11.7537 L208.021 18.144 L205.976 18.144 L205.976 3.024 L210.594 3.024 Q213.186 3.024 214.462 4.10762 Q215.738 5.19123 215.738 7.37872 Q215.738 8.80667 215.07 9.7485 Q214.412 10.6903 213.146 11.0549 M208.021 4.70513 L208.021 10.0726 L210.594 10.0726 Q212.072 10.0726 212.822 9.39405 Q213.581 8.70539 213.581 7.37872 Q213.581 6.05205 212.822 5.38365 Q212.072 4.70513 210.594 4.70513 L208.021 4.70513 Z" fill="#000000" fill-rule="evenodd" fill-opacity="1"></path><path clip-path="url(#clip520)" d="M 0 0 M228.478 12.0069 L228.478 12.9183 L219.911 12.9183 Q220.032 14.8425 221.065 15.8552 Q222.108 16.8578 223.962 16.8578 Q225.035 16.8578 226.038 16.5945 Q227.05 16.3312 228.043 15.8046 L228.043 17.5667 Q227.04 17.9921 225.987 18.2149 Q224.934 18.4377 223.85 18.4377 Q221.136 18.4377 219.546 16.8578 Q217.966 15.278 217.966 12.5841 Q217.966 9.79914 219.465 8.16865 Q220.974 6.52803 223.526 6.52803 Q225.815 6.52803 227.142 8.00661 Q228.478 9.47506 228.478 12.0069 M226.615 11.46 Q226.595 9.93079 225.754 9.01934 Q224.924 8.10788 223.546 8.10788 Q221.987 8.10788 221.045 8.98896 Q220.113 9.87003 219.972 11.4701 L226.615 11.46 Z" fill="#000000" fill-rule="evenodd" fill-opacity="1"></path><path clip-path="url(#clip520)" d="M 0 0 M237.664 7.13567 L237.664 8.89781 Q236.874 8.49272 236.023 8.29018 Q235.173 8.08763 234.261 8.08763 Q232.874 8.08763 232.175 8.51298 Q231.486 8.93832 231.486 9.78901 Q231.486 10.4372 231.982 10.8119 Q232.479 11.1764 233.978 11.5106 L234.616 11.6524 Q236.6 12.0778 237.431 12.8576 Q238.271 13.6272 238.271 15.0147 Q238.271 16.5945 237.016 17.5161 Q235.77 18.4377 233.583 18.4377 Q232.671 18.4377 231.679 18.2554 Q230.696 18.0832 229.603 17.7288 L229.603 15.8046 Q230.636 16.3413 231.638 16.6148 Q232.641 16.8781 233.623 16.8781 Q234.94 16.8781 235.649 16.4325 Q236.357 15.9768 236.357 15.1565 Q236.357 14.3969 235.841 13.9918 Q235.335 13.5867 233.603 13.212 L232.955 13.0601 Q231.223 12.6955 230.453 11.9461 Q229.684 11.1866 229.684 9.87003 Q229.684 8.26992 230.818 7.39898 Q231.952 6.52803 234.038 6.52803 Q235.071 6.52803 235.983 6.67994 Q236.894 6.83185 237.664 7.13567 Z" fill="#000000" fill-rule="evenodd" fill-opacity="1"></path><path clip-path="url(#clip520)" d="M 0 0 M242.029 16.4426 L242.029 22.4582 L240.155 22.4582 L240.155 6.80147 L242.029 6.80147 L242.029 8.5231 Q242.616 7.51038 243.507 7.02427 Q244.409 6.52803 245.654 6.52803 Q247.72 6.52803 249.006 8.16865 Q250.303 9.80926 250.303 12.4829 Q250.303 15.1565 249.006 16.7971 Q247.72 18.4377 245.654 18.4377 Q244.409 18.4377 243.507 17.9516 Q242.616 17.4553 242.029 16.4426 M248.368 12.4829 Q248.368 10.427 247.518 9.26239 Q246.677 8.08763 245.199 8.08763 Q243.72 8.08763 242.869 9.26239 Q242.029 10.427 242.029 12.4829 Q242.029 14.5387 242.869 15.7135 Q243.72 16.8781 245.199 16.8781 Q246.677 16.8781 247.518 15.7135 Q248.368 14.5387 248.368 12.4829 Z" fill="#000000" fill-rule="evenodd" fill-opacity="1"></path><path clip-path="url(#clip520)" d="M 0 0 M256.652 8.10788 Q255.154 8.10788 254.283 9.28265 Q253.412 10.4473 253.412 12.4829 Q253.412 14.5184 254.273 15.6932 Q255.143 16.8578 256.652 16.8578 Q258.141 16.8578 259.012 15.6831 Q259.883 14.5083 259.883 12.4829 Q259.883 10.4675 259.012 9.29277 Q258.141 8.10788 256.652 8.10788 M256.652 6.52803 Q259.083 6.52803 260.47 8.10788 Q261.858 9.68774 261.858 12.4829 Q261.858 15.2679 260.47 16.8578 Q259.083 18.4377 256.652 18.4377 Q254.212 18.4377 252.824 16.8578 Q251.447 15.2679 251.447 12.4829 Q251.447 9.68774 252.824 8.10788 Q254.212 6.52803 256.652 6.52803 Z" fill="#000000" fill-rule="evenodd" fill-opacity="1"></path><path clip-path="url(#clip520)" d="M 0 0 M273.241 11.298 L273.241 18.144 L271.377 18.144 L271.377 11.3587 Q271.377 9.7485 270.75 8.94845 Q270.122 8.14839 268.866 8.14839 Q267.357 8.14839 266.486 9.11048 Q265.615 10.0726 265.615 11.7334 L265.615 18.144 L263.742 18.144 L263.742 6.80147 L265.615 6.80147 L265.615 8.56361 Q266.283 7.54076 267.185 7.0344 Q268.096 6.52803 269.281 6.52803 Q271.236 6.52803 272.238 7.7433 Q273.241 8.94845 273.241 11.298 Z" fill="#000000" fill-rule="evenodd" fill-opacity="1"></path><path clip-path="url(#clip520)" d="M 0 0 M282.426 7.13567 L282.426 8.89781 Q281.636 8.49272 280.786 8.29018 Q279.935 8.08763 279.024 8.08763 Q277.636 8.08763 276.937 8.51298 Q276.249 8.93832 276.249 9.78901 Q276.249 10.4372 276.745 10.8119 Q277.241 11.1764 278.74 11.5106 L279.378 11.6524 Q281.363 12.0778 282.193 12.8576 Q283.034 13.6272 283.034 15.0147 Q283.034 16.5945 281.778 17.5161 Q280.533 18.4377 278.345 18.4377 Q277.434 18.4377 276.441 18.2554 Q275.459 18.0832 274.365 17.7288 L274.365 15.8046 Q275.398 16.3413 276.401 16.6148 Q277.403 16.8781 278.386 16.8781 Q279.702 16.8781 280.411 16.4325 Q281.12 15.9768 281.12 15.1565 Q281.12 14.3969 280.603 13.9918 Q280.097 13.5867 278.365 13.212 L277.717 13.0601 Q275.985 12.6955 275.216 11.9461 Q274.446 11.1866 274.446 9.87003 Q274.446 8.26992 275.58 7.39898 Q276.715 6.52803 278.801 6.52803 Q279.834 6.52803 280.745 6.67994 Q281.657 6.83185 282.426 7.13567 Z" fill="#000000" fill-rule="evenodd" fill-opacity="1"></path><path clip-path="url(#clip520)" d="M 0 0 M294.69 12.0069 L294.69 12.9183 L286.123 12.9183 Q286.244 14.8425 287.277 15.8552 Q288.32 16.8578 290.174 16.8578 Q291.247 16.8578 292.25 16.5945 Q293.262 16.3312 294.255 15.8046 L294.255 17.5667 Q293.252 17.9921 292.199 18.2149 Q291.146 18.4377 290.062 18.4377 Q287.348 18.4377 285.758 16.8578 Q284.178 15.278 284.178 12.5841 Q284.178 9.79914 285.677 8.16865 Q287.186 6.52803 289.738 6.52803 Q292.027 6.52803 293.354 8.00661 Q294.69 9.47506 294.69 12.0069 M292.827 11.46 Q292.807 9.93079 291.966 9.01934 Q291.136 8.10788 289.758 8.10788 Q288.199 8.10788 287.257 8.98896 Q286.325 9.87003 286.184 11.4701 L292.827 11.46 Z" fill="#000000" fill-rule="evenodd" fill-opacity="1"></path><path clip-path="url(#clip520)" d="M 0 0 M303.319 3.024 L312.008 3.024 L312.008 4.74563 L305.365 4.74563 L305.365 9.20163 L311.36 9.20163 L311.36 10.9233 L305.365 10.9233 L305.365 18.144 L303.319 18.144 L303.319 3.024 Z" fill="#000000" fill-rule="evenodd" fill-opacity="1"></path><path clip-path="url(#clip520)" d="M 0 0 M312.636 13.6678 L312.636 6.80147 L314.499 6.80147 L314.499 13.5969 Q314.499 15.2071 315.127 16.0173 Q315.755 16.8173 317.011 16.8173 Q318.52 16.8173 319.391 15.8552 Q320.272 14.8931 320.272 13.2323 L320.272 6.80147 L322.135 6.80147 L322.135 18.144 L320.272 18.144 L320.272 16.4021 Q319.593 17.4351 318.692 17.9415 Q317.801 18.4377 316.616 18.4377 Q314.661 18.4377 313.649 17.2224 Q312.636 16.0071 312.636 13.6678 M317.325 6.52803 L317.325 6.52803 Z" fill="#000000" fill-rule="evenodd" fill-opacity="1"></path><path clip-path="url(#clip520)" d="M 0 0 M333.518 11.298 L333.518 18.144 L331.655 18.144 L331.655 11.3587 Q331.655 9.7485 331.027 8.94845 Q330.399 8.14839 329.143 8.14839 Q327.634 8.14839 326.763 9.11048 Q325.893 10.0726 325.893 11.7334 L325.893 18.144 L324.019 18.144 L324.019 6.80147 L325.893 6.80147 L325.893 8.56361 Q326.561 7.54076 327.462 7.0344 Q328.374 6.52803 329.559 6.52803 Q331.513 6.52803 332.516 7.7433 Q333.518 8.94845 333.518 11.298 Z" fill="#000000" fill-rule="evenodd" fill-opacity="1"></path><path clip-path="url(#clip520)" d="M 0 0 M343.635 7.23694 L343.635 8.97883 Q342.846 8.54336 342.046 8.33068 Q341.256 8.10788 340.445 8.10788 Q338.633 8.10788 337.63 9.26239 Q336.627 10.4068 336.627 12.4829 Q336.627 14.5589 337.63 15.7135 Q338.633 16.8578 340.445 16.8578 Q341.256 16.8578 342.046 16.6452 Q342.846 16.4224 343.635 15.9869 L343.635 17.7085 Q342.856 18.0731 342.015 18.2554 Q341.185 18.4377 340.243 18.4377 Q337.681 18.4377 336.172 16.8275 Q334.663 15.2172 334.663 12.4829 Q334.663 9.70799 336.182 8.11801 Q337.711 6.52803 340.364 6.52803 Q341.225 6.52803 342.046 6.71032 Q342.866 6.88249 343.635 7.23694 Z" fill="#000000" fill-rule="evenodd" fill-opacity="1"></path><path clip-path="url(#clip520)" d="M 0 0 M347.433 3.581 L347.433 6.80147 L351.271 6.80147 L351.271 8.24967 L347.433 8.24967 L347.433 14.407 Q347.433 15.7945 347.808 16.1894 Q348.193 16.5844 349.357 16.5844 L351.271 16.5844 L351.271 18.144 L349.357 18.144 Q347.2 18.144 346.38 17.3439 Q345.56 16.5338 345.56 14.407 L345.56 8.24967 L344.192 8.24967 L344.192 6.80147 L345.56 6.80147 L345.56 3.581 L347.433 3.581 Z" fill="#000000" fill-rule="evenodd" fill-opacity="1"></path><path clip-path="url(#clip520)" d="M 0 0 M353.226 6.80147 L355.089 6.80147 L355.089 18.144 L353.226 18.144 L353.226 6.80147 M353.226 2.38598 L355.089 2.38598 L355.089 4.74563 L353.226 4.74563 L353.226 2.38598 Z" fill="#000000" fill-rule="evenodd" fill-opacity="1"></path><path clip-path="url(#clip520)" d="M 0 0 M361.439 8.10788 Q359.94 8.10788 359.069 9.28265 Q358.198 10.4473 358.198 12.4829 Q358.198 14.5184 359.059 15.6932 Q359.93 16.8578 361.439 16.8578 Q362.928 16.8578 363.799 15.6831 Q364.67 14.5083 364.67 12.4829 Q364.67 10.4675 363.799 9.29277 Q362.928 8.10788 361.439 8.10788 M361.439 6.52803 Q363.87 6.52803 365.257 8.10788 Q366.645 9.68774 366.645 12.4829 Q366.645 15.2679 365.257 16.8578 Q363.87 18.4377 361.439 18.4377 Q358.999 18.4377 357.611 16.8578 Q356.234 15.2679 356.234 12.4829 Q356.234 9.68774 357.611 8.10788 Q358.999 6.52803 361.439 6.52803 Z" fill="#000000" fill-rule="evenodd" fill-opacity="1"></path><path clip-path="url(#clip520)" d="M 0 0 M378.028 11.298 L378.028 18.144 L376.164 18.144 L376.164 11.3587 Q376.164 9.7485 375.536 8.94845 Q374.908 8.14839 373.653 8.14839 Q372.144 8.14839 371.273 9.11048 Q370.402 10.0726 370.402 11.7334 L370.402 18.144 L368.528 18.144 L368.528 6.80147 L370.402 6.80147 L370.402 8.56361 Q371.07 7.54076 371.972 7.0344 Q372.883 6.52803 374.068 6.52803 Q376.022 6.52803 377.025 7.7433 Q378.028 8.94845 378.028 11.298 Z" fill="#000000" fill-rule="evenodd" fill-opacity="1"></path><path clip-path="url(#clip520)" d="M 0 0 M390.97 8.10788 Q389.471 8.10788 388.601 9.28265 Q387.73 10.4473 387.73 12.4829 Q387.73 14.5184 388.59 15.6932 Q389.461 16.8578 390.97 16.8578 Q392.459 16.8578 393.33 15.6831 Q394.201 14.5083 394.201 12.4829 Q394.201 10.4675 393.33 9.29277 Q392.459 8.10788 390.97 8.10788 M390.97 6.52803 Q393.401 6.52803 394.788 8.10788 Q396.176 9.68774 396.176 12.4829 Q396.176 15.2679 394.788 16.8578 Q393.401 18.4377 390.97 18.4377 Q388.53 18.4377 387.142 16.8578 Q385.765 15.2679 385.765 12.4829 Q385.765 9.68774 387.142 8.10788 Q388.53 6.52803 390.97 6.52803 Z" fill="#000000" fill-rule="evenodd" fill-opacity="1"></path><path clip-path="url(#clip520)" d="M 0 0 M403.872 2.38598 L403.872 3.93545 L402.09 3.93545 Q401.087 3.93545 400.692 4.34054 Q400.308 4.74563 400.308 5.79887 L400.308 6.80147 L403.376 6.80147 L403.376 8.24967 L400.308 8.24967 L400.308 18.144 L398.434 18.144 L398.434 8.24967 L396.652 8.24967 L396.652 6.80147 L398.434 6.80147 L398.434 6.01154 Q398.434 4.11774 399.315 3.25693 Q400.196 2.38598 402.11 2.38598 L403.872 2.38598 Z" fill="#000000" fill-rule="evenodd" fill-opacity="1"></path><path clip-path="url(#clip520)" d="M 0 0 M414.222 16.4426 L414.222 22.4582 L412.349 22.4582 L412.349 6.80147 L414.222 6.80147 L414.222 8.5231 Q414.81 7.51038 415.701 7.02427 Q416.602 6.52803 417.848 6.52803 Q419.914 6.52803 421.2 8.16865 Q422.496 9.80926 422.496 12.4829 Q422.496 15.1565 421.2 16.7971 Q419.914 18.4377 417.848 18.4377 Q416.602 18.4377 415.701 17.9516 Q414.81 17.4553 414.222 16.4426 M420.562 12.4829 Q420.562 10.427 419.711 9.26239 Q418.871 8.08763 417.392 8.08763 Q415.914 8.08763 415.063 9.26239 Q414.222 10.427 414.222 12.4829 Q414.222 14.5387 415.063 15.7135 Q415.914 16.8781 417.392 16.8781 Q418.871 16.8781 419.711 15.7135 Q420.562 14.5387 420.562 12.4829 Z" fill="#000000" fill-rule="evenodd" fill-opacity="1"></path><path clip-path="url(#clip520)" d="M 0 0 M428.846 8.10788 Q427.347 8.10788 426.476 9.28265 Q425.606 10.4473 425.606 12.4829 Q425.606 14.5184 426.466 15.6932 Q427.337 16.8578 428.846 16.8578 Q430.335 16.8578 431.206 15.6831 Q432.077 14.5083 432.077 12.4829 Q432.077 10.4675 431.206 9.29277 Q430.335 8.10788 428.846 8.10788 M428.846 6.52803 Q431.277 6.52803 432.664 8.10788 Q434.052 9.68774 434.052 12.4829 Q434.052 15.2679 432.664 16.8578 Q431.277 18.4377 428.846 18.4377 Q426.406 18.4377 425.018 16.8578 Q423.641 15.2679 423.641 12.4829 Q423.641 9.68774 425.018 8.10788 Q426.406 6.52803 428.846 6.52803 Z" fill="#000000" fill-rule="evenodd" fill-opacity="1"></path><path clip-path="url(#clip520)" d="M 0 0 M436.006 2.38598 L437.87 2.38598 L437.87 18.144 L436.006 18.144 L436.006 2.38598 Z" fill="#000000" fill-rule="evenodd" fill-opacity="1"></path><path clip-path="url(#clip520)" d="M 0 0 M439.824 6.80147 L441.688 6.80147 L441.688 18.144 L439.824 18.144 L439.824 6.80147 M439.824 2.38598 L441.688 2.38598 L441.688 4.74563 L439.824 4.74563 L439.824 2.38598 Z" fill="#000000" fill-rule="evenodd" fill-opacity="1"></path><path clip-path="url(#clip520)" d="M 0 0 M451.805 7.23694 L451.805 8.97883 Q451.015 8.54336 450.215 8.33068 Q449.425 8.10788 448.615 8.10788 Q446.802 8.10788 445.799 9.26239 Q444.797 10.4068 444.797 12.4829 Q444.797 14.5589 445.799 15.7135 Q446.802 16.8578 448.615 16.8578 Q449.425 16.8578 450.215 16.6452 Q451.015 16.4224 451.805 15.9869 L451.805 17.7085 Q451.025 18.0731 450.184 18.2554 Q449.354 18.4377 448.412 18.4377 Q445.85 18.4377 444.341 16.8275 Q442.832 15.2172 442.832 12.4829 Q442.832 9.70799 444.351 8.11801 Q445.88 6.52803 448.534 6.52803 Q449.394 6.52803 450.215 6.71032 Q451.035 6.88249 451.805 7.23694 Z" fill="#000000" fill-rule="evenodd" fill-opacity="1"></path><path clip-path="url(#clip520)" d="M 0 0 M458.479 19.1972 Q457.689 21.2227 456.939 21.8405 Q456.19 22.4582 454.934 22.4582 L453.445 22.4582 L453.445 20.8986 L454.539 20.8986 Q455.309 20.8986 455.734 20.534 Q456.159 20.1695 456.676 18.8124 L457.01 17.9617 L452.423 6.80147 L454.397 6.80147 L457.942 15.6729 L461.486 6.80147 L463.461 6.80147 L458.479 19.1972 Z" fill="#000000" fill-rule="evenodd" fill-opacity="1"></path><path clip-path="url(#clip520)" d="M 0 0 M478.581 8.54336 Q478.267 8.36107 477.893 8.28005 Q477.528 8.1889 477.082 8.1889 Q475.503 8.1889 474.652 9.22188 Q473.811 10.2447 473.811 12.1689 L473.811 18.144 L471.938 18.144 L471.938 6.80147 L473.811 6.80147 L473.811 8.56361 Q474.399 7.53063 475.341 7.0344 Q476.282 6.52803 477.629 6.52803 Q477.822 6.52803 478.055 6.55841 Q478.288 6.57867 478.571 6.6293 L478.581 8.54336 Z" fill="#000000" fill-rule="evenodd" fill-opacity="1"></path><path clip-path="url(#clip520)" d="M 0 0 M485.691 12.4424 Q483.432 12.4424 482.561 12.9588 Q481.69 13.4753 481.69 14.721 Q481.69 15.7135 482.338 16.3008 Q482.997 16.8781 484.121 16.8781 Q485.67 16.8781 486.602 15.7843 Q487.544 14.6805 487.544 12.8576 L487.544 12.4424 L485.691 12.4424 M489.407 11.6727 L489.407 18.144 L487.544 18.144 L487.544 16.4224 Q486.906 17.4553 485.954 17.9516 Q485.002 18.4377 483.625 18.4377 Q481.883 18.4377 480.85 17.4655 Q479.827 16.4831 479.827 14.8425 Q479.827 12.9285 481.103 11.9562 Q482.389 10.984 484.931 10.984 L487.544 10.984 L487.544 10.8017 Q487.544 9.51557 486.693 8.81679 Q485.853 8.10788 484.323 8.10788 Q483.351 8.10788 482.43 8.34081 Q481.508 8.57374 480.657 9.03959 L480.657 7.31796 Q481.68 6.923 482.642 6.73058 Q483.604 6.52803 484.516 6.52803 Q486.977 6.52803 488.192 7.80407 Q489.407 9.0801 489.407 11.6727 Z" fill="#000000" fill-rule="evenodd" fill-opacity="1"></path><path clip-path="url(#clip520)" d="M 0 0 M493.205 3.581 L493.205 6.80147 L497.043 6.80147 L497.043 8.24967 L493.205 8.24967 L493.205 14.407 Q493.205 15.7945 493.58 16.1894 Q493.965 16.5844 495.129 16.5844 L497.043 16.5844 L497.043 18.144 L495.129 18.144 Q492.972 18.144 492.152 17.3439 Q491.331 16.5338 491.331 14.407 L491.331 8.24967 L489.964 8.24967 L489.964 6.80147 L491.331 6.80147 L491.331 3.581 L493.205 3.581 Z" fill="#000000" fill-rule="evenodd" fill-opacity="1"></path><path clip-path="url(#clip520)" d="M 0 0 M508.7 12.0069 L508.7 12.9183 L500.132 12.9183 Q500.254 14.8425 501.287 15.8552 Q502.33 16.8578 504.183 16.8578 Q505.256 16.8578 506.259 16.5945 Q507.272 16.3312 508.264 15.8046 L508.264 17.5667 Q507.262 17.9921 506.208 18.2149 Q505.155 18.4377 504.072 18.4377 Q501.357 18.4377 499.767 16.8578 Q498.188 15.278 498.188 12.5841 Q498.188 9.79914 499.686 8.16865 Q501.195 6.52803 503.747 6.52803 Q506.036 6.52803 507.363 8.00661 Q508.7 9.47506 508.7 12.0069 M506.836 11.46 Q506.816 9.93079 505.975 9.01934 Q505.145 8.10788 503.768 8.10788 Q502.208 8.10788 501.266 8.98896 Q500.335 9.87003 500.193 11.4701 L506.836 11.46 Z" fill="#000000" fill-rule="evenodd" fill-opacity="1"></path><path clip-path="url(#clip520)" d="M 0 0 M211.318 29.4815 L213.181 29.4815 L213.181 40.824 L211.318 40.824 L211.318 29.4815 M211.318 25.066 L213.181 25.066 L213.181 27.4256 L211.318 27.4256 L211.318 25.066 Z" fill="#000000" fill-rule="evenodd" fill-opacity="1"></path><path clip-path="url(#clip520)" d="M 0 0 M224.564 33.978 L224.564 40.824 L222.701 40.824 L222.701 34.0387 Q222.701 32.4285 222.073 31.6284 Q221.445 30.8284 220.189 30.8284 Q218.68 30.8284 217.809 31.7905 Q216.938 32.7526 216.938 34.4134 L216.938 40.824 L215.065 40.824 L215.065 29.4815 L216.938 29.4815 L216.938 31.2436 Q217.607 30.2208 218.508 29.7144 Q219.42 29.208 220.604 29.208 Q222.559 29.208 223.562 30.4233 Q224.564 31.6284 224.564 33.978 Z" fill="#000000" fill-rule="evenodd" fill-opacity="1"></path><path clip-path="url(#clip520)" d="M 0 0 M235.238 27.3851 L235.238 39.1429 L237.709 39.1429 Q240.839 39.1429 242.287 37.7251 Q243.745 36.3072 243.745 33.2488 Q243.745 30.2106 242.287 28.8029 Q240.839 27.3851 237.709 27.3851 L235.238 27.3851 M233.193 25.704 L237.395 25.704 Q241.791 25.704 243.847 27.537 Q245.902 29.3599 245.902 33.2488 Q245.902 37.1579 243.836 38.991 Q241.77 40.824 237.395 40.824 L233.193 40.824 L233.193 25.704 Z" fill="#000000" fill-rule="evenodd" fill-opacity="1"></path><path clip-path="url(#clip520)" d="M 0 0 M257.559 34.6869 L257.559 35.5983 L248.991 35.5983 Q249.113 37.5225 250.146 38.5352 Q251.189 39.5378 253.042 39.5378 Q254.116 39.5378 255.118 39.2745 Q256.131 39.0112 257.123 38.4846 L257.123 40.2467 Q256.121 40.6721 255.068 40.8949 Q254.014 41.1177 252.931 41.1177 Q250.217 41.1177 248.627 39.5378 Q247.047 37.958 247.047 35.2641 Q247.047 32.4791 248.546 30.8486 Q250.055 29.208 252.607 29.208 Q254.895 29.208 256.222 30.6866 Q257.559 32.1551 257.559 34.6869 M255.695 34.14 Q255.675 32.6108 254.835 31.6993 Q254.004 30.7879 252.627 30.7879 Q251.067 30.7879 250.125 31.669 Q249.194 32.55 249.052 34.1501 L255.695 34.14 Z" fill="#000000" fill-rule="evenodd" fill-opacity="1"></path><path clip-path="url(#clip520)" d="M 0 0 M259.513 25.066 L261.377 25.066 L261.377 40.824 L259.513 40.824 L259.513 25.066 Z" fill="#000000" fill-rule="evenodd" fill-opacity="1"></path><path clip-path="url(#clip520)" d="M 0 0 M270.005 25.704 L272.76 25.704 L279.464 38.3529 L279.464 25.704 L281.449 25.704 L281.449 40.824 L278.694 40.824 L271.99 28.1751 L271.99 40.824 L270.005 40.824 L270.005 25.704 Z" fill="#000000" fill-rule="evenodd" fill-opacity="1"></path><path clip-path="url(#clip520)" d="M 0 0 M293.106 34.6869 L293.106 35.5983 L284.538 35.5983 Q284.659 37.5225 285.692 38.5352 Q286.735 39.5378 288.589 39.5378 Q289.662 39.5378 290.665 39.2745 Q291.678 39.0112 292.67 38.4846 L292.67 40.2467 Q291.667 40.6721 290.614 40.8949 Q289.561 41.1177 288.477 41.1177 Q285.763 41.1177 284.173 39.5378 Q282.593 37.958 282.593 35.2641 Q282.593 32.4791 284.092 30.8486 Q285.601 29.208 288.153 29.208 Q290.442 29.208 291.769 30.6866 Q293.106 32.1551 293.106 34.6869 M291.242 34.14 Q291.222 32.6108 290.381 31.6993 Q289.551 30.7879 288.174 30.7879 Q286.614 30.7879 285.672 31.669 Q284.74 32.55 284.599 34.1501 L291.242 34.14 Z" fill="#000000" fill-rule="evenodd" fill-opacity="1"></path><path clip-path="url(#clip520)" d="M 0 0 M302.524 35.0211 Q302.524 32.9956 301.683 31.8816 Q300.853 30.7676 299.344 30.7676 Q297.845 30.7676 297.005 31.8816 Q296.174 32.9956 296.174 35.0211 Q296.174 37.0364 297.005 38.1504 Q297.845 39.2644 299.344 39.2644 Q300.853 39.2644 301.683 38.1504 Q302.524 37.0364 302.524 35.0211 M304.387 39.4163 Q304.387 42.3127 303.101 43.7204 Q301.815 45.1382 299.162 45.1382 Q298.179 45.1382 297.308 44.9863 Q296.437 44.8445 295.617 44.5407 L295.617 42.7279 Q296.437 43.1735 297.237 43.3862 Q298.037 43.5989 298.868 43.5989 Q300.701 43.5989 301.612 42.6368 Q302.524 41.6848 302.524 39.7505 L302.524 38.8289 Q301.947 39.8315 301.045 40.3278 Q300.144 40.824 298.888 40.824 Q296.802 40.824 295.526 39.234 Q294.25 37.644 294.25 35.0211 Q294.25 32.388 295.526 30.798 Q296.802 29.208 298.888 29.208 Q300.144 29.208 301.045 29.7043 Q301.947 30.2005 302.524 31.2031 L302.524 29.4815 L304.387 29.4815 L304.387 39.4163 Z" fill="#000000" fill-rule="evenodd" fill-opacity="1"></path><path clip-path="url(#clip520)" d="M 0 0 M312.914 31.2234 Q312.6 31.0411 312.226 30.96 Q311.861 30.8689 311.416 30.8689 Q309.836 30.8689 308.985 31.9019 Q308.145 32.9247 308.145 34.8489 L308.145 40.824 L306.271 40.824 L306.271 29.4815 L308.145 29.4815 L308.145 31.2436 Q308.732 30.2106 309.674 29.7144 Q310.616 29.208 311.962 29.208 Q312.155 29.208 312.388 29.2384 Q312.621 29.2587 312.904 29.3093 L312.914 31.2234 Z" fill="#000000" fill-rule="evenodd" fill-opacity="1"></path><path clip-path="url(#clip520)" d="M 0 0 M318.809 30.7879 Q317.31 30.7879 316.439 31.9626 Q315.568 33.1273 315.568 35.1629 Q315.568 37.1984 316.429 38.3732 Q317.3 39.5378 318.809 39.5378 Q320.297 39.5378 321.168 38.3631 Q322.039 37.1883 322.039 35.1629 Q322.039 33.1475 321.168 31.9728 Q320.297 30.7879 318.809 30.7879 M318.809 29.208 Q321.239 29.208 322.626 30.7879 Q324.014 32.3677 324.014 35.1629 Q324.014 37.9479 322.626 39.5378 Q321.239 41.1177 318.809 41.1177 Q316.368 41.1177 314.98 39.5378 Q313.603 37.9479 313.603 35.1629 Q313.603 32.3677 314.98 30.7879 Q316.368 29.208 318.809 29.208 Z" fill="#000000" fill-rule="evenodd" fill-opacity="1"></path><path clip-path="url(#clip520)" d="M 0 0 M342.263 34.6869 L342.263 35.5983 L333.696 35.5983 Q333.817 37.5225 334.85 38.5352 Q335.893 39.5378 337.746 39.5378 Q338.82 39.5378 339.823 39.2745 Q340.835 39.0112 341.828 38.4846 L341.828 40.2467 Q340.825 40.6721 339.772 40.8949 Q338.719 41.1177 337.635 41.1177 Q334.921 41.1177 333.331 39.5378 Q331.751 37.958 331.751 35.2641 Q331.751 32.4791 333.25 30.8486 Q334.759 29.208 337.311 29.208 Q339.6 29.208 340.926 30.6866 Q342.263 32.1551 342.263 34.6869 M340.4 34.14 Q340.38 32.6108 339.539 31.6993 Q338.709 30.7879 337.331 30.7879 Q335.772 30.7879 334.83 31.669 Q333.898 32.55 333.756 34.1501 L340.4 34.14 Z" fill="#000000" fill-rule="evenodd" fill-opacity="1"></path><path clip-path="url(#clip520)" d="M 0 0 M346.061 26.261 L346.061 29.4815 L349.899 29.4815 L349.899 30.9297 L346.061 30.9297 L346.061 37.087 Q346.061 38.4745 346.436 38.8694 Q346.821 39.2644 347.985 39.2644 L349.899 39.2644 L349.899 40.824 L347.985 40.824 Q345.828 40.824 345.008 40.0239 Q344.187 39.2138 344.187 37.087 L344.187 30.9297 L342.82 30.9297 L342.82 29.4815 L344.187 29.4815 L344.187 26.261 L346.061 26.261 Z" fill="#000000" fill-rule="evenodd" fill-opacity="1"></path><path clip-path="url(#clip520)" d="M 0 0 M363.601 35.1224 Q361.343 35.1224 360.472 35.6388 Q359.601 36.1553 359.601 37.401 Q359.601 38.3935 360.249 38.9808 Q360.908 39.5581 362.032 39.5581 Q363.581 39.5581 364.513 38.4643 Q365.455 37.3605 365.455 35.5376 L365.455 35.1224 L363.601 35.1224 M367.318 34.3527 L367.318 40.824 L365.455 40.824 L365.455 39.1024 Q364.817 40.1353 363.865 40.6316 Q362.913 41.1177 361.535 41.1177 Q359.794 41.1177 358.761 40.1455 Q357.738 39.1631 357.738 37.5225 Q357.738 35.6085 359.014 34.6362 Q360.3 33.664 362.842 33.664 L365.455 33.664 L365.455 33.4817 Q365.455 32.1956 364.604 31.4968 Q363.763 30.7879 362.234 30.7879 Q361.262 30.7879 360.34 31.0208 Q359.419 31.2537 358.568 31.7196 L358.568 29.998 Q359.591 29.603 360.553 29.4106 Q361.515 29.208 362.427 29.208 Q364.888 29.208 366.103 30.4841 Q367.318 31.7601 367.318 34.3527 Z" fill="#000000" fill-rule="evenodd" fill-opacity="1"></path><path clip-path="url(#clip520)" d="M 0 0 M369.273 25.066 L371.136 25.066 L371.136 40.824 L369.273 40.824 L369.273 25.066 Z" fill="#000000" fill-rule="evenodd" fill-opacity="1"></path><path clip-path="url(#clip520)" d="M 0 0 M373.354 38.2517 L375.491 38.2517 L375.491 40.824 L373.354 40.824 L373.354 38.2517 Z" fill="#000000" fill-rule="evenodd" fill-opacity="1"></path><path clip-path="url(#clip520)" d="M 0 0 M388.514 25.0862 Q387.157 27.4155 386.499 29.6941 Q385.841 31.9728 385.841 34.3122 Q385.841 36.6516 386.499 38.9505 Q387.168 41.2392 388.514 43.5584 L386.894 43.5584 Q385.375 41.1785 384.615 38.8796 Q383.866 36.5807 383.866 34.3122 Q383.866 32.0538 384.615 29.765 Q385.365 27.4763 386.894 25.0862 L388.514 25.0862 Z" fill="#000000" fill-rule="evenodd" fill-opacity="1"></path><path clip-path="url(#clip520)" d="M 0 0 M392.494 39.1024 L399.634 39.1024 L399.634 40.824 L390.034 40.824 L390.034 39.1024 Q391.198 37.8972 393.203 35.8718 Q395.219 33.8362 395.735 33.2488 Q396.718 32.1449 397.102 31.3854 Q397.497 30.6157 397.497 29.8764 Q397.497 28.6713 396.647 27.9117 Q395.806 27.1522 394.449 27.1522 Q393.487 27.1522 392.413 27.4864 Q391.35 27.8206 390.135 28.4991 L390.135 26.4332 Q391.37 25.9369 392.444 25.6837 Q393.517 25.4306 394.409 25.4306 Q396.758 25.4306 398.156 26.6053 Q399.553 27.7801 399.553 29.7448 Q399.553 30.6765 399.199 31.517 Q398.854 32.3475 397.933 33.4817 Q397.68 33.7754 396.323 35.1831 Q394.966 36.5807 392.494 39.1024 Z" fill="#000000" fill-rule="evenodd" fill-opacity="1"></path><path clip-path="url(#clip520)" d="M 0 0 M406.227 27.0509 Q404.647 27.0509 403.847 28.6105 Q403.057 30.16 403.057 33.2792 Q403.057 36.3883 403.847 37.9479 Q404.647 39.4973 406.227 39.4973 Q407.817 39.4973 408.607 37.9479 Q409.407 36.3883 409.407 33.2792 Q409.407 30.16 408.607 28.6105 Q407.817 27.0509 406.227 27.0509 M406.227 25.4306 Q408.769 25.4306 410.106 27.4459 Q411.453 29.4511 411.453 33.2792 Q411.453 37.0972 410.106 39.1125 Q408.769 41.1177 406.227 41.1177 Q403.685 41.1177 402.338 39.1125 Q401.001 37.0972 401.001 33.2792 Q401.001 29.4511 402.338 27.4459 Q403.685 25.4306 406.227 25.4306 Z" fill="#000000" fill-rule="evenodd" fill-opacity="1"></path><path clip-path="url(#clip520)" d="M 0 0 M414.025 39.1024 L417.367 39.1024 L417.367 27.5674 L413.731 28.2966 L413.731 26.4332 L417.347 25.704 L419.392 25.704 L419.392 39.1024 L422.734 39.1024 L422.734 40.824 L414.025 40.824 L414.025 39.1024 Z" fill="#000000" fill-rule="evenodd" fill-opacity="1"></path><path clip-path="url(#clip520)" d="M 0 0 M429.327 33.6438 Q427.869 33.6438 427.028 34.4236 Q426.198 35.2034 426.198 36.5706 Q426.198 37.9377 427.028 38.7175 Q427.869 39.4973 429.327 39.4973 Q430.786 39.4973 431.626 38.7175 Q432.467 37.9276 432.467 36.5706 Q432.467 35.2034 431.626 34.4236 Q430.796 33.6438 429.327 33.6438 M427.282 32.7728 Q425.965 32.4488 425.226 31.5474 Q424.497 30.6461 424.497 29.3498 Q424.497 27.537 425.783 26.4838 Q427.079 25.4306 429.327 25.4306 Q431.586 25.4306 432.872 26.4838 Q434.158 27.537 434.158 29.3498 Q434.158 30.6461 433.419 31.5474 Q432.69 32.4488 431.383 32.7728 Q432.862 33.1172 433.682 34.1198 Q434.512 35.1224 434.512 36.5706 Q434.512 38.7682 433.166 39.9429 Q431.829 41.1177 429.327 41.1177 Q426.826 41.1177 425.479 39.9429 Q424.142 38.7682 424.142 36.5706 Q424.142 35.1224 424.973 34.1198 Q425.803 33.1172 427.282 32.7728 M426.532 29.5422 Q426.532 30.717 427.261 31.3753 Q428.001 32.0335 429.327 32.0335 Q430.644 32.0335 431.383 31.3753 Q432.133 30.717 432.133 29.5422 Q432.133 28.3675 431.383 27.7092 Q430.644 27.0509 429.327 27.0509 Q428.001 27.0509 427.261 27.7092 Q426.532 28.3675 426.532 29.5422 Z" fill="#000000" fill-rule="evenodd" fill-opacity="1"></path><path clip-path="url(#clip520)" d="M 0 0 M436.173 25.0862 L437.794 25.0862 Q439.313 27.4763 440.062 29.765 Q440.822 32.0538 440.822 34.3122 Q440.822 36.5807 440.062 38.8796 Q439.313 41.1785 437.794 43.5584 L436.173 43.5584 Q437.52 41.2392 438.179 38.9505 Q438.847 36.6516 438.847 34.3122 Q438.847 31.9728 438.179 29.6941 Q437.52 27.4155 436.173 25.0862 Z" fill="#000000" fill-rule="evenodd" fill-opacity="1"></path><polyline clip-path="url(#clip522)" style="stroke:#009af9; stroke-width:4; stroke-opacity:1; fill:none" points="
  70.482,123.317 76.8444,74.7616 83.2067,85.5989 89.5691,115.811 95.9315,150.219 102.294,183.653 108.656,214.693 115.019,243.217 121.381,269.475 127.743,293.769 
  134.106,316.354 140.468,337.42 146.831,357.101 153.193,375.485 159.555,392.632 165.918,408.583 172.28,423.366 178.642,437.007 185.005,449.528 191.367,460.957 
  197.73,471.322 204.092,480.658 210.454,489.001 216.817,496.396 223.179,502.887 229.542,508.526 235.904,513.364 242.266,517.455 248.629,520.855 254.991,523.62 
  261.353,525.804 267.716,527.463 274.078,528.649 280.441,529.416 286.803,529.81 293.165,529.881 299.528,529.673 305.89,529.226 312.252,528.579 318.615,527.769 
  324.977,526.828 331.34,525.785 337.702,524.668 344.064,523.501 350.427,522.304 356.789,521.096 363.152,519.894 369.514,518.712 375.876,517.561 382.239,516.45 
  388.601,515.389 394.963,514.382 401.326,513.435 407.688,512.552 414.051,511.733 420.413,510.981 426.775,510.295 433.138,509.676 439.5,509.12 445.862,508.627 
  452.225,508.195 458.587,507.819 464.95,507.498 471.312,507.228 477.674,507.006 484.037,506.828 490.399,506.69 496.762,506.589 503.124,506.522 509.486,506.484 
  515.849,506.473 522.211,506.486 528.573,506.52 534.936,506.571 541.298,506.636 547.661,506.715 554.023,506.803 560.385,506.9 566.748,507.003 573.11,507.11 
  
  "></polyline>
<polyline clip-path="url(#clip522)" style="stroke:#000000; stroke-width:2; stroke-opacity:1; fill:none" points="
  70.482,508.571 76.8444,508.571 83.2067,508.571 89.5691,508.571 95.9315,508.571 102.294,508.571 108.656,508.571 115.019,508.571 121.381,508.571 127.743,508.571 
  134.106,508.571 140.468,508.571 146.831,508.571 153.193,508.571 159.555,508.571 165.918,508.571 172.28,508.571 178.642,508.571 185.005,508.571 191.367,508.571 
  197.73,508.571 204.092,508.571 210.454,508.571 216.817,508.571 223.179,508.571 229.542,508.571 235.904,508.571 242.266,508.571 248.629,508.571 254.991,508.571 
  261.353,508.571 267.716,508.571 274.078,508.571 280.441,508.571 286.803,508.571 293.165,508.571 299.528,508.571 305.89,508.571 312.252,508.571 318.615,508.571 
  324.977,508.571 331.34,508.571 337.702,508.571 344.064,508.571 350.427,508.571 356.789,508.571 363.152,508.571 369.514,508.571 375.876,508.571 382.239,508.571 
  388.601,508.571 394.963,508.571 401.326,508.571 407.688,508.571 414.051,508.571 420.413,508.571 426.775,508.571 433.138,508.571 439.5,508.571 445.862,508.571 
  452.225,508.571 458.587,508.571 464.95,508.571 471.312,508.571 477.674,508.571 484.037,508.571 490.399,508.571 496.762,508.571 503.124,508.571 509.486,508.571 
  515.849,508.571 522.211,508.571 528.573,508.571 534.936,508.571 541.298,508.571 547.661,508.571 554.023,508.571 560.385,508.571 566.748,508.571 573.11,508.571 
  
  "></polyline>
<path clip-path="url(#clip520)" d="
M271.198 107.429 L570.429 107.429 L570.429 77.1889 L271.198 77.1889  Z
  " fill="#ffffff" fill-rule="evenodd" fill-opacity="1"></path>
<polyline clip-path="url(#clip520)" style="stroke:#000000; stroke-width:1; stroke-opacity:1; fill:none" points="
  271.198,107.429 570.429,107.429 570.429,77.1889 271.198,77.1889 271.198,107.429 
  "></polyline>
<polyline clip-path="url(#clip520)" style="stroke:#009af9; stroke-width:1; stroke-opacity:1; fill:none" points="
  277.117,92.3089 312.636,92.3089 
  "></polyline>
<path clip-path="url(#clip520)" d="M 0 0 M318.556 87.9889 L319.725 87.9889 L319.725 96.6289 L318.556 96.6289 L318.556 87.9889 Z" fill="#000000" fill-rule="evenodd" fill-opacity="1"></path><path clip-path="url(#clip520)" d="M 0 0 M324.986 92.578 Q325.362 92.7053 325.715 93.122 Q326.074 93.5387 326.432 94.2678 L327.619 96.6289 L326.363 96.6289 L325.258 94.4125 Q324.829 93.5445 324.424 93.2609 Q324.025 92.9773 323.331 92.9773 L322.057 92.9773 L322.057 96.6289 L320.888 96.6289 L320.888 87.9889 L323.527 87.9889 Q325.009 87.9889 325.738 88.6081 Q326.467 89.2273 326.467 90.4773 Q326.467 91.2933 326.085 91.8315 Q325.709 92.3697 324.986 92.578 M322.057 88.9496 L322.057 92.0167 L323.527 92.0167 Q324.372 92.0167 324.801 91.629 Q325.235 91.2354 325.235 90.4773 Q325.235 89.7192 324.801 89.3373 Q324.372 88.9496 323.527 88.9496 L322.057 88.9496 Z" fill="#000000" fill-rule="evenodd" fill-opacity="1"></path><path clip-path="url(#clip520)" d="M 0 0 M328.782 87.9889 L333.747 87.9889 L333.747 88.9727 L329.951 88.9727 L329.951 91.519 L333.377 91.519 L333.377 92.5028 L329.951 92.5028 L329.951 96.6289 L328.782 96.6289 L328.782 87.9889 Z" fill="#000000" fill-rule="evenodd" fill-opacity="1"></path><path clip-path="url(#clip520)" d="M 0 0 M341.143 90.894 Q340.287 90.894 339.789 91.5653 Q339.291 92.2308 339.291 93.394 Q339.291 94.5572 339.783 95.2285 Q340.281 95.894 341.143 95.894 Q341.994 95.894 342.491 95.2227 Q342.989 94.5514 342.989 93.394 Q342.989 92.2424 342.491 91.5711 Q341.994 90.894 341.143 90.894 M341.143 89.9912 Q342.532 89.9912 343.325 90.894 Q344.118 91.7968 344.118 93.394 Q344.118 94.9854 343.325 95.894 Q342.532 96.7968 341.143 96.7968 Q339.748 96.7968 338.956 95.894 Q338.168 94.9854 338.168 93.394 Q338.168 91.7968 338.956 90.894 Q339.748 89.9912 341.143 89.9912 Z" fill="#000000" fill-rule="evenodd" fill-opacity="1"></path><path clip-path="url(#clip520)" d="M 0 0 M348.516 87.6243 L348.516 88.5098 L347.497 88.5098 Q346.924 88.5098 346.699 88.7412 Q346.479 88.9727 346.479 89.5746 L346.479 90.1475 L348.232 90.1475 L348.232 90.975 L346.479 90.975 L346.479 96.6289 L345.408 96.6289 L345.408 90.975 L344.39 90.975 L344.39 90.1475 L345.408 90.1475 L345.408 89.6961 Q345.408 88.6139 345.912 88.122 Q346.415 87.6243 347.509 87.6243 L348.516 87.6243 Z" fill="#000000" fill-rule="evenodd" fill-opacity="1"></path><path clip-path="url(#clip520)" d="M 0 0 M354.43 95.6567 L354.43 99.0942 L353.359 99.0942 L353.359 90.1475 L354.43 90.1475 L354.43 91.1313 Q354.766 90.5526 355.275 90.2748 Q355.79 89.9912 356.502 89.9912 Q357.682 89.9912 358.417 90.9287 Q359.158 91.8662 359.158 93.394 Q359.158 94.9218 358.417 95.8593 Q357.682 96.7968 356.502 96.7968 Q355.79 96.7968 355.275 96.519 Q354.766 96.2354 354.43 95.6567 M358.053 93.394 Q358.053 92.2192 357.567 91.5537 Q357.086 90.8824 356.241 90.8824 Q355.396 90.8824 354.91 91.5537 Q354.43 92.2192 354.43 93.394 Q354.43 94.5688 354.91 95.24 Q355.396 95.9056 356.241 95.9056 Q357.086 95.9056 357.567 95.24 Q358.053 94.5688 358.053 93.394 Z" fill="#000000" fill-rule="evenodd" fill-opacity="1"></path><path clip-path="url(#clip520)" d="M 0 0 M362.786 90.894 Q361.93 90.894 361.432 91.5653 Q360.935 92.2308 360.935 93.394 Q360.935 94.5572 361.426 95.2285 Q361.924 95.894 362.786 95.894 Q363.637 95.894 364.135 95.2227 Q364.632 94.5514 364.632 93.394 Q364.632 92.2424 364.135 91.5711 Q363.637 90.894 362.786 90.894 M362.786 89.9912 Q364.175 89.9912 364.968 90.894 Q365.761 91.7968 365.761 93.394 Q365.761 94.9854 364.968 95.894 Q364.175 96.7968 362.786 96.7968 Q361.392 96.7968 360.599 95.894 Q359.812 94.9854 359.812 93.394 Q359.812 91.7968 360.599 90.894 Q361.392 89.9912 362.786 89.9912 Z" fill="#000000" fill-rule="evenodd" fill-opacity="1"></path><path clip-path="url(#clip520)" d="M 0 0 M366.878 87.6243 L367.943 87.6243 L367.943 96.6289 L366.878 96.6289 L366.878 87.6243 Z" fill="#000000" fill-rule="evenodd" fill-opacity="1"></path><path clip-path="url(#clip520)" d="M 0 0 M369.06 90.1475 L370.124 90.1475 L370.124 96.6289 L369.06 96.6289 L369.06 90.1475 M369.06 87.6243 L370.124 87.6243 L370.124 88.9727 L369.06 88.9727 L369.06 87.6243 Z" fill="#000000" fill-rule="evenodd" fill-opacity="1"></path><path clip-path="url(#clip520)" d="M 0 0 M375.906 90.3963 L375.906 91.3917 Q375.454 91.1428 374.997 91.0213 Q374.546 90.894 374.083 90.894 Q373.047 90.894 372.474 91.5537 Q371.901 92.2077 371.901 93.394 Q371.901 94.5803 372.474 95.24 Q373.047 95.894 374.083 95.894 Q374.546 95.894 374.997 95.7725 Q375.454 95.6451 375.906 95.3963 L375.906 96.3801 Q375.46 96.5884 374.98 96.6926 Q374.505 96.7968 373.967 96.7968 Q372.503 96.7968 371.641 95.8766 Q370.778 94.9565 370.778 93.394 Q370.778 91.8084 371.646 90.8998 Q372.52 89.9912 374.036 89.9912 Q374.528 89.9912 374.997 90.0954 Q375.466 90.1938 375.906 90.3963 Z" fill="#000000" fill-rule="evenodd" fill-opacity="1"></path><path clip-path="url(#clip520)" d="M 0 0 M379.719 97.2308 Q379.268 98.3882 378.84 98.7412 Q378.411 99.0942 377.694 99.0942 L376.843 99.0942 L376.843 98.203 L377.468 98.203 Q377.908 98.203 378.151 97.9947 Q378.394 97.7863 378.689 97.0109 L378.88 96.5248 L376.259 90.1475 L377.387 90.1475 L379.412 95.2169 L381.438 90.1475 L382.566 90.1475 L379.719 97.2308 Z" fill="#000000" fill-rule="evenodd" fill-opacity="1"></path><path clip-path="url(#clip520)" d="M 0 0 M391.206 91.1428 Q391.027 91.0387 390.813 90.9924 Q390.605 90.9403 390.35 90.9403 Q389.447 90.9403 388.961 91.5306 Q388.481 92.1151 388.481 93.2146 L388.481 96.6289 L387.41 96.6289 L387.41 90.1475 L388.481 90.1475 L388.481 91.1544 Q388.816 90.5641 389.355 90.2806 Q389.893 89.9912 390.662 89.9912 Q390.772 89.9912 390.905 90.0086 Q391.039 90.0202 391.201 90.0491 L391.206 91.1428 Z" fill="#000000" fill-rule="evenodd" fill-opacity="1"></path><path clip-path="url(#clip520)" d="M 0 0 M395.269 93.3708 Q393.978 93.3708 393.481 93.666 Q392.983 93.9611 392.983 94.6729 Q392.983 95.24 393.353 95.5757 Q393.73 95.9056 394.372 95.9056 Q395.257 95.9056 395.79 95.2806 Q396.328 94.6498 396.328 93.6081 L396.328 93.3708 L395.269 93.3708 M397.393 92.931 L397.393 96.6289 L396.328 96.6289 L396.328 95.6451 Q395.963 96.2354 395.419 96.519 Q394.875 96.7968 394.088 96.7968 Q393.093 96.7968 392.503 96.2412 Q391.918 95.6799 391.918 94.7424 Q391.918 93.6486 392.647 93.0931 Q393.382 92.5375 394.835 92.5375 L396.328 92.5375 L396.328 92.4333 Q396.328 91.6984 395.842 91.2991 Q395.361 90.894 394.488 90.894 Q393.932 90.894 393.405 91.0271 Q392.879 91.1602 392.393 91.4264 L392.393 90.4426 Q392.977 90.2169 393.527 90.107 Q394.077 89.9912 394.598 89.9912 Q396.004 89.9912 396.698 90.7204 Q397.393 91.4496 397.393 92.931 Z" fill="#000000" fill-rule="evenodd" fill-opacity="1"></path><path clip-path="url(#clip520)" d="M 0 0 M399.563 88.3072 L399.563 90.1475 L401.756 90.1475 L401.756 90.975 L399.563 90.975 L399.563 94.4935 Q399.563 95.2863 399.777 95.512 Q399.997 95.7377 400.662 95.7377 L401.756 95.7377 L401.756 96.6289 L400.662 96.6289 Q399.43 96.6289 398.961 96.1718 Q398.492 95.7088 398.492 94.4935 L398.492 90.975 L397.711 90.975 L397.711 90.1475 L398.492 90.1475 L398.492 88.3072 L399.563 88.3072 Z" fill="#000000" fill-rule="evenodd" fill-opacity="1"></path><path clip-path="url(#clip520)" d="M 0 0 M408.417 93.122 L408.417 93.6428 L403.521 93.6428 Q403.591 94.7424 404.181 95.3211 Q404.777 95.894 405.836 95.894 Q406.449 95.894 407.022 95.7435 Q407.601 95.5931 408.168 95.2921 L408.168 96.2991 Q407.595 96.5421 406.993 96.6694 Q406.392 96.7968 405.772 96.7968 Q404.221 96.7968 403.313 95.894 Q402.41 94.9912 402.41 93.4519 Q402.41 91.8604 403.267 90.9287 Q404.129 89.9912 405.587 89.9912 Q406.895 89.9912 407.653 90.8361 Q408.417 91.6753 408.417 93.122 M407.352 92.8095 Q407.341 91.9357 406.86 91.4148 Q406.386 90.894 405.599 90.894 Q404.707 90.894 404.169 91.3975 Q403.637 91.9009 403.556 92.8153 L407.352 92.8095 Z" fill="#000000" fill-rule="evenodd" fill-opacity="1"></path><path clip-path="url(#clip520)" d="M 0 0 M414.354 88.3072 L414.354 90.1475 L416.548 90.1475 L416.548 90.975 L414.354 90.975 L414.354 94.4935 Q414.354 95.2863 414.569 95.512 Q414.788 95.7377 415.454 95.7377 L416.548 95.7377 L416.548 96.6289 L415.454 96.6289 Q414.221 96.6289 413.753 96.1718 Q413.284 95.7088 413.284 94.4935 L413.284 90.975 L412.503 90.975 L412.503 90.1475 L413.284 90.1475 L413.284 88.3072 L414.354 88.3072 Z" fill="#000000" fill-rule="evenodd" fill-opacity="1"></path><path clip-path="url(#clip520)" d="M 0 0 M420.176 90.894 Q419.32 90.894 418.822 91.5653 Q418.324 92.2308 418.324 93.394 Q418.324 94.5572 418.816 95.2285 Q419.314 95.894 420.176 95.894 Q421.027 95.894 421.525 95.2227 Q422.022 94.5514 422.022 93.394 Q422.022 92.2424 421.525 91.5711 Q421.027 90.894 420.176 90.894 M420.176 89.9912 Q421.565 89.9912 422.358 90.894 Q423.151 91.7968 423.151 93.394 Q423.151 94.9854 422.358 95.894 Q421.565 96.7968 420.176 96.7968 Q418.781 96.7968 417.989 95.894 Q417.202 94.9854 417.202 93.394 Q417.202 91.7968 417.989 90.894 Q418.781 89.9912 420.176 89.9912 Z" fill="#000000" fill-rule="evenodd" fill-opacity="1"></path><path clip-path="url(#clip520)" d="M 0 0 M429.065 95.6567 L429.065 99.0942 L427.994 99.0942 L427.994 90.1475 L429.065 90.1475 L429.065 91.1313 Q429.401 90.5526 429.91 90.2748 Q430.425 89.9912 431.137 89.9912 Q432.317 89.9912 433.052 90.9287 Q433.793 91.8662 433.793 93.394 Q433.793 94.9218 433.052 95.8593 Q432.317 96.7968 431.137 96.7968 Q430.425 96.7968 429.91 96.519 Q429.401 96.2354 429.065 95.6567 M432.688 93.394 Q432.688 92.2192 432.202 91.5537 Q431.721 90.8824 430.876 90.8824 Q430.031 90.8824 429.545 91.5537 Q429.065 92.2192 429.065 93.394 Q429.065 94.5688 429.545 95.24 Q430.031 95.9056 430.876 95.9056 Q431.721 95.9056 432.202 95.24 Q432.688 94.5688 432.688 93.394 Z" fill="#000000" fill-rule="evenodd" fill-opacity="1"></path><path clip-path="url(#clip520)" d="M 0 0 M440.454 93.122 L440.454 93.6428 L435.558 93.6428 Q435.627 94.7424 436.218 95.3211 Q436.814 95.894 437.873 95.894 Q438.486 95.894 439.059 95.7435 Q439.638 95.5931 440.205 95.2921 L440.205 96.2991 Q439.632 96.5421 439.03 96.6694 Q438.428 96.7968 437.809 96.7968 Q436.258 96.7968 435.35 95.894 Q434.447 94.9912 434.447 93.4519 Q434.447 91.8604 435.303 90.9287 Q436.166 89.9912 437.624 89.9912 Q438.932 89.9912 439.69 90.8361 Q440.454 91.6753 440.454 93.122 M439.389 92.8095 Q439.377 91.9357 438.897 91.4148 Q438.423 90.894 437.636 90.894 Q436.744 90.894 436.206 91.3975 Q435.674 91.9009 435.593 92.8153 L439.389 92.8095 Z" fill="#000000" fill-rule="evenodd" fill-opacity="1"></path><path clip-path="url(#clip520)" d="M 0 0 M445.326 91.1428 Q445.147 91.0387 444.933 90.9924 Q444.725 90.9403 444.47 90.9403 Q443.567 90.9403 443.081 91.5306 Q442.601 92.1151 442.601 93.2146 L442.601 96.6289 L441.53 96.6289 L441.53 90.1475 L442.601 90.1475 L442.601 91.1544 Q442.936 90.5641 443.475 90.2806 Q444.013 89.9912 444.783 89.9912 Q444.892 89.9912 445.026 90.0086 Q445.159 90.0202 445.321 90.0491 L445.326 91.1428 Z" fill="#000000" fill-rule="evenodd" fill-opacity="1"></path><path clip-path="url(#clip520)" d="M 0 0 M451.281 91.3917 Q451.681 90.6741 452.236 90.3327 Q452.792 89.9912 453.544 89.9912 Q454.557 89.9912 455.107 90.703 Q455.656 91.409 455.656 92.7169 L455.656 96.6289 L454.586 96.6289 L454.586 92.7516 Q454.586 91.8199 454.256 91.3685 Q453.926 90.9172 453.249 90.9172 Q452.421 90.9172 451.941 91.4669 Q451.461 92.0167 451.461 92.9658 L451.461 96.6289 L450.39 96.6289 L450.39 92.7516 Q450.39 91.8141 450.06 91.3685 Q449.73 90.9172 449.042 90.9172 Q448.226 90.9172 447.745 91.4727 Q447.265 92.0225 447.265 92.9658 L447.265 96.6289 L446.195 96.6289 L446.195 90.1475 L447.265 90.1475 L447.265 91.1544 Q447.63 90.5584 448.139 90.2748 Q448.648 89.9912 449.348 89.9912 Q450.054 89.9912 450.546 90.35 Q451.044 90.7088 451.281 91.3917 Z" fill="#000000" fill-rule="evenodd" fill-opacity="1"></path><path clip-path="url(#clip520)" d="M 0 0 M459.719 93.3708 Q458.428 93.3708 457.931 93.666 Q457.433 93.9611 457.433 94.6729 Q457.433 95.24 457.803 95.5757 Q458.179 95.9056 458.822 95.9056 Q459.707 95.9056 460.24 95.2806 Q460.778 94.6498 460.778 93.6081 L460.778 93.3708 L459.719 93.3708 M461.843 92.931 L461.843 96.6289 L460.778 96.6289 L460.778 95.6451 Q460.413 96.2354 459.869 96.519 Q459.325 96.7968 458.538 96.7968 Q457.543 96.7968 456.953 96.2412 Q456.368 95.6799 456.368 94.7424 Q456.368 93.6486 457.097 93.0931 Q457.832 92.5375 459.285 92.5375 L460.778 92.5375 L460.778 92.4333 Q460.778 91.6984 460.292 91.2991 Q459.811 90.894 458.938 90.894 Q458.382 90.894 457.855 91.0271 Q457.329 91.1602 456.843 91.4264 L456.843 90.4426 Q457.427 90.2169 457.977 90.107 Q458.527 89.9912 459.047 89.9912 Q460.454 89.9912 461.148 90.7204 Q461.843 91.4496 461.843 92.931 Z" fill="#000000" fill-rule="evenodd" fill-opacity="1"></path><path clip-path="url(#clip520)" d="M 0 0 M468.347 92.7169 L468.347 96.6289 L467.282 96.6289 L467.282 92.7516 Q467.282 91.8315 466.924 91.3743 Q466.565 90.9172 465.847 90.9172 Q464.985 90.9172 464.487 91.4669 Q463.99 92.0167 463.99 92.9658 L463.99 96.6289 L462.919 96.6289 L462.919 90.1475 L463.99 90.1475 L463.99 91.1544 Q464.372 90.5699 464.887 90.2806 Q465.407 89.9912 466.084 89.9912 Q467.201 89.9912 467.774 90.6857 Q468.347 91.3743 468.347 92.7169 Z" fill="#000000" fill-rule="evenodd" fill-opacity="1"></path><path clip-path="url(#clip520)" d="M 0 0 M475.008 93.122 L475.008 93.6428 L470.112 93.6428 Q470.182 94.7424 470.772 95.3211 Q471.368 95.894 472.427 95.894 Q473.04 95.894 473.613 95.7435 Q474.192 95.5931 474.759 95.2921 L474.759 96.2991 Q474.186 96.5421 473.584 96.6694 Q472.983 96.7968 472.363 96.7968 Q470.812 96.7968 469.904 95.894 Q469.001 94.9912 469.001 93.4519 Q469.001 91.8604 469.858 90.9287 Q470.72 89.9912 472.178 89.9912 Q473.486 89.9912 474.244 90.8361 Q475.008 91.6753 475.008 93.122 M473.943 92.8095 Q473.932 91.9357 473.451 91.4148 Q472.977 90.894 472.19 90.894 Q471.299 90.894 470.76 91.3975 Q470.228 91.9009 470.147 92.8153 L473.943 92.8095 Z" fill="#000000" fill-rule="evenodd" fill-opacity="1"></path><path clip-path="url(#clip520)" d="M 0 0 M481.513 92.7169 L481.513 96.6289 L480.448 96.6289 L480.448 92.7516 Q480.448 91.8315 480.089 91.3743 Q479.73 90.9172 479.013 90.9172 Q478.15 90.9172 477.653 91.4669 Q477.155 92.0167 477.155 92.9658 L477.155 96.6289 L476.084 96.6289 L476.084 90.1475 L477.155 90.1475 L477.155 91.1544 Q477.537 90.5699 478.052 90.2806 Q478.573 89.9912 479.25 89.9912 Q480.367 89.9912 480.94 90.6857 Q481.513 91.3743 481.513 92.7169 Z" fill="#000000" fill-rule="evenodd" fill-opacity="1"></path><path clip-path="url(#clip520)" d="M 0 0 M483.683 88.3072 L483.683 90.1475 L485.876 90.1475 L485.876 90.975 L483.683 90.975 L483.683 94.4935 Q483.683 95.2863 483.897 95.512 Q484.117 95.7377 484.782 95.7377 L485.876 95.7377 L485.876 96.6289 L484.782 96.6289 Q483.55 96.6289 483.081 96.1718 Q482.612 95.7088 482.612 94.4935 L482.612 90.975 L481.831 90.975 L481.831 90.1475 L482.612 90.1475 L482.612 88.3072 L483.683 88.3072 Z" fill="#000000" fill-rule="evenodd" fill-opacity="1"></path><path clip-path="url(#clip520)" d="M 0 0 M494.892 90.3385 L494.892 91.3454 Q494.441 91.1139 493.955 90.9982 Q493.469 90.8824 492.948 90.8824 Q492.155 90.8824 491.756 91.1255 Q491.362 91.3685 491.362 91.8546 Q491.362 92.225 491.646 92.4391 Q491.929 92.6475 492.786 92.8384 L493.15 92.9195 Q494.285 93.1625 494.759 93.6081 Q495.239 94.0479 495.239 94.8407 Q495.239 95.7435 494.522 96.2701 Q493.81 96.7968 492.56 96.7968 Q492.039 96.7968 491.472 96.6926 Q490.911 96.5942 490.286 96.3917 L490.286 95.2921 Q490.876 95.5988 491.449 95.7551 Q492.022 95.9056 492.583 95.9056 Q493.335 95.9056 493.741 95.6509 Q494.146 95.3905 494.146 94.9218 Q494.146 94.4877 493.851 94.2563 Q493.561 94.0248 492.572 93.8107 L492.201 93.7239 Q491.212 93.5155 490.772 93.0873 Q490.332 92.6533 490.332 91.9009 Q490.332 90.9866 490.98 90.4889 Q491.628 89.9912 492.82 89.9912 Q493.411 89.9912 493.932 90.078 Q494.452 90.1648 494.892 90.3385 Z" fill="#000000" fill-rule="evenodd" fill-opacity="1"></path><path clip-path="url(#clip520)" d="M 0 0 M499.302 93.3708 Q498.011 93.3708 497.514 93.666 Q497.016 93.9611 497.016 94.6729 Q497.016 95.24 497.386 95.5757 Q497.763 95.9056 498.405 95.9056 Q499.29 95.9056 499.823 95.2806 Q500.361 94.6498 500.361 93.6081 L500.361 93.3708 L499.302 93.3708 M501.426 92.931 L501.426 96.6289 L500.361 96.6289 L500.361 95.6451 Q499.996 96.2354 499.452 96.519 Q498.908 96.7968 498.121 96.7968 Q497.126 96.7968 496.536 96.2412 Q495.951 95.6799 495.951 94.7424 Q495.951 93.6486 496.68 93.0931 Q497.415 92.5375 498.868 92.5375 L500.361 92.5375 L500.361 92.4333 Q500.361 91.6984 499.875 91.2991 Q499.394 90.894 498.521 90.894 Q497.965 90.894 497.438 91.0271 Q496.912 91.1602 496.426 91.4264 L496.426 90.4426 Q497.01 90.2169 497.56 90.107 Q498.11 89.9912 498.631 89.9912 Q500.037 89.9912 500.731 90.7204 Q501.426 91.4496 501.426 92.931 Z" fill="#000000" fill-rule="evenodd" fill-opacity="1"></path><path clip-path="url(#clip520)" d="M 0 0 M505.824 87.6243 L505.824 88.5098 L504.805 88.5098 Q504.232 88.5098 504.007 88.7412 Q503.787 88.9727 503.787 89.5746 L503.787 90.1475 L505.54 90.1475 L505.54 90.975 L503.787 90.975 L503.787 96.6289 L502.716 96.6289 L502.716 90.975 L501.698 90.975 L501.698 90.1475 L502.716 90.1475 L502.716 89.6961 Q502.716 88.6139 503.22 88.122 Q503.723 87.6243 504.817 87.6243 L505.824 87.6243 Z" fill="#000000" fill-rule="evenodd" fill-opacity="1"></path><path clip-path="url(#clip520)" d="M 0 0 M512.485 93.122 L512.485 93.6428 L507.589 93.6428 Q507.658 94.7424 508.249 95.3211 Q508.845 95.894 509.904 95.894 Q510.517 95.894 511.09 95.7435 Q511.669 95.5931 512.236 95.2921 L512.236 96.2991 Q511.663 96.5421 511.061 96.6694 Q510.459 96.7968 509.84 96.7968 Q508.289 96.7968 507.381 95.894 Q506.478 94.9912 506.478 93.4519 Q506.478 91.8604 507.334 90.9287 Q508.197 89.9912 509.655 89.9912 Q510.963 89.9912 511.721 90.8361 Q512.485 91.6753 512.485 93.122 M511.42 92.8095 Q511.408 91.9357 510.928 91.4148 Q510.453 90.894 509.666 90.894 Q508.775 90.894 508.237 91.3975 Q507.705 91.9009 507.624 92.8153 L511.42 92.8095 Z" fill="#000000" fill-rule="evenodd" fill-opacity="1"></path><path clip-path="url(#clip520)" d="M 0 0 M514.655 88.3072 L514.655 90.1475 L516.848 90.1475 L516.848 90.975 L514.655 90.975 L514.655 94.4935 Q514.655 95.2863 514.869 95.512 Q515.089 95.7377 515.754 95.7377 L516.848 95.7377 L516.848 96.6289 L515.754 96.6289 Q514.522 96.6289 514.053 96.1718 Q513.584 95.7088 513.584 94.4935 L513.584 90.975 L512.803 90.975 L512.803 90.1475 L513.584 90.1475 L513.584 88.3072 L514.655 88.3072 Z" fill="#000000" fill-rule="evenodd" fill-opacity="1"></path><path clip-path="url(#clip520)" d="M 0 0 M520.662 97.2308 Q520.21 98.3882 519.782 98.7412 Q519.354 99.0942 518.636 99.0942 L517.786 99.0942 L517.786 98.203 L518.411 98.203 Q518.85 98.203 519.093 97.9947 Q519.337 97.7863 519.632 97.0109 L519.823 96.5248 L517.201 90.1475 L518.33 90.1475 L520.355 95.2169 L522.38 90.1475 L523.509 90.1475 L520.662 97.2308 Z" fill="#000000" fill-rule="evenodd" fill-opacity="1"></path><path clip-path="url(#clip520)" d="M 0 0 M532.525 90.3385 L532.525 91.3454 Q532.074 91.1139 531.588 90.9982 Q531.101 90.8824 530.581 90.8824 Q529.788 90.8824 529.389 91.1255 Q528.995 91.3685 528.995 91.8546 Q528.995 92.225 529.279 92.4391 Q529.562 92.6475 530.419 92.8384 L530.783 92.9195 Q531.917 93.1625 532.392 93.6081 Q532.872 94.0479 532.872 94.8407 Q532.872 95.7435 532.155 96.2701 Q531.443 96.7968 530.193 96.7968 Q529.672 96.7968 529.105 96.6926 Q528.544 96.5942 527.919 96.3917 L527.919 95.2921 Q528.509 95.5988 529.082 95.7551 Q529.655 95.9056 530.216 95.9056 Q530.968 95.9056 531.373 95.6509 Q531.779 95.3905 531.779 94.9218 Q531.779 94.4877 531.483 94.2563 Q531.194 94.0248 530.204 93.8107 L529.834 93.7239 Q528.845 93.5155 528.405 93.0873 Q527.965 92.6533 527.965 91.9009 Q527.965 90.9866 528.613 90.4889 Q529.261 89.9912 530.453 89.9912 Q531.044 89.9912 531.564 90.078 Q532.085 90.1648 532.525 90.3385 Z" fill="#000000" fill-rule="evenodd" fill-opacity="1"></path><path clip-path="url(#clip520)" d="M 0 0 M539.377 92.7169 L539.377 96.6289 L538.312 96.6289 L538.312 92.7516 Q538.312 91.8315 537.953 91.3743 Q537.595 90.9172 536.877 90.9172 Q536.015 90.9172 535.517 91.4669 Q535.019 92.0167 535.019 92.9658 L535.019 96.6289 L533.949 96.6289 L533.949 87.6243 L535.019 87.6243 L535.019 91.1544 Q535.401 90.5699 535.916 90.2806 Q536.437 89.9912 537.114 89.9912 Q538.231 89.9912 538.804 90.6857 Q539.377 91.3743 539.377 92.7169 Z" fill="#000000" fill-rule="evenodd" fill-opacity="1"></path><path clip-path="url(#clip520)" d="M 0 0 M543.005 90.894 Q542.149 90.894 541.651 91.5653 Q541.154 92.2308 541.154 93.394 Q541.154 94.5572 541.645 95.2285 Q542.143 95.894 543.005 95.894 Q543.856 95.894 544.354 95.2227 Q544.851 94.5514 544.851 93.394 Q544.851 92.2424 544.354 91.5711 Q543.856 90.894 543.005 90.894 M543.005 89.9912 Q544.394 89.9912 545.187 90.894 Q545.98 91.7968 545.98 93.394 Q545.98 94.9854 545.187 95.894 Q544.394 96.7968 543.005 96.7968 Q541.611 96.7968 540.818 95.894 Q540.031 94.9854 540.031 93.394 Q540.031 91.7968 540.818 90.894 Q541.611 89.9912 543.005 89.9912 Z" fill="#000000" fill-rule="evenodd" fill-opacity="1"></path><path clip-path="url(#clip520)" d="M 0 0 M551.761 90.3963 L551.761 91.3917 Q551.31 91.1428 550.853 91.0213 Q550.401 90.894 549.938 90.894 Q548.902 90.894 548.329 91.5537 Q547.756 92.2077 547.756 93.394 Q547.756 94.5803 548.329 95.24 Q548.902 95.894 549.938 95.894 Q550.401 95.894 550.853 95.7725 Q551.31 95.6451 551.761 95.3963 L551.761 96.3801 Q551.315 96.5884 550.835 96.6926 Q550.361 96.7968 549.822 96.7968 Q548.358 96.7968 547.496 95.8766 Q546.634 94.9565 546.634 93.394 Q546.634 91.8084 547.502 90.8998 Q548.376 89.9912 549.892 89.9912 Q550.384 89.9912 550.853 90.0954 Q551.321 90.1938 551.761 90.3963 Z" fill="#000000" fill-rule="evenodd" fill-opacity="1"></path><path clip-path="url(#clip520)" d="M 0 0 M552.837 87.6243 L553.908 87.6243 L553.908 92.9426 L557.085 90.1475 L558.445 90.1475 L555.008 93.1799 L558.59 96.6289 L557.201 96.6289 L553.908 93.4634 L553.908 96.6289 L552.837 96.6289 L552.837 87.6243 Z" fill="#000000" fill-rule="evenodd" fill-opacity="1"></path></svg>